{
.appVersion = "3087";
.formatVersion = 3;
DisplayStrings = (
"↔"
);
date = "2023-02-19 16:43:54 +0000";
familyName = Poppy;
fontMaster = (
{
id = m01;
metricValues = (
{
pos = 1000;
},
{
over = 15;
pos = 785;
},
{
over = 15;
pos = 500;
},
{
over = -10;
},
{
over = -10;
pos = -200;
},
{
over = -16;
},
{
}
);
name = Regular;
}
);
glyphs = (
{
glyphname = A;
lastChange = "2023-02-26 17:00:22 +0000";
layers = (
{
background = {
shapes = (
{
closed = 1;
nodes = (
(128,690,o),
(150,712,o),
(150,740,cs),
(150,768,o),
(128,790,o),
(100,790,cs),
(72,790,o),
(50,768,o),
(50,740,cs),
(50,712,o),
(72,690,o),
(100,690,cs)
);
},
{
closed = 1;
nodes = (
(228,690,o),
(250,712,o),
(250,740,cs),
(250,768,o),
(228,790,o),
(200,790,cs),
(172,790,o),
(150,768,o),
(150,740,cs),
(150,712,o),
(172,690,o),
(200,690,cs)
);
},
{
closed = 1;
nodes = (
(328,690,o),
(350,712,o),
(350,740,cs),
(350,768,o),
(328,790,o),
(300,790,cs),
(272,790,o),
(250,768,o),
(250,740,cs),
(250,712,o),
(272,690,o),
(300,690,cs)
);
},
{
closed = 1;
nodes = (
(128,590,o),
(150,612,o),
(150,640,cs),
(150,668,o),
(128,690,o),
(100,690,cs),
(72,690,o),
(50,668,o),
(50,640,cs),
(50,612,o),
(72,590,o),
(100,590,cs)
);
},
{
closed = 1;
nodes = (
(228,590,o),
(250,612,o),
(250,640,cs),
(250,668,o),
(228,690,o),
(200,690,cs),
(172,690,o),
(150,668,o),
(150,640,cs),
(150,612,o),
(172,590,o),
(200,590,cs)
);
},
{
closed = 1;
nodes = (
(328,590,o),
(350,612,o),
(350,640,cs),
(350,668,o),
(328,690,o),
(300,690,cs),
(272,690,o),
(250,668,o),
(250,640,cs),
(250,612,o),
(272,590,o),
(300,590,cs)
);
},
{
closed = 1;
nodes = (
(128,490,o),
(150,512,o),
(150,540,cs),
(150,568,o),
(128,590,o),
(100,590,cs),
(72,590,o),
(50,568,o),
(50,540,cs),
(50,512,o),
(72,490,o),
(100,490,cs)
);
},
{
closed = 1;
nodes = (
(228,490,o),
(250,512,o),
(250,540,cs),
(250,568,o),
(228,590,o),
(200,590,cs),
(172,590,o),
(150,568,o),
(150,540,cs),
(150,512,o),
(172,490,o),
(200,490,cs)
);
},
{
closed = 1;
nodes = (
(328,490,o),
(350,512,o),
(350,540,cs),
(350,568,o),
(328,590,o),
(300,590,cs),
(272,590,o),
(250,568,o),
(250,540,cs),
(250,512,o),
(272,490,o),
(300,490,cs)
);
},
{
closed = 1;
nodes = (
(128,390,o),
(150,412,o),
(150,440,cs),
(150,468,o),
(128,490,o),
(100,490,cs),
(72,490,o),
(50,468,o),
(50,440,cs),
(50,412,o),
(72,390,o),
(100,390,cs)
);
},
{
closed = 1;
nodes = (
(228,390,o),
(250,412,o),
(250,440,cs),
(250,468,o),
(228,490,o),
(200,490,cs),
(172,490,o),
(150,468,o),
(150,440,cs),
(150,412,o),
(172,390,o),
(200,390,cs)
);
},
{
closed = 1;
nodes = (
(328,390,o),
(350,412,o),
(350,440,cs),
(350,468,o),
(328,490,o),
(300,490,cs),
(272,490,o),
(250,468,o),
(250,440,cs),
(250,412,o),
(272,390,o),
(300,390,cs)
);
},
{
closed = 1;
nodes = (
(128,290,o),
(150,312,o),
(150,340,cs),
(150,368,o),
(128,390,o),
(100,390,cs),
(72,390,o),
(50,368,o),
(50,340,cs),
(50,312,o),
(72,290,o),
(100,290,cs)
);
},
{
closed = 1;
nodes = (
(228,290,o),
(250,312,o),
(250,340,cs),
(250,368,o),
(228,390,o),
(200,390,cs),
(172,390,o),
(150,368,o),
(150,340,cs),
(150,312,o),
(172,290,o),
(200,290,cs)
);
},
{
closed = 1;
nodes = (
(328,290,o),
(350,312,o),
(350,340,cs),
(350,368,o),
(328,390,o),
(300,390,cs),
(272,390,o),
(250,368,o),
(250,340,cs),
(250,312,o),
(272,290,o),
(300,290,cs)
);
},
{
closed = 1;
nodes = (
(128,190,o),
(150,212,o),
(150,240,cs),
(150,268,o),
(128,290,o),
(100,290,cs),
(72,290,o),
(50,268,o),
(50,240,cs),
(50,212,o),
(72,190,o),
(100,190,cs)
);
},
{
closed = 1;
nodes = (
(228,190,o),
(250,212,o),
(250,240,cs),
(250,268,o),
(228,290,o),
(200,290,cs),
(172,290,o),
(150,268,o),
(150,240,cs),
(150,212,o),
(172,190,o),
(200,190,cs)
);
},
{
closed = 1;
nodes = (
(328,190,o),
(350,212,o),
(350,240,cs),
(350,268,o),
(328,290,o),
(300,290,cs),
(272,290,o),
(250,268,o),
(250,240,cs),
(250,212,o),
(272,190,o),
(300,190,cs)
);
},
{
closed = 1;
nodes = (
(128,90,o),
(150,112,o),
(150,140,cs),
(150,168,o),
(128,190,o),
(100,190,cs),
(72,190,o),
(50,169,o),
(50,140,cs),
(50,112,o),
(72,90,o),
(100,90,cs)
);
},
{
closed = 1;
nodes = (
(228,90,o),
(250,112,o),
(250,140,cs),
(250,168,o),
(228,190,o),
(200,190,cs),
(172,190,o),
(150,168,o),
(150,140,cs),
(150,112,o),
(172,90,o),
(200,90,cs)
);
},
{
closed = 1;
nodes = (
(328,90,o),
(350,112,o),
(350,140,cs),
(350,168,o),
(328,190,o),
(300,190,cs),
(272,190,o),
(250,168,o),
(250,140,cs),
(250,112,o),
(272,90,o),
(300,90,cs)
);
},
{
closed = 1;
nodes = (
(128,-10,o),
(150,12,o),
(150,40,cs),
(150,68,o),
(128,90,o),
(100,90,cs),
(72,90,o),
(50,68,o),
(50,40,cs),
(50,12,o),
(72,-10,o),
(100,-10,cs)
);
},
{
closed = 1;
nodes = (
(228,-10,o),
(250,12,o),
(250,40,cs),
(250,68,o),
(228,90,o),
(200,90,cs),
(172,90,o),
(150,68,o),
(150,40,cs),
(150,12,o),
(172,-10,o),
(200,-10,cs)
);
},
{
closed = 1;
nodes = (
(328,-10,o),
(350,12,o),
(350,40,cs),
(350,68,o),
(328,90,o),
(300,90,cs),
(272,90,o),
(250,68,o),
(250,40,cs),
(250,12,o),
(272,-10,o),
(300,-10,cs)
);
}
);
};
layerId = m01;
shapes = (
{
closed = 1;
nodes = (
(128,0,o),
(150,22,o),
(150,50,cs),
(150,250,ls),
(150,278,o),
(172,300,o),
(200,300,cs),
(228,300,o),
(250,278,o),
(250,250,cs),
(250,50,ls),
(250,22,o),
(272,0,o),
(300,0,cs),
(328,0,o),
(350,22,o),
(350,50,cs),
(350,650,ls),
(350,733,o),
(283,800,o),
(200,800,cs),
(117,800,o),
(50,733,o),
(50,650,cs),
(50,50,ls),
(50,22,o),
(72,0,o),
(100,0,cs)
);
},
{
closed = 1;
nodes = (
(150,578,o),
(172,600,o),
(200,600,cs),
(228,600,o),
(250,578,o),
(250,550,cs),
(250,522,o),
(228,500,o),
(200,500,cs),
(172,500,o),
(150,522,o),
(150,550,cs)
);
}
);
width = 400;
}
);
unicode = (65,97);
},
{
glyphname = Aacute;
lastChange = "2023-02-26 17:00:22 +0000";
layers = (
{
layerId = m01;
shapes = (
{
closed = 1;
nodes = (
(128,0,o),
(150,22,o),
(150,50,cs),
(150,250,ls),
(150,278,o),
(172,300,o),
(200,300,cs),
(228,300,o),
(250,278,o),
(250,250,cs),
(250,50,ls),
(250,22,o),
(272,0,o),
(300,0,cs),
(328,0,o),
(350,22,o),
(350,50,cs),
(350,650,ls),
(350,733,o),
(283,800,o),
(200,800,cs),
(117,800,o),
(50,733,o),
(50,650,cs),
(50,50,ls),
(50,22,o),
(72,0,o),
(100,0,cs)
);
},
{
closed = 1;
nodes = (
(126,855,o),
(134,853,o),
(144,859,cs),
(274,937,ls),
(284,943,o),
(286,951,o),
(280,961,cs),
(274,971,o),
(266,973,o),
(255,967,cs),
(126,889,ls),
(116,883,o),
(114,875,o),
(119,866,cs)
);
},
{
closed = 1;
nodes = (
(150,578,o),
(172,600,o),
(200,600,cs),
(228,600,o),
(250,578,o),
(250,550,cs),
(250,522,o),
(228,500,o),
(200,500,cs),
(172,500,o),
(150,522,o),
(150,550,cs)
);
}
);
width = 400;
}
);
unicode = (193,225);
},
{
glyphname = Abreve;
lastChange = "2023-02-26 17:00:22 +0000";
layers = (
{
layerId = m01;
shapes = (
{
closed = 1;
nodes = (
(128,0,o),
(150,22,o),
(150,50,cs),
(150,250,ls),
(150,278,o),
(172,300,o),
(200,300,cs),
(228,300,o),
(250,278,o),
(250,250,cs),
(250,50,ls),
(250,22,o),
(272,0,o),
(300,0,cs),
(328,0,o),
(350,22,o),
(350,50,cs),
(350,650,ls),
(350,733,o),
(283,800,o),
(200,800,cs),
(117,800,o),
(50,733,o),
(50,650,cs),
(50,50,ls),
(50,22,o),
(72,0,o),
(100,0,cs)
);
},
{
closed = 1;
nodes = (
(146,864,o),
(173,851,o),
(200,850,cs),
(228,850,o),
(255,863,o),
(281,890,cs),
(289,898,o),
(289,907,o),
(281,915,cs),
(272,923,o),
(264,923,o),
(255,914,cs),
(236,895,o),
(218,885,o),
(200,885,cs),
(182,885,o),
(164,895,o),
(144,915,cs),
(135,923,o),
(127,923,o),
(119,915,cs),
(110,906,o),
(110,898,o),
(119,890,cs)
);
},
{
closed = 1;
nodes = (
(150,578,o),
(172,600,o),
(200,600,cs),
(228,600,o),
(250,578,o),
(250,550,cs),
(250,522,o),
(228,500,o),
(200,500,cs),
(172,500,o),
(150,522,o),
(150,550,cs)
);
}
);
width = 404;
}
);
unicode = (258,259);
},
{
glyphname = Acircumflex;
lastChange = "2023-02-26 17:00:22 +0000";
layers = (
{
layerId = m01;
shapes = (
{
closed = 1;
nodes = (
(128,0,o),
(150,22,o),
(150,50,cs),
(150,250,ls),
(150,278,o),
(172,300,o),
(200,300,cs),
(228,300,o),
(250,278,o),
(250,250,cs),
(250,50,ls),
(250,22,o),
(272,0,o),
(300,0,cs),
(328,0,o),
(350,22,o),
(350,50,cs),
(350,650,ls),
(350,733,o),
(283,800,o),
(200,800,cs),
(117,800,o),
(50,733,o),
(50,650,cs),
(50,50,ls),
(50,22,o),
(72,0,o),
(100,0,cs)
);
},
{
closed = 1;
nodes = (
(116,849,o),
(125,847,o),
(133,854,cs),
(200,908,l),
(268,855,ls),
(276,849,o),
(284,850,o),
(292,857,c),
(299,867,o),
(298,875,o),
(288,883,cs),
(200,951,l),
(111,882,ls),
(101,875,o),
(101,866,o),
(108,857,cs)
);
},
{
closed = 1;
nodes = (
(150,578,o),
(172,600,o),
(200,600,cs),
(228,600,o),
(250,578,o),
(250,550,cs),
(250,522,o),
(228,500,o),
(200,500,cs),
(172,500,o),
(150,522,o),
(150,550,cs)
);
}
);
width = 413;
}
);
unicode = (194,226);
},
{
glyphname = Adieresis;
lastChange = "2023-02-26 17:00:22 +0000";
layers = (
{
layerId = m01;
shapes = (
{
closed = 1;
nodes = (
(128,0,o),
(150,22,o),
(150,50,cs),
(150,250,ls),
(150,278,o),
(172,300,o),
(200,300,cs),
(228,300,o),
(250,278,o),
(250,250,cs),
(250,50,ls),
(250,22,o),
(272,0,o),
(300,0,cs),
(328,0,o),
(350,22,o),
(350,50,cs),
(350,650,ls),
(350,733,o),
(283,800,o),
(200,800,cs),
(117,800,o),
(50,733,o),
(50,650,cs),
(50,50,ls),
(50,22,o),
(72,0,o),
(100,0,cs)
);
},
{
closed = 1;
nodes = (
(100,896,o),
(103,885,o),
(111,877,cs),
(118,868,o),
(128,863,o),
(139,863,cs),
(150,863,o),
(159,868,o),
(167,877,cs),
(175,885,o),
(179,896,o),
(179,909,cs),
(179,923,o),
(175,934,o),
(167,943,cs),
(159,952,o),
(150,957,o),
(139,957,cs),
(128,957,o),
(118,952,o),
(111,943,cs),
(103,934,o),
(100,923,o),
(100,909,cs)
);
},
{
closed = 1;
nodes = (
(150,578,o),
(172,600,o),
(200,600,cs),
(228,600,o),
(250,578,o),
(250,550,cs),
(250,522,o),
(228,500,o),
(200,500,cs),
(172,500,o),
(150,522,o),
(150,550,cs)
);
},
{
closed = 1;
nodes = (
(221,896,o),
(225,885,o),
(232,877,cs),
(240,868,o),
(250,863,o),
(261,863,cs),
(272,863,o),
(281,868,o),
(289,877,cs),
(297,885,o),
(300,896,o),
(300,909,cs),
(300,923,o),
(297,934,o),
(289,943,cs),
(281,952,o),
(272,957,o),
(261,957,cs),
(250,957,o),
(240,952,o),
(232,943,cs),
(225,934,o),
(221,923,o),
(221,909,cs)
);
}
);
width = 416;
}
);
unicode = (196,228);
},
{
glyphname = Agrave;
lastChange = "2023-02-26 17:00:22 +0000";
layers = (
{
layerId = m01;
shapes = (
{
closed = 1;
nodes = (
(128,0,o),
(150,22,o),
(150,50,cs),
(150,250,ls),
(150,278,o),
(172,300,o),
(200,300,cs),
(228,300,o),
(250,278,o),
(250,250,cs),
(250,50,ls),
(250,22,o),
(272,0,o),
(300,0,cs),
(328,0,o),
(350,22,o),
(350,50,cs),
(350,650,ls),
(350,733,o),
(283,800,o),
(200,800,cs),
(117,800,o),
(50,733,o),
(50,650,cs),
(50,50,ls),
(50,22,o),
(72,0,o),
(100,0,cs)
);
},
{
closed = 1;
nodes = (
(114,951,o),
(116,943,o),
(126,937,cs),
(256,859,ls),
(266,853,o),
(274,855,o),
(281,866,cs),
(286,875,o),
(284,883,o),
(274,889,cs),
(145,967,ls),
(134,973,o),
(126,971,o),
(120,961,cs)
);
},
{
closed = 1;
nodes = (
(150,578,o),
(172,600,o),
(200,600,cs),
(228,600,o),
(250,578,o),
(250,550,cs),
(250,522,o),
(228,500,o),
(200,500,cs),
(172,500,o),
(150,522,o),
(150,550,cs)
);
}
);
width = 400;
}
);
unicode = (192,224);
},
{
glyphname = Amacron;
lastChange = "2023-02-26 17:00:22 +0000";
layers = (
{
layerId = m01;
shapes = (
{
closed = 1;
nodes = (
(128,0,o),
(150,22,o),
(150,50,cs),
(150,250,ls),
(150,278,o),
(172,300,o),
(200,300,cs),
(228,300,o),
(250,278,o),
(250,250,cs),
(250,50,ls),
(250,22,o),
(272,0,o),
(300,0,cs),
(328,0,o),
(350,22,o),
(350,50,cs),
(350,650,ls),
(350,733,o),
(283,800,o),
(200,800,cs),
(117,800,o),
(50,733,o),
(50,650,cs),
(50,50,ls),
(50,22,o),
(72,0,o),
(100,0,cs)
);
},
{
closed = 1;
nodes = (
(80,876,o),
(86,870,o),
(98,870,cs),
(302,869,ls),
(314,869,o),
(320,875,o),
(320,887,cs),
(320,899,o),
(314,906,o),
(302,906,cs),
(98,906,ls),
(86,906,o),
(80,901,o),
(80,889,cs)
);
},
{
closed = 1;
nodes = (
(150,578,o),
(172,600,o),
(200,600,cs),
(228,600,o),
(250,578,o),
(250,550,cs),
(250,522,o),
(228,500,o),
(200,500,cs),
(172,500,o),
(150,522,o),
(150,550,cs)
);
}
);
width = 436;
}
);
unicode = (256,257);
},
{
glyphname = Aring;
lastChange = "2023-02-26 17:00:22 +0000";
layers = (
{
background = {
shapes = (
{
closed = 1;
nodes = (
(274,927,ls),
(284,933,o),
(286,941,o),
(280,951,cs),
(274,961,o),
(266,963,o),
(255,957,cs),
(126,879,ls),
(116,873,o),
(114,865,o),
(119,856,cs),
(126,845,o),
(134,843,o),
(144,849,cs)
);
},
{
closed = 1;
nodes = (
(107,790,l),
(306,790,l),
(306,840,l),
(107,840,l)
);
},
{
closed = 1;
nodes = (
(50,1017,l),
(350,1017,l),
(350,1130,l),
(50,1130,l)
);
},
{
closed = 1;
nodes = (
(116,960,l),
(283,960,l),
(283,1049,l),
(116,1049,l)
);
}
);
};
guides = (
{
angle = 90;
pos = (116,960);
},
{
angle = 90;
pos = (283,952);
}
);
layerId = m01;
shapes = (
{
closed = 1;
nodes = (
(128,0,o),
(150,22,o),
(150,50,cs),
(150,250,ls),
(150,278,o),
(172,300,o),
(200,300,cs),
(228,300,o),
(250,278,o),
(250,250,cs),
(250,50,ls),
(250,22,o),
(272,0,o),
(300,0,cs),
(328,0,o),
(350,22,o),
(350,50,cs),
(350,650,ls),
(350,733,o),
(283,800,o),
(200,800,cs),
(117,800,o),
(50,733,o),
(50,650,cs),
(50,50,ls),
(50,22,o),
(72,0,o),
(100,0,cs)
);
},
{
closed = 1;
nodes = (
(124,905,o),
(132,887,o),
(146,872,cs),
(161,858,o),
(179,850,o),
(200,850,cs),
(221,850,o),
(238,858,o),
(253,872,cs),
(268,887,o),
(275,905,o),
(275,926,cs),
(275,937,o),
(273,947,o),
(269,956,cs),
(265,966,o),
(260,974,o),
(253,981,cs),
(246,988,o),
(238,994,o),
(229,997,cs),
(220,1001,o),
(210,1003,o),
(200,1003,cs),
(189,1003,o),
(179,1001,o),
(170,997,cs),
(161,994,o),
(153,988,o),
(146,981,cs),
(140,974,o),
(134,966,o),
(130,956,cs),
(126,947,o),
(124,937,o),
(124,926,cs)
);
},
{
closed = 1;
nodes = (
(150,578,o),
(172,600,o),
(200,600,cs),
(228,600,o),
(250,578,o),
(250,550,cs),
(250,522,o),
(228,500,o),
(200,500,cs),
(172,500,o),
(150,522,o),
(150,550,cs)
);
},
{
closed = 1;
nodes = (
(155,939,o),
(159,950,o),
(168,958,cs),
(177,967,o),
(188,971,o),
(200,971,cs),
(212,971,o),
(223,967,o),
(232,958,cs),
(241,950,o),
(245,939,o),
(245,926,cs),
(245,914,o),
(241,904,o),
(232,895,cs),
(223,887,o),
(212,883,o),
(200,883,cs),
(188,883,o),
(177,887,o),
(168,895,cs),
(159,904,o),
(155,914,o),
(155,926,cs)
);
}
);
width = 400;
}
);
unicode = (197,229);
},
{
glyphname = Atilde;
lastChange = "2023-02-26 17:00:22 +0000";
layers = (
{
layerId = m01;
shapes = (
{
closed = 1;
nodes = (
(128,0,o),
(150,22,o),
(150,50,cs),
(150,250,ls),
(150,278,o),
(172,300,o),
(200,300,cs),
(228,300,o),
(250,278,o),
(250,250,cs),
(250,50,ls),
(250,22,o),
(272,0,o),
(300,0,cs),
(328,0,o),
(350,22,o),
(350,50,cs),
(350,650,ls),
(350,733,o),
(283,800,o),
(200,800,cs),
(117,800,o),
(50,733,o),
(50,650,cs),
(50,50,ls),
(50,22,o),
(72,0,o),
(100,0,cs)
);
},
{
closed = 1;
nodes = (
(30,889,o),
(31,880,o),
(40,872,cs),
(50,864,o),
(58,866,o),
(66,876,cs),
(77,890,o),
(87,903,o),
(97,913,cs),
(106,924,o),
(116,931,o),
(124,933,c),
(139,939,o),
(158,926,o),
(180,896,cs),
(196,873,o),
(215,859,o),
(235,853,cs),
(248,848,o),
(261,848,o),
(275,852,cs),
(287,854,o),
(298,859,o),
(310,868,cs),
(335,887,o),
(353,913,o),
(363,946,cs),
(366,957,o),
(362,964,o),
(350,969,c),
(339,971,o),
(332,967,o),
(328,955,cs),
(321,931,o),
(307,911,o),
(288,897,cs),
(280,892,o),
(273,888,o),
(266,886,cs),
(260,885,o),
(253,885,o),
(246,887,cs),
(233,890,o),
(221,900,o),
(209,917,cs),
(176,961,o),
(144,978,o),
(113,968,cs),
(99,963,o),
(86,955,o),
(74,942,cs),
(62,929,o),
(50,915,o),
(37,898,cs)
);
},
{
closed = 1;
nodes = (
(150,578,o),
(172,600,o),
(200,600,cs),
(228,600,o),
(250,578,o),
(250,550,cs),
(250,522,o),
(228,500,o),
(200,500,cs),
(172,500,o),
(150,522,o),
(150,550,cs)
);
}
);
width = 400;
}
);
unicode = (195,227);
},
{
glyphname = B;
lastChange = "2023-02-26 17:00:22 +0000";
layers = (
{
background = {
shapes = (
{
closed = 1;
nodes = (
(128,690,o),
(150,712,o),
(150,740,cs),
(150,768,o),
(128,790,o),
(100,790,cs),
(72,790,o),
(50,768,o),
(50,740,cs),
(50,712,o),
(72,690,o),
(100,690,cs)
);
},
{
closed = 1;
nodes = (
(228,690,o),
(250,712,o),
(250,740,cs),
(250,768,o),
(228,790,o),
(200,790,cs),
(172,790,o),
(150,768,o),
(150,740,cs),
(150,712,o),
(172,690,o),
(200,690,cs)
);
},
{
closed = 1;
nodes = (
(328,690,o),
(350,712,o),
(350,740,cs),
(350,768,o),
(328,790,o),
(300,790,cs),
(272,790,o),
(250,768,o),
(250,740,cs),
(250,712,o),
(272,690,o),
(300,690,cs)
);
},
{
closed = 1;
nodes = (
(128,590,o),
(150,612,o),
(150,640,cs),
(150,668,o),
(128,690,o),
(100,690,cs),
(72,690,o),
(50,668,o),
(50,640,cs),
(50,612,o),
(72,590,o),
(100,590,cs)
);
},
{
closed = 1;
nodes = (
(228,590,o),
(250,612,o),
(250,640,cs),
(250,668,o),
(228,690,o),
(200,690,cs),
(172,690,o),
(150,668,o),
(150,640,cs),
(150,612,o),
(172,590,o),
(200,590,cs)
);
},
{
closed = 1;
nodes = (
(328,590,o),
(350,612,o),
(350,640,cs),
(350,668,o),
(328,690,o),
(300,690,cs),
(272,690,o),
(250,668,o),
(250,640,cs),
(250,612,o),
(272,590,o),
(300,590,cs)
);
},
{
closed = 1;
nodes = (
(128,490,o),
(150,512,o),
(150,540,cs),
(150,568,o),
(128,590,o),
(100,590,cs),
(72,590,o),
(50,568,o),
(50,540,cs),
(50,512,o),
(72,490,o),
(100,490,cs)
);
},
{
closed = 1;
nodes = (
(228,490,o),
(250,512,o),
(250,540,cs),
(250,568,o),
(228,590,o),
(200,590,cs),
(172,590,o),
(150,568,o),
(150,540,cs),
(150,512,o),
(172,490,o),
(200,490,cs)
);
},
{
closed = 1;
nodes = (
(328,490,o),
(350,512,o),
(350,540,cs),
(350,568,o),
(328,590,o),
(300,590,cs),
(272,590,o),
(250,568,o),
(250,540,cs),
(250,512,o),
(272,490,o),
(300,490,cs)
);
},
{
closed = 1;
nodes = (
(128,390,o),
(150,412,o),
(150,440,cs),
(150,468,o),
(128,490,o),
(100,490,cs),
(72,490,o),
(50,468,o),
(50,440,cs),
(50,412,o),
(72,390,o),
(100,390,cs)
);
},
{
closed = 1;
nodes = (
(228,390,o),
(250,412,o),
(250,440,cs),
(250,468,o),
(228,490,o),
(200,490,cs),
(172,490,o),
(150,468,o),
(150,440,cs),
(150,412,o),
(172,390,o),
(200,390,cs)
);
},
{
closed = 1;
nodes = (
(328,390,o),
(350,412,o),
(350,440,cs),
(350,468,o),
(328,490,o),
(300,490,cs),
(272,490,o),
(250,468,o),
(250,440,cs),
(250,412,o),
(272,390,o),
(300,390,cs)
);
},
{
closed = 1;
nodes = (
(128,290,o),
(150,312,o),
(150,340,cs),
(150,368,o),
(128,390,o),
(100,390,cs),
(72,390,o),
(50,368,o),
(50,340,cs),
(50,312,o),
(72,290,o),
(100,290,cs)
);
},
{
closed = 1;
nodes = (
(228,290,o),
(250,312,o),
(250,340,cs),
(250,368,o),
(228,390,o),
(200,390,cs),
(172,390,o),
(150,368,o),
(150,340,cs),
(150,312,o),
(172,290,o),
(200,290,cs)
);
},
{
closed = 1;
nodes = (
(328,290,o),
(350,312,o),
(350,340,cs),
(350,368,o),
(328,390,o),
(300,390,cs),
(272,390,o),
(250,368,o),
(250,340,cs),
(250,312,o),
(272,290,o),
(300,290,cs)
);
},
{
closed = 1;
nodes = (
(128,190,o),
(150,212,o),
(150,240,cs),
(150,268,o),
(128,290,o),
(100,290,cs),
(72,290,o),
(50,268,o),
(50,240,cs),
(50,212,o),
(72,190,o),
(100,190,cs)
);
},
{
closed = 1;
nodes = (
(228,190,o),
(250,212,o),
(250,240,cs),
(250,268,o),
(228,290,o),
(200,290,cs),
(172,290,o),
(150,268,o),
(150,240,cs),
(150,212,o),
(172,190,o),
(200,190,cs)
);
},
{
closed = 1;
nodes = (
(328,190,o),
(350,212,o),
(350,240,cs),
(350,268,o),
(328,290,o),
(300,290,cs),
(272,290,o),
(250,268,o),
(250,240,cs),
(250,212,o),
(272,190,o),
(300,190,cs)
);
},
{
closed = 1;
nodes = (
(128,90,o),
(150,112,o),
(150,140,cs),
(150,168,o),
(128,190,o),
(100,190,cs),
(72,190,o),
(50,169,o),
(50,140,cs),
(50,112,o),
(72,90,o),
(100,90,cs)
);
},
{
closed = 1;
nodes = (
(228,90,o),
(250,112,o),
(250,140,cs),
(250,168,o),
(228,190,o),
(200,190,cs),
(172,190,o),
(150,168,o),
(150,140,cs),
(150,112,o),
(172,90,o),
(200,90,cs)
);
},
{
closed = 1;
nodes = (
(328,90,o),
(350,112,o),
(350,140,cs),
(350,168,o),
(328,190,o),
(300,190,cs),
(272,190,o),
(250,168,o),
(250,140,cs),
(250,112,o),
(272,90,o),
(300,90,cs)
);
},
{
closed = 1;
nodes = (
(128,-10,o),
(150,12,o),
(150,40,cs),
(150,68,o),
(128,90,o),
(100,90,cs),
(72,90,o),
(50,68,o),
(50,40,cs),
(50,12,o),
(72,-10,o),
(100,-10,cs)
);
},
{
closed = 1;
nodes = (
(228,-10,o),
(250,12,o),
(250,40,cs),
(250,68,o),
(228,90,o),
(200,90,cs),
(172,90,o),
(150,68,o),
(150,40,cs),
(150,12,o),
(172,-10,o),
(200,-10,cs)
);
},
{
closed = 1;
nodes = (
(328,-10,o),
(350,12,o),
(350,40,cs),
(350,68,o),
(328,90,o),
(300,90,cs),
(272,90,o),
(250,68,o),
(250,40,cs),
(250,12,o),
(272,-10,o),
(300,-10,cs)
);
}
);
};
layerId = m01;
shapes = (
{
closed = 1;
nodes = (
(72,800,o),
(50,778,o),
(50,750,cs),
(50,50,ls),
(50,22,o),
(72,0,o),
(100,0,cs),
(200,0,ls),
(283,0,o),
(350,67,o),
(350,150,cs),
(350,300,ls),
(350,338,o),
(336,373,o),
(312,400,c),
(336,427,o),
(350,462,o),
(350,500,cs),
(350,650,ls),
(350,733,o),
(283,800,o),
(200,800,cs),
(100,800,ls)
);
},
{
closed = 1;
nodes = (
(150,278,o),
(172,300,o),
(200,300,cs),
(228,300,o),
(250,278,o),
(250,250,cs),
(250,222,o),
(228,200,o),
(200,200,cs),
(172,200,o),
(150,222,o),
(150,250,cs)
);
},
{
closed = 1;
nodes = (
(150,578,o),
(172,600,o),
(200,600,cs),
(228,600,o),
(250,578,o),
(250,550,cs),
(250,522,o),
(228,500,o),
(200,500,cs),
(172,500,o),
(150,522,o),
(150,550,cs)
);
}
);
width = 400;
}
);
unicode = (66,98);
},
{
glyphname = C;
lastChange = "2023-02-26 17:00:22 +0000";
layers = (
{
layerId = m01;
shapes = (
{
closed = 1;
nodes = (
(50,150,ls),
(50,67,o),
(117,0,o),
(200,0,cs),
(283,0,o),
(350,67,o),
(350,150,cs),
(350,250,ls),
(350,278,o),
(328,300,o),
(300,300,cs),
(272,300,o),
(250,278,o),
(250,250,cs),
(250,222,o),
(228,200,o),
(200,200,cs),
(172,200,o),
(150,222,o),
(150,250,cs),
(150,550,ls),
(150,578,o),
(172,600,o),
(200,600,cs),
(228,600,o),
(250,578,o),
(250,550,cs),
(250,522,o),
(272,500,o),
(300,500,cs),
(328,500,o),
(350,522,o),
(350,550,cs),
(350,650,ls),
(350,733,o),
(283,800,o),
(200,800,cs),
(117,800,o),
(50,733,o),
(50,650,cs)
);
}
);
width = 400;
}
);
unicode = (67,99);
},
{
glyphname = Cacute;
lastChange = "2023-02-26 17:00:22 +0000";
layers = (
{
layerId = m01;
shapes = (
{
closed = 1;
nodes = (
(50,150,ls),
(50,67,o),
(117,0,o),
(200,0,cs),
(283,0,o),
(350,67,o),
(350,150,cs),
(350,250,ls),
(350,278,o),
(328,300,o),
(300,300,cs),
(272,300,o),
(250,278,o),
(250,250,cs),
(250,222,o),
(228,200,o),
(200,200,cs),
(172,200,o),
(150,222,o),
(150,250,cs),
(150,550,ls),
(150,578,o),
(172,600,o),
(200,600,cs),
(228,600,o),
(250,578,o),
(250,550,cs),
(250,522,o),
(272,500,o),
(300,500,cs),
(328,500,o),
(350,522,o),
(350,550,cs),
(350,650,ls),
(350,733,o),
(283,800,o),
(200,800,cs),
(117,800,o),
(50,733,o),
(50,650,cs)
);
},
{
closed = 1;
nodes = (
(126,855,o),
(134,853,o),
(144,859,cs),
(274,937,ls),
(284,943,o),
(286,951,o),
(280,961,cs),
(274,971,o),
(266,973,o),
(255,967,cs),
(126,889,ls),
(116,883,o),
(114,875,o),
(119,866,cs)
);
}
);
width = 400;
}
);
unicode = (262,263);
},
{
glyphname = Ccaron;
lastChange = "2023-02-26 17:00:22 +0000";
layers = (
{
layerId = m01;
shapes = (
{
closed = 1;
nodes = (
(50,150,ls),
(50,67,o),
(117,0,o),
(200,0,cs),
(283,0,o),
(350,67,o),
(350,150,cs),
(350,250,ls),
(350,278,o),
(328,300,o),
(300,300,cs),
(272,300,o),
(250,278,o),
(250,250,cs),
(250,222,o),
(228,200,o),
(200,200,cs),
(172,200,o),
(150,222,o),
(150,250,cs),
(150,550,ls),
(150,578,o),
(172,600,o),
(200,600,cs),
(228,600,o),
(250,578,o),
(250,550,cs),
(250,522,o),
(272,500,o),
(300,500,cs),
(328,500,o),
(350,522,o),
(350,550,cs),
(350,650,ls),
(350,733,o),
(283,800,o),
(200,800,cs),
(117,800,o),
(50,733,o),
(50,650,cs)
);
},
{
closed = 1;
nodes = (
(114,930,o),
(114,921,o),
(124,914,cs),
(213,845,l),
(301,913,ls),
(311,921,o),
(312,929,o),
(305,939,c),
(297,946,o),
(289,947,o),
(281,941,cs),
(213,888,l),
(146,942,ls),
(138,949,o),
(129,947,o),
(121,939,cs)
);
}
);
width = 413;
}
);
unicode = (268,269);
},
{
glyphname = Ccedilla;
lastChange = "2023-02-26 17:00:22 +0000";
layers = (
{
background = {
shapes = (
{
closed = 1;
nodes = (
(128,690,o),
(150,712,o),
(150,740,cs),
(150,768,o),
(128,790,o),
(100,790,cs),
(72,790,o),
(50,768,o),
(50,740,cs),
(50,712,o),
(72,690,o),
(100,690,cs)
);
},
{
closed = 1;
nodes = (
(228,690,o),
(250,712,o),
(250,740,cs),
(250,768,o),
(228,790,o),
(200,790,cs),
(172,790,o),
(150,768,o),
(150,740,cs),
(150,712,o),
(172,690,o),
(200,690,cs)
);
},
{
closed = 1;
nodes = (
(328,690,o),
(350,712,o),
(350,740,cs),
(350,768,o),
(328,790,o),
(300,790,cs),
(272,790,o),
(250,768,o),
(250,740,cs),
(250,712,o),
(272,690,o),
(300,690,cs)
);
},
{
closed = 1;
nodes = (
(128,590,o),
(150,612,o),
(150,640,cs),
(150,668,o),
(128,690,o),
(100,690,cs),
(72,690,o),
(50,668,o),
(50,640,cs),
(50,612,o),
(72,590,o),
(100,590,cs)
);
},
{
closed = 1;
nodes = (
(228,590,o),
(250,612,o),
(250,640,cs),
(250,668,o),
(228,690,o),
(200,690,cs),
(172,690,o),
(150,668,o),
(150,640,cs),
(150,612,o),
(172,590,o),
(200,590,cs)
);
},
{
closed = 1;
nodes = (
(328,590,o),
(350,612,o),
(350,640,cs),
(350,668,o),
(328,690,o),
(300,690,cs),
(272,690,o),
(250,668,o),
(250,640,cs),
(250,612,o),
(272,590,o),
(300,590,cs)
);
},
{
closed = 1;
nodes = (
(128,490,o),
(150,512,o),
(150,540,cs),
(150,568,o),
(128,590,o),
(100,590,cs),
(72,590,o),
(50,568,o),
(50,540,cs),
(50,512,o),
(72,490,o),
(100,490,cs)
);
},
{
closed = 1;
nodes = (
(228,490,o),
(250,512,o),
(250,540,cs),
(250,568,o),
(228,590,o),
(200,590,cs),
(172,590,o),
(150,568,o),
(150,540,cs),
(150,512,o),
(172,490,o),
(200,490,cs)
);
},
{
closed = 1;
nodes = (
(328,490,o),
(350,512,o),
(350,540,cs),
(350,568,o),
(328,590,o),
(300,590,cs),
(272,590,o),
(250,568,o),
(250,540,cs),
(250,512,o),
(272,490,o),
(300,490,cs)
);
},
{
closed = 1;
nodes = (
(128,390,o),
(150,412,o),
(150,440,cs),
(150,468,o),
(128,490,o),
(100,490,cs),
(72,490,o),
(50,468,o),
(50,440,cs),
(50,412,o),
(72,390,o),
(100,390,cs)
);
},
{
closed = 1;
nodes = (
(228,390,o),
(250,412,o),
(250,440,cs),
(250,468,o),
(228,490,o),
(200,490,cs),
(172,490,o),
(150,468,o),
(150,440,cs),
(150,412,o),
(172,390,o),
(200,390,cs)
);
},
{
closed = 1;
nodes = (
(328,390,o),
(350,412,o),
(350,440,cs),
(350,468,o),
(328,490,o),
(300,490,cs),
(272,490,o),
(250,468,o),
(250,440,cs),
(250,412,o),
(272,390,o),
(300,390,cs)
);
},
{
closed = 1;
nodes = (
(128,290,o),
(150,312,o),
(150,340,cs),
(150,368,o),
(128,390,o),
(100,390,cs),
(72,390,o),
(50,368,o),
(50,340,cs),
(50,312,o),
(72,290,o),
(100,290,cs)
);
},
{
closed = 1;
nodes = (
(228,290,o),
(250,312,o),
(250,340,cs),
(250,368,o),
(228,390,o),
(200,390,cs),
(172,390,o),
(150,368,o),
(150,340,cs),
(150,312,o),
(172,290,o),
(200,290,cs)
);
},
{
closed = 1;
nodes = (
(328,290,o),
(350,312,o),
(350,340,cs),
(350,368,o),
(328,390,o),
(300,390,cs),
(272,390,o),
(250,368,o),
(250,340,cs),
(250,312,o),
(272,290,o),
(300,290,cs)
);
},
{
closed = 1;
nodes = (
(128,190,o),
(150,212,o),
(150,240,cs),
(150,268,o),
(128,290,o),
(100,290,cs),
(72,290,o),
(50,268,o),
(50,240,cs),
(50,212,o),
(72,190,o),
(100,190,cs)
);
},
{
closed = 1;
nodes = (
(228,190,o),
(250,212,o),
(250,240,cs),
(250,268,o),
(228,290,o),
(200,290,cs),
(172,290,o),
(150,268,o),
(150,240,cs),
(150,212,o),
(172,190,o),
(200,190,cs)
);
},
{
closed = 1;
nodes = (
(328,190,o),
(350,212,o),
(350,240,cs),
(350,268,o),
(328,290,o),
(300,290,cs),
(272,290,o),
(250,268,o),
(250,240,cs),
(250,212,o),
(272,190,o),
(300,190,cs)
);
},
{
closed = 1;
nodes = (
(128,90,o),
(150,112,o),
(150,140,cs),
(150,168,o),
(128,190,o),
(100,190,cs),
(72,190,o),
(50,169,o),
(50,140,cs),
(50,112,o),
(72,90,o),
(100,90,cs)
);
},
{
closed = 1;
nodes = (
(228,90,o),
(250,112,o),
(250,140,cs),
(250,168,o),
(228,190,o),
(200,190,cs),
(172,190,o),
(150,168,o),
(150,140,cs),
(150,112,o),
(172,90,o),
(200,90,cs)
);
},
{
closed = 1;
nodes = (
(328,90,o),
(350,112,o),
(350,140,cs),
(350,168,o),
(328,190,o),
(300,190,cs),
(272,190,o),
(250,168,o),
(250,140,cs),
(250,112,o),
(272,90,o),
(300,90,cs)
);
},
{
closed = 1;
nodes = (
(128,-10,o),
(150,12,o),
(150,40,cs),
(150,68,o),
(128,90,o),
(100,90,cs),
(72,90,o),
(50,68,o),
(50,40,cs),
(50,12,o),
(72,-10,o),
(100,-10,cs)
);
},
{
closed = 1;
nodes = (
(228,-10,o),
(250,12,o),
(250,40,cs),
(250,68,o),
(228,90,o),
(200,90,cs),
(172,90,o),
(150,68,o),
(150,40,cs),
(150,12,o),
(172,-10,o),
(200,-10,cs)
);
},
{
closed = 1;
nodes = (
(328,-10,o),
(350,12,o),
(350,40,cs),
(350,68,o),
(328,90,o),
(300,90,cs),
(272,90,o),
(250,68,o),
(250,40,cs),
(250,12,o),
(272,-10,o),
(300,-10,cs)
);
}
);
};
layerId = m01;
shapes = (
{
closed = 1;
nodes = (
(50,150,ls),
(50,73,o),
(107,10,o),
(182,1,c),
(170,-32,ls),
(166,-45,o),
(165,-55,o),
(170,-63,cs),
(178,-73,o),
(186,-77,o),
(194,-77,cs),
(202,-76,o),
(214,-73,o),
(228,-67,c),
(240,-71,o),
(241,-86,o),
(232,-112,cs),
(221,-141,o),
(200,-179,o),
(167,-226,c),
(162,-235,o),
(164,-243,o),
(173,-251,c),
(183,-257,o),
(191,-255,o),
(199,-245,cs),
(232,-196,o),
(254,-156,o),
(265,-125,cs),
(280,-85,o),
(279,-54,o),
(262,-32,cs),
(253,-19,o),
(239,-18,o),
(221,-29,cs),
(210,-36,l),
(213,-24,o),
(216,-11,o),
(221,1,c),
(294,12,o),
(350,74,o),
(350,150,cs),
(350,250,ls),
(350,278,o),
(328,300,o),
(300,300,cs),
(272,300,o),
(250,278,o),
(250,250,cs),
(250,222,o),
(228,200,o),
(200,200,cs),
(172,200,o),
(150,222,o),
(150,250,cs),
(150,550,ls),
(150,578,o),
(172,600,o),
(200,600,cs),
(228,600,o),
(250,578,o),
(250,550,cs),
(250,522,o),
(272,500,o),
(300,500,cs),
(328,500,o),
(350,522,o),
(350,550,cs),
(350,650,ls),
(350,733,o),
(283,800,o),
(200,800,cs),
(117,800,o),
(50,733,o),
(50,650,cs)
);
}
);
width = 400;
}
);
unicode = (199,231);
},
{
glyphname = Ccircumflex;
lastChange = "2023-02-26 17:00:22 +0000";
layers = (
{
layerId = m01;
shapes = (
{
closed = 1;
nodes = (
(50,150,ls),
(50,67,o),
(117,0,o),
(200,0,cs),
(283,0,o),
(350,67,o),
(350,150,cs),
(350,250,ls),
(350,278,o),
(328,300,o),
(300,300,cs),
(272,300,o),
(250,278,o),
(250,250,cs),
(250,222,o),
(228,200,o),
(200,200,cs),
(172,200,o),
(150,222,o),
(150,250,cs),
(150,550,ls),
(150,578,o),
(172,600,o),
(200,600,cs),
(228,600,o),
(250,578,o),
(250,550,cs),
(250,522,o),
(272,500,o),
(300,500,cs),
(328,500,o),
(350,522,o),
(350,550,cs),
(350,650,ls),
(350,733,o),
(283,800,o),
(200,800,cs),
(117,800,o),
(50,733,o),
(50,650,cs)
);
},
{
closed = 1;
nodes = (
(116,849,o),
(125,847,o),
(133,854,cs),
(200,908,l),
(268,855,ls),
(276,849,o),
(284,850,o),
(292,857,c),
(299,867,o),
(298,875,o),
(288,883,cs),
(200,951,l),
(111,882,ls),
(101,875,o),
(101,866,o),
(108,857,cs)
);
}
);
width = 400;
}
);
unicode = (264,265);
},
{
glyphname = Cdotaccent;
lastChange = "2023-02-26 17:00:22 +0000";
layers = (
{
layerId = m01;
shapes = (
{
closed = 1;
nodes = (
(50,150,ls),
(50,67,o),
(117,0,o),
(200,0,cs),
(283,0,o),
(350,67,o),
(350,150,cs),
(350,250,ls),
(350,278,o),
(328,300,o),
(300,300,cs),
(272,300,o),
(250,278,o),
(250,250,cs),
(250,222,o),
(228,200,o),
(200,200,cs),
(172,200,o),
(150,222,o),
(150,250,cs),
(150,550,ls),
(150,578,o),
(172,600,o),
(200,600,cs),
(228,600,o),
(250,578,o),
(250,550,cs),
(250,522,o),
(272,500,o),
(300,500,cs),
(328,500,o),
(350,522,o),
(350,550,cs),
(350,650,ls),
(350,733,o),
(283,800,o),
(200,800,cs),
(117,800,o),
(50,733,o),
(50,650,cs)
);
},
{
closed = 1;
nodes = (
(161,896,o),
(164,885,o),
(172,877,cs),
(179,868,o),
(189,863,o),
(200,863,cs),
(211,863,o),
(220,868,o),
(228,877,cs),
(236,885,o),
(240,896,o),
(240,909,cs),
(240,923,o),
(236,934,o),
(228,943,cs),
(220,952,o),
(211,957,o),
(200,957,cs),
(189,957,o),
(179,952,o),
(172,943,cs),
(164,934,o),
(161,923,o),
(161,909,cs)
);
}
);
width = 400;
}
);
unicode = (266,267);
},
{
glyphname = D;
lastChange = "2023-02-26 17:00:22 +0000";
layers = (
{
layerId = m01;
shapes = (
{
closed = 1;
nodes = (
(50,50,ls),
(50,22,o),
(72,0,o),
(100,0,cs),
(200,0,ls),
(283,0,o),
(350,67,o),
(350,150,cs),
(350,650,ls),
(350,733,o),
(283,800,o),
(200,800,cs),
(100,800,ls),
(72,800,o),
(50,778,o),
(50,750,cs)
);
},
{
closed = 1;
nodes = (
(150,550,ls),
(150,578,o),
(172,600,o),
(200,600,cs),
(228,600,o),
(250,578,o),
(250,550,cs),
(250,250,ls),
(250,222,o),
(228,200,o),
(200,200,cs),
(172,200,o),
(150,222,o),
(150,250,cs)
);
}
);
width = 400;
}
);
unicode = (68,100);
},
{
glyphname = Eth;
lastChange = "2023-02-26 17:00:22 +0000";
layers = (
{
guides = (
{
pos = (-24,390);
}
);
layerId = m01;
shapes = (
{
closed = 1;
nodes = (
(50,421,l),
(18,421,ls),
(6,421,o),
(0,415,o),
(0,404,cs),
(0,391,o),
(6,385,o),
(18,385,cs),
(50,385,l),
(50,50,ls),
(50,22,o),
(72,0,o),
(100,0,cs),
(200,0,ls),
(283,0,o),
(350,67,o),
(350,150,cs),
(350,650,ls),
(350,733,o),
(283,800,o),
(200,800,cs),
(100,800,ls),
(72,800,o),
(50,778,o),
(50,750,cs)
);
},
{
closed = 1;
nodes = (
(150,384,l),
(207,384,ls),
(219,384,o),
(225,389,o),
(225,401,cs),
(225,414,o),
(219,421,o),
(207,421,cs),
(150,421,l),
(150,550,ls),
(150,578,o),
(172,600,o),
(200,600,cs),
(228,600,o),
(250,578,o),
(250,550,cs),
(250,250,ls),
(250,222,o),
(228,200,o),
(200,200,cs),
(172,200,o),
(150,222,o),
(150,250,cs)
);
}
);
width = 400;
}
);
unicode = (208,240);
},
{
glyphname = Dcaron;
lastChange = "2023-02-26 17:00:22 +0000";
layers = (
{
layerId = m01;
shapes = (
{
closed = 1;
nodes = (
(50,50,ls),
(50,22,o),
(72,0,o),
(100,0,cs),
(200,0,ls),
(283,0,o),
(350,67,o),
(350,150,cs),
(350,650,ls),
(350,733,o),
(283,800,o),
(200,800,cs),
(100,800,ls),
(72,800,o),
(50,778,o),
(50,750,cs)
);
},
{
closed = 1;
nodes = (
(101,930,o),
(101,921,o),
(111,914,cs),
(200,845,l),
(288,913,ls),
(298,921,o),
(299,929,o),
(292,939,c),
(284,946,o),
(276,947,o),
(268,941,cs),
(200,888,l),
(133,942,ls),
(125,949,o),
(116,947,o),
(108,939,cs)
);
},
{
closed = 1;
nodes = (
(150,550,ls),
(150,578,o),
(172,600,o),
(200,600,cs),
(228,600,o),
(250,578,o),
(250,550,cs),
(250,250,ls),
(250,222,o),
(228,200,o),
(200,200,cs),
(172,200,o),
(150,222,o),
(150,250,cs)
);
}
);
width = 400;
}
);
unicode = (270,271);
},
{
glyphname = Dcroat;
lastChange = "2023-02-26 17:00:22 +0000";
layers = (
{
layerId = m01;
shapes = (
{
closed = 1;
nodes = (
(50,421,l),
(18,421,ls),
(6,421,o),
(0,415,o),
(0,404,cs),
(0,391,o),
(6,385,o),
(18,385,cs),
(50,385,l),
(50,50,ls),
(50,22,o),
(72,0,o),
(100,0,cs),
(200,0,ls),
(283,0,o),
(350,67,o),
(350,150,cs),
(350,650,ls),
(350,733,o),
(283,800,o),
(200,800,cs),
(100,800,ls),
(72,800,o),
(50,778,o),
(50,750,cs)
);
},
{
closed = 1;
nodes = (
(150,384,l),
(207,384,ls),
(219,384,o),
(225,389,o),
(225,401,cs),
(225,414,o),
(219,421,o),
(207,421,cs),
(150,421,l),
(150,550,ls),
(150,578,o),
(172,600,o),
(200,600,cs),
(228,600,o),
(250,578,o),
(250,550,cs),
(250,250,ls),
(250,222,o),
(228,200,o),
(200,200,cs),
(172,200,o),
(150,222,o),
(150,250,cs)
);
}
);
width = 400;
}
);
unicode = (272,273);
},
{
glyphname = E;
lastChange = "2023-02-26 17:00:22 +0000";
layers = (
{
layerId = m01;
shapes = (
{
closed = 1;
nodes = (
(328,0,o),
(350,22,o),
(350,50,cs),
(350,150,ls),
(350,178,o),
(328,200,o),
(300,200,cs),
(150,200,l),
(150,300,l),
(200,300,ls),
(228,300,o),
(250,322,o),
(250,350,cs),
(250,450,ls),
(250,478,o),
(228,500,o),
(200,500,cs),
(150,500,l),
(150,600,l),
(300,600,ls),
(328,600,o),
(350,622,o),
(350,650,cs),
(350,750,ls),
(350,778,o),
(328,800,o),
(300,800,cs),
(100,800,ls),
(72,800,o),
(50,778,o),
(50,750,cs),
(50,50,ls),
(50,22,o),
(72,0,o),
(100,0,cs),
(300,0,ls)
);
}
);
width = 400;
}
);
unicode = (69,101);
},
{
glyphname = Eacute;
lastChange = "2023-02-26 17:00:22 +0000";
layers = (
{
background = {
shapes = (
{
closed = 1;
nodes = (
(274,927,ls),
(284,933,o),
(286,941,o),
(280,951,cs),
(274,961,o),
(266,963,o),
(255,957,cs),
(126,879,ls),
(116,873,o),
(114,865,o),
(119,856,cs),
(126,845,o),
(134,843,o),
(144,849,cs)
);
},
{
closed = 1;
nodes = (
(107,790,l),
(306,790,l),
(306,840,l),
(107,840,l)
);
},
{
closed = 1;
nodes = (
(50,1017,l),
(350,1017,l),
(350,1130,l),
(50,1130,l)
);
},
{
closed = 1;
nodes = (
(116,960,l),
(283,960,l),
(283,1049,l),
(116,1049,l)
);
}
);
};
guides = (
{
angle = 90;
pos = (295,976);
}
);
layerId = m01;
shapes = (
{
closed = 1;
nodes = (
(328,0,o),
(350,22,o),
(350,50,cs),
(350,150,ls),
(350,178,o),
(328,200,o),
(300,200,cs),
(150,200,l),
(150,300,l),
(200,300,ls),
(228,300,o),
(250,322,o),
(250,350,cs),
(250,450,ls),
(250,478,o),
(228,500,o),
(200,500,cs),
(150,500,l),
(150,600,l),
(300,600,ls),
(328,600,o),
(350,622,o),
(350,650,cs),
(350,750,ls),
(350,778,o),
(328,800,o),
(300,800,cs),
(100,800,ls),
(72,800,o),
(50,778,o),
(50,750,cs),
(50,50,ls),
(50,22,o),
(72,0,o),
(100,0,cs),
(300,0,ls)
);
},
{
closed = 1;
nodes = (
(126,855,o),
(134,853,o),
(144,859,cs),
(274,937,ls),
(284,943,o),
(286,951,o),
(280,961,cs),
(274,971,o),
(266,973,o),
(255,967,cs),
(126,889,ls),
(116,883,o),
(114,875,o),
(119,866,cs)
);
}
);
width = 400;
}
);
unicode = (201,233);
},
{
glyphname = Ebreve;
lastChange = "2023-02-26 17:00:22 +0000";
layers = (
{
background = {
shapes = (
{
closed = 1;
nodes = (
(107,790,l),
(306,790,l),
(306,840,l),
(107,840,l)
);
},
{
closed = 1;
nodes = (
(50,1017,l),
(350,1017,l),
(350,1130,l),
(50,1130,l)
);
},
{
closed = 1;
nodes = (
(116,960,l),
(283,960,l),
(283,1049,l),
(116,1049,l)
);
},
{
closed = 1;
nodes = (
(111,872,ls),
(101,865,o),
(101,856,o),
(108,847,c),
(116,839,o),
(125,837,o),
(133,844,cs),
(200,898,l),
(268,845,ls),
(276,839,o),
(284,840,o),
(292,847,c),
(299,857,o),
(298,865,o),
(288,873,cs),
(200,941,l)
);
}
);
};
guides = (
{
angle = 90;
pos = (200,803);
}
);
layerId = m01;
shapes = (
{
closed = 1;
nodes = (
(328,0,o),
(350,22,o),
(350,50,cs),
(350,150,ls),
(350,178,o),
(328,200,o),
(300,200,cs),
(150,200,l),
(150,300,l),
(200,300,ls),
(228,300,o),
(250,322,o),
(250,350,cs),
(250,450,ls),
(250,478,o),
(228,500,o),
(200,500,cs),
(150,500,l),
(150,600,l),
(300,600,ls),
(328,600,o),
(350,622,o),
(350,650,cs),
(350,750,ls),
(350,778,o),
(328,800,o),
(300,800,cs),
(100,800,ls),
(72,800,o),
(50,778,o),
(50,750,cs),
(50,50,ls),
(50,22,o),
(72,0,o),
(100,0,cs),
(300,0,ls)
);
},
{
closed = 1;
nodes = (
(146,864,o),
(173,851,o),
(200,850,cs),
(228,850,o),
(255,863,o),
(281,890,cs),
(289,898,o),
(289,907,o),
(281,915,cs),
(272,923,o),
(264,923,o),
(255,914,cs),
(236,895,o),
(218,885,o),
(200,885,cs),
(182,885,o),
(164,895,o),
(144,915,cs),
(135,923,o),
(127,923,o),
(119,915,cs),
(110,906,o),
(110,898,o),
(119,890,cs)
);
}
);
width = 400;
}
);
unicode = (276,277);
},
{
glyphname = Ecaron;
lastChange = "2023-02-26 17:00:22 +0000";
layers = (
{
layerId = m01;
shapes = (
{
closed = 1;
nodes = (
(328,0,o),
(350,22,o),
(350,50,cs),
(350,150,ls),
(350,178,o),
(328,200,o),
(300,200,cs),
(150,200,l),
(150,300,l),
(200,300,ls),
(228,300,o),
(250,322,o),
(250,350,cs),
(250,450,ls),
(250,478,o),
(228,500,o),
(200,500,cs),
(150,500,l),
(150,600,l),
(300,600,ls),
(328,600,o),
(350,622,o),
(350,650,cs),
(350,750,ls),
(350,778,o),
(328,800,o),
(300,800,cs),
(100,800,ls),
(72,800,o),
(50,778,o),
(50,750,cs),
(50,50,ls),
(50,22,o),
(72,0,o),
(100,0,cs),
(300,0,ls)
);
},
{
closed = 1;
nodes = (
(101,930,o),
(101,921,o),
(111,914,cs),
(200,845,l),
(288,913,ls),
(298,921,o),
(299,929,o),
(292,939,c),
(284,946,o),
(276,947,o),
(268,941,cs),
(200,888,l),
(133,942,ls),
(125,949,o),
(116,947,o),
(108,939,cs)
);
}
);
width = 400;
}
);
unicode = (282,283);
},
{
glyphname = Ecircumflex;
lastChange = "2023-02-26 17:00:22 +0000";
layers = (
{
background = {
shapes = (
{
closed = 1;
nodes = (
(111,872,ls),
(101,865,o),
(101,856,o),
(108,847,c),
(116,839,o),
(125,837,o),
(133,844,cs),
(200,898,l),
(268,845,ls),
(276,839,o),
(284,840,o),
(292,847,c),
(299,857,o),
(298,865,o),
(288,873,cs),
(200,941,l)
);
},
{
closed = 1;
nodes = (
(7,790,l),
(396,790,l),
(396,840,l),
(7,840,l)
);
},
{
closed = 1;
nodes = (
(50,1017,l),
(350,1017,l),
(350,1130,l),
(50,1130,l)
);
},
{
closed = 1;
nodes = (
(116,960,l),
(283,960,l),
(283,1049,l),
(116,1049,l)
);
}
);
};
layerId = m01;
shapes = (
{
closed = 1;
nodes = (
(328,0,o),
(350,22,o),
(350,50,cs),
(350,150,ls),
(350,178,o),
(328,200,o),
(300,200,cs),
(150,200,l),
(150,300,l),
(200,300,ls),
(228,300,o),
(250,322,o),
(250,350,cs),
(250,450,ls),
(250,478,o),
(228,500,o),
(200,500,cs),
(150,500,l),
(150,600,l),
(300,600,ls),
(328,600,o),
(350,622,o),
(350,650,cs),
(350,750,ls),
(350,778,o),
(328,800,o),
(300,800,cs),
(100,800,ls),
(72,800,o),
(50,778,o),
(50,750,cs),
(50,50,ls),
(50,22,o),
(72,0,o),
(100,0,cs),
(300,0,ls)
);
},
{
closed = 1;
nodes = (
(116,849,o),
(125,847,o),
(133,854,cs),
(200,908,l),
(268,855,ls),
(276,849,o),
(284,850,o),
(292,857,c),
(299,867,o),
(298,875,o),
(288,883,cs),
(200,951,l),
(111,882,ls),
(101,875,o),
(101,866,o),
(108,857,cs)
);
}
);
width = 400;
}
);
unicode = (202,234);
},
{
glyphname = Edieresis;
lastChange = "2023-02-26 17:00:22 +0000";
layers = (
{
background = {
shapes = (
{
closed = 1;
nodes = (
(274,927,ls),
(284,933,o),
(286,941,o),
(280,951,cs),
(274,961,o),
(266,963,o),
(255,957,cs),
(126,879,ls),
(116,873,o),
(114,865,o),
(119,856,cs),
(126,845,o),
(134,843,o),
(144,849,cs)
);
},
{
closed = 1;
nodes = (
(107,790,l),
(306,790,l),
(306,840,l),
(107,840,l)
);
},
{
closed = 1;
nodes = (
(50,1017,l),
(350,1017,l),
(350,1130,l),
(50,1130,l)
);
},
{
closed = 1;
nodes = (
(116,960,l),
(283,960,l),
(283,1049,l),
(116,1049,l)
);
}
);
};
guides = (
{
pos = (85,900);
}
);
layerId = m01;
shapes = (
{
closed = 1;
nodes = (
(328,0,o),
(350,22,o),
(350,50,cs),
(350,150,ls),
(350,178,o),
(328,200,o),
(300,200,cs),
(150,200,l),
(150,300,l),
(200,300,ls),
(228,300,o),
(250,322,o),
(250,350,cs),
(250,450,ls),
(250,478,o),
(228,500,o),
(200,500,cs),
(150,500,l),
(150,600,l),
(300,600,ls),
(328,600,o),
(350,622,o),
(350,650,cs),
(350,750,ls),
(350,778,o),
(328,800,o),
(300,800,cs),
(100,800,ls),
(72,800,o),
(50,778,o),
(50,750,cs),
(50,50,ls),
(50,22,o),
(72,0,o),
(100,0,cs),
(300,0,ls)
);
},
{
closed = 1;
nodes = (
(100,896,o),
(103,885,o),
(111,877,cs),
(118,868,o),
(128,863,o),
(139,863,cs),
(150,863,o),
(159,868,o),
(167,877,cs),
(175,885,o),
(179,896,o),
(179,909,cs),
(179,923,o),
(175,934,o),
(167,943,cs),
(159,952,o),
(150,957,o),
(139,957,cs),
(128,957,o),
(118,952,o),
(111,943,cs),
(103,934,o),
(100,923,o),
(100,909,cs)
);
},
{
closed = 1;
nodes = (
(221,896,o),
(225,885,o),
(232,877,cs),
(240,868,o),
(250,863,o),
(261,863,cs),
(272,863,o),
(281,868,o),
(289,877,cs),
(297,885,o),
(300,896,o),
(300,909,cs),
(300,923,o),
(297,934,o),
(289,943,cs),
(281,952,o),
(272,957,o),
(261,957,cs),
(250,957,o),
(240,952,o),
(232,943,cs),
(225,934,o),
(221,923,o),
(221,909,cs)
);
}
);
width = 400;
}
);
unicode = (203,235);
},
{
glyphname = Edotaccent;
lastChange = "2023-02-26 17:00:22 +0000";
layers = (
{
guides = (
{
angle = 90;
pos = (200,817);
}
);
layerId = m01;
shapes = (
{
closed = 1;
nodes = (
(328,0,o),
(350,22,o),
(350,50,cs),
(350,150,ls),
(350,178,o),
(328,200,o),
(300,200,cs),
(150,200,l),
(150,300,l),
(200,300,ls),
(228,300,o),
(250,322,o),
(250,350,cs),
(250,450,ls),
(250,478,o),
(228,500,o),
(200,500,cs),
(150,500,l),
(150,600,l),
(300,600,ls),
(328,600,o),
(350,622,o),
(350,650,cs),
(350,750,ls),
(350,778,o),
(328,800,o),
(300,800,cs),
(100,800,ls),
(72,800,o),
(50,778,o),
(50,750,cs),
(50,50,ls),
(50,22,o),
(72,0,o),
(100,0,cs),
(300,0,ls)
);
},
{
closed = 1;
nodes = (
(161,896,o),
(164,885,o),
(172,877,cs),
(179,868,o),
(189,863,o),
(200,863,cs),
(211,863,o),
(220,868,o),
(228,877,cs),
(236,885,o),
(240,896,o),
(240,909,cs),
(240,923,o),
(236,934,o),
(228,943,cs),
(220,952,o),
(211,957,o),
(200,957,cs),
(189,957,o),
(179,952,o),
(172,943,cs),
(164,934,o),
(161,923,o),
(161,909,cs)
);
}
);
width = 400;
}
);
unicode = (278,279);
},
{
glyphname = Egrave;
lastChange = "2023-02-26 17:00:22 +0000";
layers = (
{
layerId = m01;
shapes = (
{
closed = 1;
nodes = (
(328,0,o),
(350,22,o),
(350,50,cs),
(350,150,ls),
(350,178,o),
(328,200,o),
(300,200,cs),
(150,200,l),
(150,300,l),
(200,300,ls),
(228,300,o),
(250,322,o),
(250,350,cs),
(250,450,ls),
(250,478,o),
(228,500,o),
(200,500,cs),
(150,500,l),
(150,600,l),
(300,600,ls),
(328,600,o),
(350,622,o),
(350,650,cs),
(350,750,ls),
(350,778,o),
(328,800,o),
(300,800,cs),
(100,800,ls),
(72,800,o),
(50,778,o),
(50,750,cs),
(50,50,ls),
(50,22,o),
(72,0,o),
(100,0,cs),
(300,0,ls)
);
},
{
closed = 1;
nodes = (
(114,951,o),
(116,943,o),
(126,937,cs),
(256,859,ls),
(266,853,o),
(274,855,o),
(281,866,cs),
(286,875,o),
(284,883,o),
(274,889,cs),
(145,967,ls),
(134,973,o),
(126,971,o),
(120,961,cs)
);
}
);
width = 400;
}
);
unicode = (200,232);
},
{
glyphname = Emacron;
lastChange = "2023-02-26 17:00:22 +0000";
layers = (
{
background = {
shapes = (
{
closed = 1;
nodes = (
(111,872,ls),
(101,865,o),
(101,856,o),
(108,847,c),
(116,839,o),
(125,837,o),
(133,844,cs),
(200,898,l),
(268,845,ls),
(276,839,o),
(284,840,o),
(292,847,c),
(299,857,o),
(298,865,o),
(288,873,cs),
(200,941,l)
);
},
{
closed = 1;
nodes = (
(7,790,l),
(396,790,l),
(396,840,l),
(7,840,l)
);
},
{
closed = 1;
nodes = (
(50,1017,l),
(350,1017,l),
(350,1130,l),
(50,1130,l)
);
},
{
closed = 1;
nodes = (
(116,960,l),
(283,960,l),
(283,1049,l),
(116,1049,l)
);
}
);
};
guides = (
{
angle = 90;
pos = (50,820);
},
{
angle = 90;
pos = (350,808);
}
);
layerId = m01;
shapes = (
{
closed = 1;
nodes = (
(328,0,o),
(350,22,o),
(350,50,cs),
(350,150,ls),
(350,178,o),
(328,200,o),
(300,200,cs),
(150,200,l),
(150,300,l),
(200,300,ls),
(228,300,o),
(250,322,o),
(250,350,cs),
(250,450,ls),
(250,478,o),
(228,500,o),
(200,500,cs),
(150,500,l),
(150,600,l),
(300,600,ls),
(328,600,o),
(350,622,o),
(350,650,cs),
(350,750,ls),
(350,778,o),
(328,800,o),
(300,800,cs),
(100,800,ls),
(72,800,o),
(50,778,o),
(50,750,cs),
(50,50,ls),
(50,22,o),
(72,0,o),
(100,0,cs),
(300,0,ls)
);
},
{
closed = 1;
nodes = (
(80,876,o),
(86,870,o),
(98,870,cs),
(302,869,ls),
(314,869,o),
(320,875,o),
(320,887,cs),
(320,899,o),
(314,906,o),
(302,906,cs),
(98,906,ls),
(86,906,o),
(80,901,o),
(80,889,cs)
);
}
);
width = 400;
}
);
unicode = (274,275);
},
{
glyphname = F;
lastChange = "2023-02-26 17:00:22 +0000";
layers = (
{
layerId = m01;
shapes = (
{
closed = 1;
nodes = (
(128,0,o),
(150,22,o),
(150,50,cs),
(150,300,l),
(200,300,ls),
(228,300,o),
(250,322,o),
(250,350,cs),
(250,450,ls),
(250,478,o),
(228,500,o),
(200,500,cs),
(150,500,l),
(150,600,l),
(300,600,ls),
(328,600,o),
(350,622,o),
(350,650,cs),
(350,750,ls),
(350,778,o),
(328,800,o),
(300,800,cs),
(100,800,ls),
(72,800,o),
(50,778,o),
(50,750,cs),
(50,50,ls),
(50,22,o),
(72,0,o),
(100,0,cs)
);
}
);
width = 400;
}
);
unicode = (70,102);
},
{
glyphname = G;
lastChange = "2023-02-26 17:00:22 +0000";
layers = (
{
layerId = m01;
shapes = (
{
closed = 1;
nodes = (
(50,150,ls),
(50,67,o),
(117,0,o),
(200,0,cs),
(283,0,o),
(350,67,o),
(350,150,cs),
(350,350,ls),
(350,378,o),
(328,400,o),
(300,400,cs),
(210,400,ls),
(182,400,o),
(160,378,o),
(160,350,cs),
(160,322,o),
(182,300,o),
(210,300,cs),
(238,300,o),
(250,278,o),
(250,250,cs),
(250,222,o),
(228,200,o),
(200,200,cs),
(172,200,o),
(150,222,o),
(150,250,cs),
(150,550,ls),
(150,578,o),
(172,600,o),
(200,600,cs),
(228,600,o),
(250,578,o),
(250,550,cs),
(250,522,o),
(272,500,o),
(300,500,cs),
(328,500,o),
(350,522,o),
(350,550,cs),
(350,650,ls),
(350,733,o),
(283,800,o),
(200,800,cs),
(117,800,o),
(50,733,o),
(50,650,cs)
);
}
);
width = 400;
}
);
unicode = (71,103);
},
{
glyphname = Gbreve;
lastChange = "2023-02-26 17:00:22 +0000";
layers = (
{
layerId = m01;
shapes = (
{
closed = 1;
nodes = (
(50,150,ls),
(50,67,o),
(117,0,o),
(200,0,cs),
(283,0,o),
(350,67,o),
(350,150,cs),
(350,350,ls),
(350,378,o),
(328,400,o),
(300,400,cs),
(210,400,ls),
(182,400,o),
(160,378,o),
(160,350,cs),
(160,322,o),
(182,300,o),
(210,300,cs),
(238,300,o),
(250,278,o),
(250,250,cs),
(250,222,o),
(228,200,o),
(200,200,cs),
(172,200,o),
(150,222,o),
(150,250,cs),
(150,550,ls),
(150,578,o),
(172,600,o),
(200,600,cs),
(228,600,o),
(250,578,o),
(250,550,cs),
(250,522,o),
(272,500,o),
(300,500,cs),
(328,500,o),
(350,522,o),
(350,550,cs),
(350,650,ls),
(350,733,o),
(283,800,o),
(200,800,cs),
(117,800,o),
(50,733,o),
(50,650,cs)
);
},
{
closed = 1;
nodes = (
(146,864,o),
(173,851,o),
(200,850,cs),
(228,850,o),
(255,863,o),
(281,890,cs),
(289,898,o),
(289,907,o),
(281,915,cs),
(272,923,o),
(264,923,o),
(255,914,cs),
(236,895,o),
(218,885,o),
(200,885,cs),
(182,885,o),
(164,895,o),
(144,915,cs),
(135,923,o),
(127,923,o),
(119,915,cs),
(110,906,o),
(110,898,o),
(119,890,cs)
);
}
);
width = 404;
}
);
unicode = (286,287);
},
{
glyphname = Gcircumflex;
lastChange = "2023-02-26 17:00:22 +0000";
layers = (
{
layerId = m01;
shapes = (
{
closed = 1;
nodes = (
(50,150,ls),
(50,67,o),
(117,0,o),
(200,0,cs),
(283,0,o),
(350,67,o),
(350,150,cs),
(350,350,ls),
(350,378,o),
(328,400,o),
(300,400,cs),
(210,400,ls),
(182,400,o),
(160,378,o),
(160,350,cs),
(160,322,o),
(182,300,o),
(210,300,cs),
(238,300,o),
(250,278,o),
(250,250,cs),
(250,222,o),
(228,200,o),
(200,200,cs),
(172,200,o),
(150,222,o),
(150,250,cs),
(150,550,ls),
(150,578,o),
(172,600,o),
(200,600,cs),
(228,600,o),
(250,578,o),
(250,550,cs),
(250,522,o),
(272,500,o),
(300,500,cs),
(328,500,o),
(350,522,o),
(350,550,cs),
(350,650,ls),
(350,733,o),
(283,800,o),
(200,800,cs),
(117,800,o),
(50,733,o),
(50,650,cs)
);
},
{
closed = 1;
nodes = (
(116,849,o),
(125,847,o),
(133,854,cs),
(200,908,l),
(268,855,ls),
(276,849,o),
(284,850,o),
(292,857,c),
(299,867,o),
(298,875,o),
(288,883,cs),
(200,951,l),
(111,882,ls),
(101,875,o),
(101,866,o),
(108,857,cs)
);
}
);
width = 400;
}
);
unicode = (284,285);
},
{
glyphname = Gdotaccent;
lastChange = "2023-02-26 17:00:22 +0000";
layers = (
{
layerId = m01;
shapes = (
{
closed = 1;
nodes = (
(50,150,ls),
(50,67,o),
(117,0,o),
(200,0,cs),
(283,0,o),
(350,67,o),
(350,150,cs),
(350,350,ls),
(350,378,o),
(328,400,o),
(300,400,cs),
(210,400,ls),
(182,400,o),
(160,378,o),
(160,350,cs),
(160,322,o),
(182,300,o),
(210,300,cs),
(238,300,o),
(250,278,o),
(250,250,cs),
(250,222,o),
(228,200,o),
(200,200,cs),
(172,200,o),
(150,222,o),
(150,250,cs),
(150,550,ls),
(150,578,o),
(172,600,o),
(200,600,cs),
(228,600,o),
(250,578,o),
(250,550,cs),
(250,522,o),
(272,500,o),
(300,500,cs),
(328,500,o),
(350,522,o),
(350,550,cs),
(350,650,ls),
(350,733,o),
(283,800,o),
(200,800,cs),
(117,800,o),
(50,733,o),
(50,650,cs)
);
},
{
closed = 1;
nodes = (
(161,896,o),
(164,885,o),
(172,877,cs),
(179,868,o),
(189,863,o),
(200,863,cs),
(211,863,o),
(220,868,o),
(228,877,cs),
(236,885,o),
(240,896,o),
(240,909,cs),
(240,923,o),
(236,934,o),
(228,943,cs),
(220,952,o),
(211,957,o),
(200,957,cs),
(189,957,o),
(179,952,o),
(172,943,cs),
(164,934,o),
(161,923,o),
(161,909,cs)
);
}
);
width = 400;
}
);
unicode = (288,289);
},
{
glyphname = H;
lastChange = "2023-02-26 17:00:22 +0000";
layers = (
{
guides = (
{
pos = (229,448);
}
);
layerId = m01;
shapes = (
{
closed = 1;
nodes = (
(150,278,o),
(172,300,o),
(200,300,cs),
(228,300,o),
(250,278,o),
(250,250,cs),
(250,50,ls),
(250,22,o),
(272,0,o),
(300,0,cs),
(328,0,o),
(350,22,o),
(350,50,cs),
(350,750,ls),
(350,778,o),
(328,800,o),
(300,800,cs),
(272,800,o),
(250,778,o),
(250,750,cs),
(250,550,ls),
(250,522,o),
(228,500,o),
(200,500,cs),
(172,500,o),
(150,522,o),
(150,550,cs),
(150,750,ls),
(150,778,o),
(128,800,o),
(100,800,cs),
(72,800,o),
(50,778,o),
(50,750,cs),
(50,50,ls),
(50,22,o),
(72,0,o),
(100,0,cs),
(128,0,o),
(150,22,o),
(150,50,cs),
(150,250,ls)
);
}
);
width = 400;
}
);
unicode = (72,104);
},
{
glyphname = Hbar;
lastChange = "2023-02-26 17:00:22 +0000";
layers = (
{
background = {
shapes = (
{
closed = 1;
nodes = (
(128,690,o),
(150,712,o),
(150,740,cs),
(150,768,o),
(128,790,o),
(100,790,cs),
(72,790,o),
(50,768,o),
(50,740,cs),
(50,712,o),
(72,690,o),
(100,690,cs)
);
},
{
closed = 1;
nodes = (
(228,690,o),
(250,712,o),
(250,740,cs),
(250,768,o),
(228,790,o),
(200,790,cs),
(172,790,o),
(150,768,o),
(150,740,cs),
(150,712,o),
(172,690,o),
(200,690,cs)
);
},
{
closed = 1;
nodes = (
(328,690,o),
(350,712,o),
(350,740,cs),
(350,768,o),
(328,790,o),
(300,790,cs),
(272,790,o),
(250,768,o),
(250,740,cs),
(250,712,o),
(272,690,o),
(300,690,cs)
);
},
{
closed = 1;
nodes = (
(128,590,o),
(150,612,o),
(150,640,cs),
(150,668,o),
(128,690,o),
(100,690,cs),
(72,690,o),
(50,668,o),
(50,640,cs),
(50,612,o),
(72,590,o),
(100,590,cs)
);
},
{
closed = 1;
nodes = (
(228,590,o),
(250,612,o),
(250,640,cs),
(250,668,o),
(228,690,o),
(200,690,cs),
(172,690,o),
(150,668,o),
(150,640,cs),
(150,612,o),
(172,590,o),
(200,590,cs)
);
},
{
closed = 1;
nodes = (
(328,590,o),
(350,612,o),
(350,640,cs),
(350,668,o),
(328,690,o),
(300,690,cs),
(272,690,o),
(250,668,o),
(250,640,cs),
(250,612,o),
(272,590,o),
(300,590,cs)
);
},
{
closed = 1;
nodes = (
(128,490,o),
(150,512,o),
(150,540,cs),
(150,568,o),
(128,590,o),
(100,590,cs),
(72,590,o),
(50,568,o),
(50,540,cs),
(50,512,o),
(72,490,o),
(100,490,cs)
);
},
{
closed = 1;
nodes = (
(228,490,o),
(250,512,o),
(250,540,cs),
(250,568,o),
(228,590,o),
(200,590,cs),
(172,590,o),
(150,568,o),
(150,540,cs),
(150,512,o),
(172,490,o),
(200,490,cs)
);
},
{
closed = 1;
nodes = (
(328,490,o),
(350,512,o),
(350,540,cs),
(350,568,o),
(328,590,o),
(300,590,cs),
(272,590,o),
(250,568,o),
(250,540,cs),
(250,512,o),
(272,490,o),
(300,490,cs)
);
},
{
closed = 1;
nodes = (
(128,390,o),
(150,412,o),
(150,440,cs),
(150,468,o),
(128,490,o),
(100,490,cs),
(72,490,o),
(50,468,o),
(50,440,cs),
(50,412,o),
(72,390,o),
(100,390,cs)
);
},
{
closed = 1;
nodes = (
(228,390,o),
(250,412,o),
(250,440,cs),
(250,468,o),
(228,490,o),
(200,490,cs),
(172,490,o),
(150,468,o),
(150,440,cs),
(150,412,o),
(172,390,o),
(200,390,cs)
);
},
{
closed = 1;
nodes = (
(328,390,o),
(350,412,o),
(350,440,cs),
(350,468,o),
(328,490,o),
(300,490,cs),
(272,490,o),
(250,468,o),
(250,440,cs),
(250,412,o),
(272,390,o),
(300,390,cs)
);
},
{
closed = 1;
nodes = (
(128,290,o),
(150,312,o),
(150,340,cs),
(150,368,o),
(128,390,o),
(100,390,cs),
(72,390,o),
(50,368,o),
(50,340,cs),
(50,312,o),
(72,290,o),
(100,290,cs)
);
},
{
closed = 1;
nodes = (
(228,290,o),
(250,312,o),
(250,340,cs),
(250,368,o),
(228,390,o),
(200,390,cs),
(172,390,o),
(150,368,o),
(150,340,cs),
(150,312,o),
(172,290,o),
(200,290,cs)
);
},
{
closed = 1;
nodes = (
(328,290,o),
(350,312,o),
(350,340,cs),
(350,368,o),
(328,390,o),
(300,390,cs),
(272,390,o),
(250,368,o),
(250,340,cs),
(250,312,o),
(272,290,o),
(300,290,cs)
);
},
{
closed = 1;
nodes = (
(128,190,o),
(150,212,o),
(150,240,cs),
(150,268,o),
(128,290,o),
(100,290,cs),
(72,290,o),
(50,268,o),
(50,240,cs),
(50,212,o),
(72,190,o),
(100,190,cs)
);
},
{
closed = 1;
nodes = (
(228,190,o),
(250,212,o),
(250,240,cs),
(250,268,o),
(228,290,o),
(200,290,cs),
(172,290,o),
(150,268,o),
(150,240,cs),
(150,212,o),
(172,190,o),
(200,190,cs)
);
},
{
closed = 1;
nodes = (
(328,190,o),
(350,212,o),
(350,240,cs),
(350,268,o),
(328,290,o),
(300,290,cs),
(272,290,o),
(250,268,o),
(250,240,cs),
(250,212,o),
(272,190,o),
(300,190,cs)
);
},
{
closed = 1;
nodes = (
(128,90,o),
(150,112,o),
(150,140,cs),
(150,168,o),
(128,190,o),
(100,190,cs),
(72,190,o),
(50,169,o),
(50,140,cs),
(50,112,o),
(72,90,o),
(100,90,cs)
);
},
{
closed = 1;
nodes = (
(228,90,o),
(250,112,o),
(250,140,cs),
(250,168,o),
(228,190,o),
(200,190,cs),
(172,190,o),
(150,168,o),
(150,140,cs),
(150,112,o),
(172,90,o),
(200,90,cs)
);
},
{
closed = 1;
nodes = (
(328,90,o),
(350,112,o),
(350,140,cs),
(350,168,o),
(328,190,o),
(300,190,cs),
(272,190,o),
(250,168,o),
(250,140,cs),
(250,112,o),
(272,90,o),
(300,90,cs)
);
},
{
closed = 1;
nodes = (
(128,-10,o),
(150,12,o),
(150,40,cs),
(150,68,o),
(128,90,o),
(100,90,cs),
(72,90,o),
(50,68,o),
(50,40,cs),
(50,12,o),
(72,-10,o),
(100,-10,cs)
);
},
{
closed = 1;
nodes = (
(228,-10,o),
(250,12,o),
(250,40,cs),
(250,68,o),
(228,90,o),
(200,90,cs),
(172,90,o),
(150,68,o),
(150,40,cs),
(150,12,o),
(172,-10,o),
(200,-10,cs)
);
},
{
closed = 1;
nodes = (
(328,-10,o),
(350,12,o),
(350,40,cs),
(350,68,o),
(328,90,o),
(300,90,cs),
(272,90,o),
(250,68,o),
(250,40,cs),
(250,12,o),
(272,-10,o),
(300,-10,cs)
);
}
);
};
layerId = m01;
shapes = (
{
closed = 1;
nodes = (
(150,278,o),
(172,300,o),
(200,300,cs),
(228,300,o),
(250,278,o),
(250,250,cs),
(250,50,ls),
(250,22,o),
(272,0,o),
(300,0,cs),
(328,0,o),
(350,22,o),
(350,50,cs),
(350,599,l),
(382,599,ls),
(394,599,o),
(400,604,o),
(400,616,cs),
(400,629,o),
(394,636,o),
(382,636,cs),
(350,636,l),
(350,750,ls),
(350,778,o),
(328,800,o),
(300,800,cs),
(272,800,o),
(250,778,o),
(250,750,cs),
(250,636,l),
(150,636,l),
(150,750,ls),
(150,778,o),
(128,800,o),
(100,800,cs),
(72,800,o),
(50,778,o),
(50,750,cs),
(50,636,l),
(18,636,ls),
(6,636,o),
(0,630,o),
(0,619,cs),
(0,606,o),
(6,600,o),
(18,600,cs),
(50,600,l),
(50,50,ls),
(50,22,o),
(72,0,o),
(100,0,cs),
(128,0,o),
(150,22,o),
(150,50,cs),
(150,250,ls)
);
},
{
closed = 1;
nodes = (
(150,600,l),
(250,599,l),
(250,550,ls),
(250,522,o),
(228,500,o),
(200,500,cs),
(172,500,o),
(150,522,o),
(150,550,cs)
);
}
);
width = 400;
}
);
unicode = (294,295);
},
{
glyphname = Hcircumflex;
lastChange = "2023-02-26 17:00:22 +0000";
layers = (
{
layerId = m01;
shapes = (
{
closed = 1;
nodes = (
(150,278,o),
(172,300,o),
(200,300,cs),
(228,300,o),
(250,278,o),
(250,250,cs),
(250,50,ls),
(250,22,o),
(272,0,o),
(300,0,cs),
(328,0,o),
(350,22,o),
(350,50,cs),
(350,750,ls),
(350,778,o),
(328,800,o),
(300,800,cs),
(272,800,o),
(250,778,o),
(250,750,cs),
(250,550,ls),
(250,522,o),
(228,500,o),
(200,500,cs),
(172,500,o),
(150,522,o),
(150,550,cs),
(150,750,ls),
(150,778,o),
(128,800,o),
(100,800,cs),
(72,800,o),
(50,778,o),
(50,750,cs),
(50,50,ls),
(50,22,o),
(72,0,o),
(100,0,cs),
(128,0,o),
(150,22,o),
(150,50,cs),
(150,250,ls)
);
},
{
closed = 1;
nodes = (
(116,849,o),
(125,847,o),
(133,854,cs),
(200,908,l),
(268,855,ls),
(276,849,o),
(284,850,o),
(292,857,c),
(299,867,o),
(298,875,o),
(288,883,cs),
(200,951,l),
(111,882,ls),
(101,875,o),
(101,866,o),
(108,857,cs)
);
}
);
width = 400;
}
);
unicode = (292,293);
},
{
glyphname = I;
lastChange = "2023-02-26 17:00:22 +0000";
layers = (
{
layerId = m01;
shapes = (
{
closed = 1;
nodes = (
(128,0,o),
(150,22,o),
(150,50,cs),
(150,750,ls),
(150,778,o),
(128,800,o),
(100,800,cs),
(72,800,o),
(50,778,o),
(50,750,cs),
(50,50,ls),
(50,22,o),
(72,0,o),
(100,0,cs)
);
}
);
width = 200;
}
);
unicode = (73,105);
},
{
glyphname = IJ;
lastChange = "2023-02-26 17:00:22 +0000";
layers = (
{
background = {
shapes = (
{
closed = 1;
nodes = (
(128,690,o),
(150,712,o),
(150,740,cs),
(150,768,o),
(128,790,o),
(100,790,cs),
(72,790,o),
(50,768,o),
(50,740,cs),
(50,712,o),
(72,690,o),
(100,690,cs)
);
},
{
closed = 1;
nodes = (
(228,690,o),
(250,712,o),
(250,740,cs),
(250,768,o),
(228,790,o),
(200,790,cs),
(172,790,o),
(150,768,o),
(150,740,cs),
(150,712,o),
(172,690,o),
(200,690,cs)
);
},
{
closed = 1;
nodes = (
(328,690,o),
(350,712,o),
(350,740,cs),
(350,768,o),
(328,790,o),
(300,790,cs),
(272,790,o),
(250,768,o),
(250,740,cs),
(250,712,o),
(272,690,o),
(300,690,cs)
);
},
{
closed = 1;
nodes = (
(128,590,o),
(150,612,o),
(150,640,cs),
(150,668,o),
(128,690,o),
(100,690,cs),
(72,690,o),
(50,668,o),
(50,640,cs),
(50,612,o),
(72,590,o),
(100,590,cs)
);
},
{
closed = 1;
nodes = (
(228,590,o),
(250,612,o),
(250,640,cs),
(250,668,o),
(228,690,o),
(200,690,cs),
(172,690,o),
(150,668,o),
(150,640,cs),
(150,612,o),
(172,590,o),
(200,590,cs)
);
},
{
closed = 1;
nodes = (
(328,590,o),
(350,612,o),
(350,640,cs),
(350,668,o),
(328,690,o),
(300,690,cs),
(272,690,o),
(250,668,o),
(250,640,cs),
(250,612,o),
(272,590,o),
(300,590,cs)
);
},
{
closed = 1;
nodes = (
(128,490,o),
(150,512,o),
(150,540,cs),
(150,568,o),
(128,590,o),
(100,590,cs),
(72,590,o),
(50,568,o),
(50,540,cs),
(50,512,o),
(72,490,o),
(100,490,cs)
);
},
{
closed = 1;
nodes = (
(228,490,o),
(250,512,o),
(250,540,cs),
(250,568,o),
(228,590,o),
(200,590,cs),
(172,590,o),
(150,568,o),
(150,540,cs),
(150,512,o),
(172,490,o),
(200,490,cs)
);
},
{
closed = 1;
nodes = (
(328,490,o),
(350,512,o),
(350,540,cs),
(350,568,o),
(328,590,o),
(300,590,cs),
(272,590,o),
(250,568,o),
(250,540,cs),
(250,512,o),
(272,490,o),
(300,490,cs)
);
},
{
closed = 1;
nodes = (
(128,390,o),
(150,412,o),
(150,440,cs),
(150,468,o),
(128,490,o),
(100,490,cs),
(72,490,o),
(50,468,o),
(50,440,cs),
(50,412,o),
(72,390,o),
(100,390,cs)
);
},
{
closed = 1;
nodes = (
(228,390,o),
(250,412,o),
(250,440,cs),
(250,468,o),
(228,490,o),
(200,490,cs),
(172,490,o),
(150,468,o),
(150,440,cs),
(150,412,o),
(172,390,o),
(200,390,cs)
);
},
{
closed = 1;
nodes = (
(328,390,o),
(350,412,o),
(350,440,cs),
(350,468,o),
(328,490,o),
(300,490,cs),
(272,490,o),
(250,468,o),
(250,440,cs),
(250,412,o),
(272,390,o),
(300,390,cs)
);
},
{
closed = 1;
nodes = (
(128,290,o),
(150,312,o),
(150,340,cs),
(150,368,o),
(128,390,o),
(100,390,cs),
(72,390,o),
(50,368,o),
(50,340,cs),
(50,312,o),
(72,290,o),
(100,290,cs)
);
},
{
closed = 1;
nodes = (
(228,290,o),
(250,312,o),
(250,340,cs),
(250,368,o),
(228,390,o),
(200,390,cs),
(172,390,o),
(150,368,o),
(150,340,cs),
(150,312,o),
(172,290,o),
(200,290,cs)
);
},
{
closed = 1;
nodes = (
(328,290,o),
(350,312,o),
(350,340,cs),
(350,368,o),
(328,390,o),
(300,390,cs),
(272,390,o),
(250,368,o),
(250,340,cs),
(250,312,o),
(272,290,o),
(300,290,cs)
);
},
{
closed = 1;
nodes = (
(128,190,o),
(150,212,o),
(150,240,cs),
(150,268,o),
(128,290,o),
(100,290,cs),
(72,290,o),
(50,268,o),
(50,240,cs),
(50,212,o),
(72,190,o),
(100,190,cs)
);
},
{
closed = 1;
nodes = (
(228,190,o),
(250,212,o),
(250,240,cs),
(250,268,o),
(228,290,o),
(200,290,cs),
(172,290,o),
(150,268,o),
(150,240,cs),
(150,212,o),
(172,190,o),
(200,190,cs)
);
},
{
closed = 1;
nodes = (
(328,190,o),
(350,212,o),
(350,240,cs),
(350,268,o),
(328,290,o),
(300,290,cs),
(272,290,o),
(250,268,o),
(250,240,cs),
(250,212,o),
(272,190,o),
(300,190,cs)
);
},
{
closed = 1;
nodes = (
(128,90,o),
(150,112,o),
(150,140,cs),
(150,168,o),
(128,190,o),
(100,190,cs),
(72,190,o),
(50,169,o),
(50,140,cs),
(50,112,o),
(72,90,o),
(100,90,cs)
);
},
{
closed = 1;
nodes = (
(228,90,o),
(250,112,o),
(250,140,cs),
(250,168,o),
(228,190,o),
(200,190,cs),
(172,190,o),
(150,168,o),
(150,140,cs),
(150,112,o),
(172,90,o),
(200,90,cs)
);
},
{
closed = 1;
nodes = (
(328,90,o),
(350,112,o),
(350,140,cs),
(350,168,o),
(328,190,o),
(300,190,cs),
(272,190,o),
(250,168,o),
(250,140,cs),
(250,112,o),
(272,90,o),
(300,90,cs)
);
},
{
closed = 1;
nodes = (
(128,-10,o),
(150,12,o),
(150,40,cs),
(150,68,o),
(128,90,o),
(100,90,cs),
(72,90,o),
(50,68,o),
(50,40,cs),
(50,12,o),
(72,-10,o),
(100,-10,cs)
);
},
{
closed = 1;
nodes = (
(228,-10,o),
(250,12,o),
(250,40,cs),
(250,68,o),
(228,90,o),
(200,90,cs),
(172,90,o),
(150,68,o),
(150,40,cs),
(150,12,o),
(172,-10,o),
(200,-10,cs)
);
},
{
closed = 1;
nodes = (
(328,-10,o),
(350,12,o),
(350,40,cs),
(350,68,o),
(328,90,o),
(300,90,cs),
(272,90,o),
(250,68,o),
(250,40,cs),
(250,12,o),
(272,-10,o),
(300,-10,cs)
);
}
);
};
layerId = m01;
shapes = (
{
closed = 1;
nodes = (
(128,400,o),
(150,422,o),
(150,450,cs),
(150,750,ls),
(150,778,o),
(128,800,o),
(100,800,cs),
(72,800,o),
(50,778,o),
(50,750,cs),
(50,450,ls),
(50,422,o),
(72,400,o),
(100,400,cs)
);
},
{
closed = 1;
nodes = (
(50,67,o),
(117,0,o),
(200,0,cs),
(283,0,o),
(350,67,o),
(350,150,cs),
(350,750,ls),
(350,778,o),
(328,800,o),
(300,800,cs),
(272,800,o),
(250,778,o),
(250,750,cs),
(250,250,ls),
(250,222,o),
(228,200,o),
(200,200,cs),
(172,200,o),
(150,222,o),
(150,250,cs),
(150,278,o),
(128,300,o),
(100,300,cs),
(72,300,o),
(50,278,o),
(50,250,cs),
(50,150,ls)
);
}
);
width = 400;
}
);
unicode = 306;
},
{
glyphname = Iacute;
lastChange = "2023-02-26 17:00:22 +0000";
layers = (
{
layerId = m01;
shapes = (
{
closed = 1;
nodes = (
(128,0,o),
(150,22,o),
(150,50,cs),
(150,750,ls),
(150,778,o),
(128,800,o),
(100,800,cs),
(72,800,o),
(50,778,o),
(50,750,cs),
(50,50,ls),
(50,22,o),
(72,0,o),
(100,0,cs)
);
},
{
closed = 1;
nodes = (
(26,855,o),
(34,853,o),
(44,859,cs),
(174,937,ls),
(184,943,o),
(186,951,o),
(180,961,cs),
(174,971,o),
(166,973,o),
(155,967,cs),
(26,889,ls),
(16,883,o),
(14,875,o),
(19,866,cs)
);
}
);
width = 200;
}
);
unicode = (205,237);
},
{
glyphname = Ibreve;
lastChange = "2023-02-26 17:00:22 +0000";
layers = (
{
layerId = m01;
shapes = (
{
closed = 1;
nodes = (
(128,0,o),
(150,22,o),
(150,50,cs),
(150,750,ls),
(150,778,o),
(128,800,o),
(100,800,cs),
(72,800,o),
(50,778,o),
(50,750,cs),
(50,50,ls),
(50,22,o),
(72,0,o),
(100,0,cs)
);
},
{
closed = 1;
nodes = (
(46,864,o),
(73,851,o),
(100,850,cs),
(128,850,o),
(155,863,o),
(181,890,cs),
(189,898,o),
(189,907,o),
(181,915,cs),
(172,923,o),
(164,923,o),
(155,914,cs),
(136,895,o),
(118,885,o),
(100,885,cs),
(82,885,o),
(64,895,o),
(44,915,cs),
(35,923,o),
(27,923,o),
(19,915,cs),
(10,906,o),
(10,898,o),
(19,890,cs)
);
}
);
width = 204;
}
);
unicode = (300,301);
},
{
glyphname = Icircumflex;
lastChange = "2023-02-26 17:00:22 +0000";
layers = (
{
layerId = m01;
shapes = (
{
closed = 1;
nodes = (
(128,0,o),
(150,22,o),
(150,50,cs),
(150,750,ls),
(150,778,o),
(128,800,o),
(100,800,cs),
(72,800,o),
(50,778,o),
(50,750,cs),
(50,50,ls),
(50,22,o),
(72,0,o),
(100,0,cs)
);
},
{
closed = 1;
nodes = (
(16,849,o),
(25,847,o),
(33,854,cs),
(100,908,l),
(168,855,ls),
(176,849,o),
(184,850,o),
(192,857,c),
(199,867,o),
(198,875,o),
(188,883,cs),
(100,951,l),
(11,882,ls),
(1,875,o),
(1,866,o),
(8,857,cs)
);
}
);
width = 200;
}
);
unicode = (206,238);
},
{
glyphname = Idieresis;
lastChange = "2023-02-26 17:00:22 +0000";
layers = (
{
layerId = m01;
shapes = (
{
closed = 1;
nodes = (
(128,0,o),
(150,22,o),
(150,50,cs),
(150,750,ls),
(150,778,o),
(128,800,o),
(100,800,cs),
(72,800,o),
(50,778,o),
(50,750,cs),
(50,50,ls),
(50,22,o),
(72,0,o),
(100,0,cs)
);
},
{
closed = 1;
nodes = (
(0,896,o),
(3,885,o),
(11,877,cs),
(18,868,o),
(28,863,o),
(39,863,cs),
(50,863,o),
(59,868,o),
(67,877,cs),
(75,885,o),
(79,896,o),
(79,909,cs),
(79,923,o),
(75,934,o),
(67,943,cs),
(59,952,o),
(50,957,o),
(39,957,cs),
(28,957,o),
(18,952,o),
(11,943,cs),
(3,934,o),
(0,923,o),
(0,909,cs)
);
},
{
closed = 1;
nodes = (
(121,896,o),
(125,885,o),
(132,877,cs),
(140,868,o),
(150,863,o),
(161,863,cs),
(172,863,o),
(181,868,o),
(189,877,cs),
(197,885,o),
(200,896,o),
(200,909,cs),
(200,923,o),
(197,934,o),
(189,943,cs),
(181,952,o),
(172,957,o),
(161,957,cs),
(150,957,o),
(140,952,o),
(132,943,cs),
(125,934,o),
(121,923,o),
(121,909,cs)
);
}
);
width = 200;
}
);
unicode = (207,239);
},
{
glyphname = Idotaccent;
lastChange = "2023-02-26 17:00:22 +0000";
layers = (
{
layerId = m01;
shapes = (
{
closed = 1;
nodes = (
(128,0,o),
(150,22,o),
(150,50,cs),
(150,750,ls),
(150,778,o),
(128,800,o),
(100,800,cs),
(72,800,o),
(50,778,o),
(50,750,cs),
(50,50,ls),
(50,22,o),
(72,0,o),
(100,0,cs)
);
},
{
closed = 1;
nodes = (
(61,896,o),
(64,885,o),
(72,877,cs),
(79,868,o),
(89,863,o),
(100,863,cs),
(111,863,o),
(120,868,o),
(128,877,cs),
(136,885,o),
(140,896,o),
(140,909,cs),
(140,923,o),
(136,934,o),
(128,943,cs),
(120,952,o),
(111,957,o),
(100,957,cs),
(89,957,o),
(79,952,o),
(72,943,cs),
(64,934,o),
(61,923,o),
(61,909,cs)
);
}
);
width = 200;
}
);
unicode = 304;
},
{
glyphname = Igrave;
lastChange = "2023-02-26 17:00:22 +0000";
layers = (
{
layerId = m01;
shapes = (
{
closed = 1;
nodes = (
(128,0,o),
(150,22,o),
(150,50,cs),
(150,750,ls),
(150,778,o),
(128,800,o),
(100,800,cs),
(72,800,o),
(50,778,o),
(50,750,cs),
(50,50,ls),
(50,22,o),
(72,0,o),
(100,0,cs)
);
},
{
closed = 1;
nodes = (
(14,951,o),
(16,943,o),
(26,937,cs),
(156,859,ls),
(166,853,o),
(174,855,o),
(181,866,cs),
(186,875,o),
(184,883,o),
(174,889,cs),
(45,967,ls),
(34,973,o),
(26,971,o),
(20,961,cs)
);
}
);
width = 200;
}
);
unicode = (204,236);
},
{
glyphname = Imacron;
lastChange = "2023-02-26 17:00:22 +0000";
layers = (
{
layerId = m01;
shapes = (
{
closed = 1;
nodes = (
(128,0,o),
(150,22,o),
(150,50,cs),
(150,750,ls),
(150,778,o),
(128,800,o),
(100,800,cs),
(72,800,o),
(50,778,o),
(50,750,cs),
(50,50,ls),
(50,22,o),
(72,0,o),
(100,0,cs)
);
},
{
closed = 1;
nodes = (
(-20,876,o),
(-14,870,o),
(-2,870,cs),
(202,869,ls),
(214,869,o),
(220,875,o),
(220,887,cs),
(220,899,o),
(214,906,o),
(202,906,cs),
(-2,906,ls),
(-14,906,o),
(-20,901,o),
(-20,889,cs)
);
}
);
width = 200;
}
);
unicode = (298,299);
},
{
glyphname = Itilde;
lastChange = "2023-02-26 17:00:22 +0000";
layers = (
{
layerId = m01;
shapes = (
{
closed = 1;
nodes = (
(128,0,o),
(150,22,o),
(150,50,cs),
(150,750,ls),
(150,778,o),
(128,800,o),
(100,800,cs),
(72,800,o),
(50,778,o),
(50,750,cs),
(50,50,ls),
(50,22,o),
(72,0,o),
(100,0,cs)
);
},
{
closed = 1;
nodes = (
(-70,889,o),
(-69,880,o),
(-60,872,cs),
(-50,864,o),
(-42,866,o),
(-34,876,cs),
(-23,890,o),
(-13,903,o),
(-3,913,cs),
(6,924,o),
(16,931,o),
(24,933,c),
(39,939,o),
(58,926,o),
(80,896,cs),
(96,873,o),
(115,859,o),
(135,853,cs),
(148,848,o),
(161,848,o),
(175,852,cs),
(187,854,o),
(198,859,o),
(210,868,cs),
(235,887,o),
(253,913,o),
(263,946,cs),
(266,957,o),
(262,964,o),
(250,969,c),
(239,971,o),
(232,967,o),
(228,955,cs),
(221,931,o),
(207,911,o),
(188,897,cs),
(180,892,o),
(173,888,o),
(166,886,cs),
(160,885,o),
(153,885,o),
(146,887,cs),
(133,890,o),
(121,900,o),
(109,917,cs),
(76,961,o),
(44,978,o),
(13,968,cs),
(-1,963,o),
(-14,955,o),
(-26,942,cs),
(-38,929,o),
(-50,915,o),
(-63,898,cs)
);
}
);
width = 200;
}
);
unicode = 296;
},
{
glyphname = J;
lastChange = "2023-02-26 17:00:22 +0000";
layers = (
{
layerId = m01;
shapes = (
{
closed = 1;
nodes = (
(50,150,ls),
(50,67,o),
(117,0,o),
(200,0,cs),
(283,0,o),
(350,67,o),
(350,150,cs),
(350,750,ls),
(350,778,o),
(328,800,o),
(300,800,cs),
(272,800,o),
(250,778,o),
(250,750,cs),
(250,250,ls),
(250,222,o),
(228,200,o),
(200,200,cs),
(172,200,o),
(150,222,o),
(150,250,cs),
(150,278,o),
(128,300,o),
(100,300,cs),
(72,300,o),
(50,278,o),
(50,250,cs)
);
}
);
width = 400;
}
);
unicode = (74,106);
},
{
glyphname = Jcircumflex;
lastChange = "2023-02-26 17:00:22 +0000";
layers = (
{
guides = (
{
angle = 90;
pos = (300,821);
}
);
layerId = m01;
shapes = (
{
closed = 1;
nodes = (
(50,150,ls),
(50,67,o),
(117,0,o),
(200,0,cs),
(283,0,o),
(350,67,o),
(350,150,cs),
(350,750,ls),
(350,778,o),
(328,800,o),
(300,800,cs),
(272,800,o),
(250,778,o),
(250,750,cs),
(250,250,ls),
(250,222,o),
(228,200,o),
(200,200,cs),
(172,200,o),
(150,222,o),
(150,250,cs),
(150,278,o),
(128,300,o),
(100,300,cs),
(72,300,o),
(50,278,o),
(50,250,cs)
);
},
{
closed = 1;
nodes = (
(216,849,o),
(225,847,o),
(233,854,cs),
(300,908,l),
(368,855,ls),
(376,849,o),
(384,850,o),
(392,857,c),
(399,867,o),
(398,875,o),
(388,883,cs),
(300,951,l),
(211,882,ls),
(201,875,o),
(201,866,o),
(208,857,cs)
);
}
);
width = 400;
}
);
unicode = 308;
},
{
glyphname = K;
lastChange = "2023-02-26 17:00:22 +0000";
layers = (
{
layerId = m01;
shapes = (
{
closed = 1;
nodes = (
(150,278,o),
(172,300,o),
(200,300,cs),
(228,300,o),
(250,278,o),
(250,250,cs),
(250,50,ls),
(250,22,o),
(272,0,o),
(300,0,cs),
(328,0,o),
(350,22,o),
(350,50,cs),
(350,450,ls),
(350,478,o),
(328,500,o),
(300,500,cs),
(231,500,l),
(346,730,ls),
(357,755,o),
(346,784,o),
(320,796,cs),
(295,807,o),
(266,796,o),
(254,770,cs),
(150,561,l),
(150,750,ls),
(150,778,o),
(128,800,o),
(100,800,cs),
(72,800,o),
(50,778,o),
(50,750,cs),
(50,50,ls),
(50,22,o),
(72,0,o),
(100,0,cs),
(128,0,o),
(150,22,o),
(150,50,cs),
(150,250,ls)
);
}
);
width = 400;
}
);
unicode = (75,107);
},
{
glyphname = L;
lastChange = "2023-02-26 17:00:22 +0000";
layers = (
{
layerId = m01;
shapes = (
{
closed = 1;
nodes = (
(328,0,o),
(350,22,o),
(350,50,cs),
(350,150,ls),
(350,178,o),
(328,200,o),
(300,200,cs),
(150,200,l),
(150,750,ls),
(150,778,o),
(128,800,o),
(100,800,cs),
(72,800,o),
(50,778,o),
(50,750,cs),
(50,50,ls),
(50,22,o),
(72,0,o),
(100,0,cs),
(300,0,ls)
);
}
);
width = 400;
}
);
unicode = (76,108);
},
{
glyphname = Lacute;
lastChange = "2023-02-26 17:00:22 +0000";
layers = (
{
layerId = m01;
shapes = (
{
closed = 1;
nodes = (
(328,0,o),
(350,22,o),
(350,50,cs),
(350,150,ls),
(350,178,o),
(328,200,o),
(300,200,cs),
(150,200,l),
(150,750,ls),
(150,778,o),
(128,800,o),
(100,800,cs),
(72,800,o),
(50,778,o),
(50,750,cs),
(50,50,ls),
(50,22,o),
(72,0,o),
(100,0,cs),
(300,0,ls)
);
},
{
closed = 1;
nodes = (
(126,855,o),
(134,853,o),
(144,859,cs),
(274,937,ls),
(284,943,o),
(286,951,o),
(280,961,cs),
(274,971,o),
(266,973,o),
(255,967,cs),
(126,889,ls),
(116,883,o),
(114,875,o),
(119,866,cs)
);
}
);
width = 400;
}
);
unicode = 313;
},
{
glyphname = Ldot;
lastChange = "2023-02-26 17:00:22 +0000";
layers = (
{
guides = (
{
angle = 90;
pos = (349,340);
},
{
angle = 90;
pos = (150,345);
},
{
pos = (282,490);
}
);
layerId = m01;
shapes = (
{
closed = 1;
nodes = (
(328,0,o),
(350,22,o),
(350,50,cs),
(350,150,ls),
(350,178,o),
(328,200,o),
(300,200,cs),
(150,200,l),
(150,750,ls),
(150,778,o),
(128,800,o),
(100,800,cs),
(72,800,o),
(50,778,o),
(50,750,cs),
(50,50,ls),
(50,22,o),
(72,0,o),
(100,0,cs),
(300,0,ls)
);
},
{
closed = 1;
nodes = (
(210,487,o),
(214,476,o),
(222,467,cs),
(229,458,o),
(238,454,o),
(249,454,cs),
(260,454,o),
(270,458,o),
(278,467,cs),
(286,476,o),
(289,487,o),
(289,500,cs),
(289,513,o),
(286,524,o),
(278,534,cs),
(270,543,o),
(260,547,o),
(249,547,cs),
(238,547,o),
(229,543,o),
(222,534,cs),
(214,524,o),
(210,513,o),
(210,500,cs)
);
}
);
width = 400;
}
);
unicode = 319;
},
{
glyphname = M;
lastChange = "2023-02-26 17:00:22 +0000";
layers = (
{
layerId = m01;
shapes = (
{
closed = 1;
nodes = (
(128,0,o),
(150,22,o),
(150,50,cs),
(150,550,ls),
(150,578,o),
(172,600,o),
(200,600,cs),
(228,600,o),
(250,578,o),
(250,550,cs),
(250,50,ls),
(250,22,o),
(272,0,o),
(300,0,cs),
(328,0,o),
(350,22,o),
(350,50,cs),
(350,550,ls),
(350,578,o),
(372,600,o),
(400,600,cs),
(428,600,o),
(450,578,o),
(450,550,cs),
(450,50,ls),
(450,22,o),
(472,0,o),
(500,0,cs),
(528,0,o),
(550,22,o),
(550,50,cs),
(550,650,ls),
(550,733,o),
(483,800,o),
(400,800,cs),
(362,800,o),
(327,786,o),
(300,762,c),
(273,786,o),
(238,800,o),
(200,800,cs),
(117,800,o),
(50,733,o),
(50,650,cs),
(50,50,ls),
(50,22,o),
(72,0,o),
(100,0,cs)
);
}
);
width = 600;
}
);
unicode = (77,109);
},
{
glyphname = N;
lastChange = "2023-02-26 17:00:22 +0000";
layers = (
{
layerId = m01;
shapes = (
{
closed = 1;
nodes = (
(128,0,o),
(150,22,o),
(150,50,cs),
(150,550,ls),
(150,578,o),
(172,600,o),
(200,600,cs),
(228,600,o),
(250,578,o),
(250,550,cs),
(250,50,ls),
(250,22,o),
(272,0,o),
(300,0,cs),
(328,0,o),
(350,22,o),
(350,50,cs),
(350,650,ls),
(350,733,o),
(283,800,o),
(200,800,cs),
(117,800,o),
(50,733,o),
(50,650,cs),
(50,50,ls),
(50,22,o),
(72,0,o),
(100,0,cs)
);
}
);
width = 400;
}
);
unicode = (78,110);
},
{
glyphname = Nacute;
lastChange = "2023-02-26 17:00:22 +0000";
layers = (
{
layerId = m01;
shapes = (
{
closed = 1;
nodes = (
(128,0,o),
(150,22,o),
(150,50,cs),
(150,550,ls),
(150,578,o),
(172,600,o),
(200,600,cs),
(228,600,o),
(250,578,o),
(250,550,cs),
(250,50,ls),
(250,22,o),
(272,0,o),
(300,0,cs),
(328,0,o),
(350,22,o),
(350,50,cs),
(350,650,ls),
(350,733,o),
(283,800,o),
(200,800,cs),
(117,800,o),
(50,733,o),
(50,650,cs),
(50,50,ls),
(50,22,o),
(72,0,o),
(100,0,cs)
);
},
{
closed = 1;
nodes = (
(126,855,o),
(134,853,o),
(144,859,cs),
(274,937,ls),
(284,943,o),
(286,951,o),
(280,961,cs),
(274,971,o),
(266,973,o),
(255,967,cs),
(126,889,ls),
(116,883,o),
(114,875,o),
(119,866,cs)
);
}
);
width = 400;
}
);
unicode = (323,324);
},
{
glyphname = Ncaron;
lastChange = "2023-02-26 17:00:22 +0000";
layers = (
{
layerId = m01;
shapes = (
{
closed = 1;
nodes = (
(128,0,o),
(150,22,o),
(150,50,cs),
(150,550,ls),
(150,578,o),
(172,600,o),
(200,600,cs),
(228,600,o),
(250,578,o),
(250,550,cs),
(250,50,ls),
(250,22,o),
(272,0,o),
(300,0,cs),
(328,0,o),
(350,22,o),
(350,50,cs),
(350,650,ls),
(350,733,o),
(283,800,o),
(200,800,cs),
(117,800,o),
(50,733,o),
(50,650,cs),
(50,50,ls),
(50,22,o),
(72,0,o),
(100,0,cs)
);
},
{
closed = 1;
nodes = (
(114,930,o),
(114,921,o),
(124,914,cs),
(213,845,l),
(301,913,ls),
(311,921,o),
(312,929,o),
(305,939,c),
(297,946,o),
(289,947,o),
(281,941,cs),
(213,888,l),
(146,942,ls),
(138,949,o),
(129,947,o),
(121,939,cs)
);
}
);
width = 413;
}
);
unicode = (327,328);
},
{
glyphname = Ntilde;
lastChange = "2023-02-26 17:00:22 +0000";
layers = (
{
layerId = m01;
shapes = (
{
closed = 1;
nodes = (
(128,0,o),
(150,22,o),
(150,50,cs),
(150,550,ls),
(150,578,o),
(172,600,o),
(200,600,cs),
(228,600,o),
(250,578,o),
(250,550,cs),
(250,50,ls),
(250,22,o),
(272,0,o),
(300,0,cs),
(328,0,o),
(350,22,o),
(350,50,cs),
(350,650,ls),
(350,733,o),
(283,800,o),
(200,800,cs),
(117,800,o),
(50,733,o),
(50,650,cs),
(50,50,ls),
(50,22,o),
(72,0,o),
(100,0,cs)
);
},
{
closed = 1;
nodes = (
(30,889,o),
(31,880,o),
(40,872,cs),
(50,864,o),
(58,866,o),
(66,876,cs),
(77,890,o),
(87,903,o),
(97,913,cs),
(106,924,o),
(116,931,o),
(124,933,c),
(139,939,o),
(158,926,o),
(180,896,cs),
(196,873,o),
(215,859,o),
(235,853,cs),
(248,848,o),
(261,848,o),
(275,852,cs),
(287,854,o),
(298,859,o),
(310,868,cs),
(335,887,o),
(353,913,o),
(363,946,cs),
(366,957,o),
(362,964,o),
(350,969,c),
(339,971,o),
(332,967,o),
(328,955,cs),
(321,931,o),
(307,911,o),
(288,897,cs),
(280,892,o),
(273,888,o),
(266,886,cs),
(260,885,o),
(253,885,o),
(246,887,cs),
(233,890,o),
(221,900,o),
(209,917,cs),
(176,961,o),
(144,978,o),
(113,968,cs),
(99,963,o),
(86,955,o),
(74,942,cs),
(62,929,o),
(50,915,o),
(37,898,cs)
);
}
);
width = 400;
}
);
unicode = 209;
},
{
glyphname = O;
lastChange = "2023-02-26 17:00:22 +0000";
layers = (
{
layerId = m01;
shapes = (
{
closed = 1;
nodes = (
(50,150,ls),
(50,67,o),
(117,0,o),
(200,0,cs),
(283,0,o),
(350,67,o),
(350,150,cs),
(350,650,ls),
(350,733,o),
(283,800,o),
(200,800,cs),
(117,800,o),
(50,733,o),
(50,650,cs)
);
},
{
closed = 1;
nodes = (
(150,550,ls),
(150,578,o),
(172,600,o),
(200,600,cs),
(228,600,o),
(250,578,o),
(250,550,cs),
(250,250,ls),
(250,222,o),
(228,200,o),
(200,200,cs),
(172,200,o),
(150,222,o),
(150,250,cs)
);
}
);
width = 400;
}
);
unicode = (79,111);
},
{
glyphname = Oacute;
lastChange = "2023-02-26 17:00:22 +0000";
layers = (
{
layerId = m01;
shapes = (
{
closed = 1;
nodes = (
(50,150,ls),
(50,67,o),
(117,0,o),
(200,0,cs),
(283,0,o),
(350,67,o),
(350,150,cs),
(350,650,ls),
(350,733,o),
(283,800,o),
(200,800,cs),
(117,800,o),
(50,733,o),
(50,650,cs)
);
},
{
closed = 1;
nodes = (
(126,855,o),
(134,853,o),
(144,859,cs),
(274,937,ls),
(284,943,o),
(286,951,o),
(280,961,cs),
(274,971,o),
(266,973,o),
(255,967,cs),
(126,889,ls),
(116,883,o),
(114,875,o),
(119,866,cs)
);
},
{
closed = 1;
nodes = (
(150,550,ls),
(150,578,o),
(172,600,o),
(200,600,cs),
(228,600,o),
(250,578,o),
(250,550,cs),
(250,250,ls),
(250,222,o),
(228,200,o),
(200,200,cs),
(172,200,o),
(150,222,o),
(150,250,cs)
);
}
);
width = 400;
}
);
unicode = (211,243);
},
{
glyphname = Obreve;
lastChange = "2023-02-26 17:00:22 +0000";
layers = (
{
layerId = m01;
shapes = (
{
closed = 1;
nodes = (
(50,150,ls),
(50,67,o),
(117,0,o),
(200,0,cs),
(283,0,o),
(350,67,o),
(350,150,cs),
(350,650,ls),
(350,733,o),
(283,800,o),
(200,800,cs),
(117,800,o),
(50,733,o),
(50,650,cs)
);
},
{
closed = 1;
nodes = (
(146,864,o),
(173,851,o),
(200,850,cs),
(228,850,o),
(255,863,o),
(281,890,cs),
(289,898,o),
(289,907,o),
(281,915,cs),
(272,923,o),
(264,923,o),
(255,914,cs),
(236,895,o),
(218,885,o),
(200,885,cs),
(182,885,o),
(164,895,o),
(144,915,cs),
(135,923,o),
(127,923,o),
(119,915,cs),
(110,906,o),
(110,898,o),
(119,890,cs)
);
},
{
closed = 1;
nodes = (
(150,550,ls),
(150,578,o),
(172,600,o),
(200,600,cs),
(228,600,o),
(250,578,o),
(250,550,cs),
(250,250,ls),
(250,222,o),
(228,200,o),
(200,200,cs),
(172,200,o),
(150,222,o),
(150,250,cs)
);
}
);
width = 404;
}
);
unicode = (334,335);
},
{
glyphname = Ocircumflex;
lastChange = "2023-02-26 17:00:22 +0000";
layers = (
{
layerId = m01;
shapes = (
{
closed = 1;
nodes = (
(50,150,ls),
(50,67,o),
(117,0,o),
(200,0,cs),
(283,0,o),
(350,67,o),
(350,150,cs),
(350,650,ls),
(350,733,o),
(283,800,o),
(200,800,cs),
(117,800,o),
(50,733,o),
(50,650,cs)
);
},
{
closed = 1;
nodes = (
(116,849,o),
(125,847,o),
(133,854,cs),
(200,908,l),
(268,855,ls),
(276,849,o),
(284,850,o),
(292,857,c),
(299,867,o),
(298,875,o),
(288,883,cs),
(200,951,l),
(111,882,ls),
(101,875,o),
(101,866,o),
(108,857,cs)
);
},
{
closed = 1;
nodes = (
(150,550,ls),
(150,578,o),
(172,600,o),
(200,600,cs),
(228,600,o),
(250,578,o),
(250,550,cs),
(250,250,ls),
(250,222,o),
(228,200,o),
(200,200,cs),
(172,200,o),
(150,222,o),
(150,250,cs)
);
}
);
width = 400;
}
);
unicode = (212,244);
},
{
glyphname = Odieresis;
lastChange = "2023-02-26 17:00:22 +0000";
layers = (
{
layerId = m01;
shapes = (
{
closed = 1;
nodes = (
(50,150,ls),
(50,67,o),
(117,0,o),
(200,0,cs),
(283,0,o),
(350,67,o),
(350,150,cs),
(350,650,ls),
(350,733,o),
(283,800,o),
(200,800,cs),
(117,800,o),
(50,733,o),
(50,650,cs)
);
},
{
closed = 1;
nodes = (
(100,896,o),
(103,885,o),
(111,877,cs),
(118,868,o),
(128,863,o),
(139,863,cs),
(150,863,o),
(159,868,o),
(167,877,cs),
(175,885,o),
(179,896,o),
(179,909,cs),
(179,923,o),
(175,934,o),
(167,943,cs),
(159,952,o),
(150,957,o),
(139,957,cs),
(128,957,o),
(118,952,o),
(111,943,cs),
(103,934,o),
(100,923,o),
(100,909,cs)
);
},
{
closed = 1;
nodes = (
(150,550,ls),
(150,578,o),
(172,600,o),
(200,600,cs),
(228,600,o),
(250,578,o),
(250,550,cs),
(250,250,ls),
(250,222,o),
(228,200,o),
(200,200,cs),
(172,200,o),
(150,222,o),
(150,250,cs)
);
},
{
closed = 1;
nodes = (
(221,896,o),
(225,885,o),
(232,877,cs),
(240,868,o),
(250,863,o),
(261,863,cs),
(272,863,o),
(281,868,o),
(289,877,cs),
(297,885,o),
(300,896,o),
(300,909,cs),
(300,923,o),
(297,934,o),
(289,943,cs),
(281,952,o),
(272,957,o),
(261,957,cs),
(250,957,o),
(240,952,o),
(232,943,cs),
(225,934,o),
(221,923,o),
(221,909,cs)
);
}
);
width = 400;
}
);
unicode = (214,246);
},
{
glyphname = Ograve;
lastChange = "2023-02-26 17:00:22 +0000";
layers = (
{
layerId = m01;
shapes = (
{
closed = 1;
nodes = (
(50,150,ls),
(50,67,o),
(117,0,o),
(200,0,cs),
(283,0,o),
(350,67,o),
(350,150,cs),
(350,650,ls),
(350,733,o),
(283,800,o),
(200,800,cs),
(117,800,o),
(50,733,o),
(50,650,cs)
);
},
{
closed = 1;
nodes = (
(114,951,o),
(116,943,o),
(126,937,cs),
(256,859,ls),
(266,853,o),
(274,855,o),
(281,866,cs),
(286,875,o),
(284,883,o),
(274,889,cs),
(145,967,ls),
(134,973,o),
(126,971,o),
(120,961,cs)
);
},
{
closed = 1;
nodes = (
(150,550,ls),
(150,578,o),
(172,600,o),
(200,600,cs),
(228,600,o),
(250,578,o),
(250,550,cs),
(250,250,ls),
(250,222,o),
(228,200,o),
(200,200,cs),
(172,200,o),
(150,222,o),
(150,250,cs)
);
}
);
width = 400;
}
);
unicode = (210,242);
},
{
glyphname = Omacron;
lastChange = "2023-02-26 17:00:22 +0000";
layers = (
{
layerId = m01;
shapes = (
{
closed = 1;
nodes = (
(50,150,ls),
(50,67,o),
(117,0,o),
(200,0,cs),
(283,0,o),
(350,67,o),
(350,150,cs),
(350,650,ls),
(350,733,o),
(283,800,o),
(200,800,cs),
(117,800,o),
(50,733,o),
(50,650,cs)
);
},
{
closed = 1;
nodes = (
(80,876,o),
(86,870,o),
(98,870,cs),
(302,869,ls),
(314,869,o),
(320,875,o),
(320,887,cs),
(320,899,o),
(314,906,o),
(302,906,cs),
(98,906,ls),
(86,906,o),
(80,901,o),
(80,889,cs)
);
},
{
closed = 1;
nodes = (
(150,550,ls),
(150,578,o),
(172,600,o),
(200,600,cs),
(228,600,o),
(250,578,o),
(250,550,cs),
(250,250,ls),
(250,222,o),
(228,200,o),
(200,200,cs),
(172,200,o),
(150,222,o),
(150,250,cs)
);
}
);
width = 400;
}
);
unicode = (332,333);
},
{
glyphname = Oslash;
lastChange = "2023-02-26 17:00:22 +0000";
layers = (
{
layerId = m01;
shapes = (
{
closed = 1;
nodes = (
(66,82,l),
(91,33,o),
(141,0,o),
(200,0,cs),
(283,0,o),
(350,67,o),
(350,150,cs),
(350,650,ls),
(350,656,o),
(350,662,o),
(349,668,c),
(397,767,ls),
(402,777,o),
(399,785,o),
(389,790,cs),
(378,796,o),
(370,793,o),
(365,783,cs),
(334,718,l),
(309,767,o),
(258,800,o),
(200,800,cs),
(117,800,o),
(50,733,o),
(50,650,cs),
(50,150,ls),
(50,144,o),
(50,138,o),
(51,132,c),
(3,33,ls),
(-2,23,o),
(1,15,o),
(11,11,cs),
(22,5,o),
(30,8,o),
(35,18,cs)
);
},
{
closed = 1;
nodes = (
(150,256,l),
(250,463,l),
(250,250,ls),
(250,222,o),
(228,200,o),
(200,200,cs),
(172,200,o),
(150,222,o),
(150,250,cs)
);
},
{
closed = 1;
nodes = (
(150,550,ls),
(150,578,o),
(172,600,o),
(200,600,cs),
(228,600,o),
(250,578,o),
(250,550,cs),
(250,545,l),
(150,338,l)
);
}
);
width = 400;
}
);
unicode = 216;
},
{
glyphname = Otilde;
lastChange = "2023-02-26 17:00:22 +0000";
layers = (
{
background = {
shapes = (
{
closed = 1;
nodes = (
(274,927,ls),
(284,933,o),
(286,941,o),
(280,951,cs),
(274,961,o),
(266,963,o),
(255,957,cs),
(126,879,ls),
(116,873,o),
(114,865,o),
(119,856,cs),
(126,845,o),
(134,843,o),
(144,849,cs)
);
},
{
closed = 1;
nodes = (
(107,790,l),
(306,790,l),
(306,840,l),
(107,840,l)
);
},
{
closed = 1;
nodes = (
(50,1017,l),
(350,1017,l),
(350,1130,l),
(50,1130,l)
);
},
{
closed = 1;
nodes = (
(116,960,l),
(283,960,l),
(283,1049,l),
(116,1049,l)
);
}
);
};
layerId = m01;
shapes = (
{
closed = 1;
nodes = (
(50,150,ls),
(50,67,o),
(117,0,o),
(200,0,cs),
(283,0,o),
(350,67,o),
(350,150,cs),
(350,650,ls),
(350,733,o),
(283,800,o),
(200,800,cs),
(117,800,o),
(50,733,o),
(50,650,cs)
);
},
{
closed = 1;
nodes = (
(30,889,o),
(31,880,o),
(40,872,cs),
(50,864,o),
(58,866,o),
(66,876,cs),
(77,890,o),
(87,903,o),
(97,913,cs),
(106,924,o),
(116,931,o),
(124,933,c),
(139,939,o),
(158,926,o),
(180,896,cs),
(196,873,o),
(215,859,o),
(235,853,cs),
(248,848,o),
(261,848,o),
(275,852,cs),
(287,854,o),
(298,859,o),
(310,868,cs),
(335,887,o),
(353,913,o),
(363,946,cs),
(366,957,o),
(362,964,o),
(350,969,c),
(339,971,o),
(332,967,o),
(328,955,cs),
(321,931,o),
(307,911,o),
(288,897,cs),
(280,892,o),
(273,888,o),
(266,886,cs),
(260,885,o),
(253,885,o),
(246,887,cs),
(233,890,o),
(221,900,o),
(209,917,cs),
(176,961,o),
(144,978,o),
(113,968,cs),
(99,963,o),
(86,955,o),
(74,942,cs),
(62,929,o),
(50,915,o),
(37,898,cs)
);
},
{
closed = 1;
nodes = (
(150,550,ls),
(150,578,o),
(172,600,o),
(200,600,cs),
(228,600,o),
(250,578,o),
(250,550,cs),
(250,250,ls),
(250,222,o),
(228,200,o),
(200,200,cs),
(172,200,o),
(150,222,o),
(150,250,cs)
);
}
);
width = 400;
}
);
unicode = 213;
},
{
glyphname = OE;
lastChange = "2023-02-26 17:00:22 +0000";
layers = (
{
layerId = m01;
shapes = (
{
closed = 1;
nodes = (
(528,0,o),
(550,22,o),
(550,50,cs),
(550,150,ls),
(550,178,o),
(528,200,o),
(500,200,cs),
(350,200,l),
(350,300,l),
(400,300,ls),
(428,300,o),
(450,322,o),
(450,350,cs),
(450,450,ls),
(450,478,o),
(428,500,o),
(400,500,cs),
(350,500,l),
(350,600,l),
(500,600,ls),
(528,600,o),
(550,622,o),
(550,650,cs),
(550,750,ls),
(550,778,o),
(528,800,o),
(500,800,cs),
(300,800,ls),
(286,800,o),
(274,795,o),
(265,786,c),
(245,795,o),
(223,800,o),
(200,800,cs),
(117,800,o),
(50,733,o),
(50,650,cs),
(50,150,ls),
(50,67,o),
(117,0,o),
(200,0,cs),
(223,0,o),
(245,5,o),
(265,14,c),
(274,5,o),
(286,0,o),
(300,0,cs),
(500,0,ls)
);
},
{
closed = 1;
nodes = (
(150,550,ls),
(150,578,o),
(172,600,o),
(200,600,cs),
(228,600,o),
(250,578,o),
(250,550,cs),
(250,250,ls),
(250,222,o),
(228,200,o),
(200,200,cs),
(172,200,o),
(150,222,o),
(150,250,cs)
);
}
);
width = 600;
}
);
unicode = 338;
},
{
glyphname = P;
lastChange = "2023-02-26 17:00:22 +0000";
layers = (
{
layerId = m01;
shapes = (
{
closed = 1;
nodes = (
(128,0,o),
(150,22,o),
(150,50,cs),
(150,250,ls),
(150,278,o),
(172,300,o),
(200,300,cs),
(283,300,o),
(350,367,o),
(350,450,cs),
(350,650,ls),
(350,733,o),
(283,800,o),
(200,800,cs),
(100,800,ls),
(72,800,o),
(50,778,o),
(50,750,cs),
(50,50,ls),
(50,22,o),
(72,0,o),
(100,0,cs)
);
},
{
closed = 1;
nodes = (
(150,578,o),
(172,600,o),
(200,600,cs),
(228,600,o),
(250,578,o),
(250,550,cs),
(250,522,o),
(228,500,o),
(200,500,cs),
(172,500,o),
(150,522,o),
(150,550,cs)
);
}
);
width = 400;
}
);
unicode = (80,112);
},
{
glyphname = Q;
lastChange = "2023-02-26 17:00:22 +0000";
layers = (
{
guides = (
{
angle = 90;
pos = (199,-71);
}
);
layerId = m01;
shapes = (
{
closed = 1;
nodes = (
(50,250,ls),
(50,175,o),
(105,113,o),
(177,102,c),
(265,14,ls),
(285,-6,o),
(318,-5,o),
(338,17,cs),
(353,33,o),
(355,59,o),
(341,79,cs),
(336,86,o),
(335,86,o),
(297,124,cs),
(295,126,o),
(293,128,o),
(291,130,cs),
(280,141,ls),
(272,149,o),
(266,158,o),
(266,169,cs),
(266,183,o),
(276,196,o),
(290,199,cs),
(293,200,o),
(297,200,o),
(300,200,cs),
(328,200,o),
(350,222,o),
(350,250,cs),
(350,650,ls),
(350,733,o),
(283,800,o),
(200,800,cs),
(117,800,o),
(50,733,o),
(50,650,cs)
);
},
{
closed = 1;
nodes = (
(150,550,ls),
(150,578,o),
(172,600,o),
(200,600,cs),
(228,600,o),
(250,578,o),
(250,550,cs),
(250,350,ls),
(250,322,o),
(228,300,o),
(200,300,cs),
(172,300,o),
(150,322,o),
(150,350,cs)
);
},
{
closed = 1;
nodes = (
(216,197,o),
(218,197,o),
(220,196,c),
(214,198,l)
);
}
);
width = 400;
}
);
unicode = (81,113);
},
{
glyphname = R;
lastChange = "2023-02-26 17:00:22 +0000";
layers = (
{
background = {
shapes = (
{
closed = 1;
nodes = (
(128,690,o),
(150,712,o),
(150,740,cs),
(150,768,o),
(128,790,o),
(100,790,cs),
(72,790,o),
(50,768,o),
(50,740,cs),
(50,712,o),
(72,690,o),
(100,690,cs)
);
},
{
closed = 1;
nodes = (
(228,690,o),
(250,712,o),
(250,740,cs),
(250,768,o),
(228,790,o),
(200,790,cs),
(172,790,o),
(150,768,o),
(150,740,cs),
(150,712,o),
(172,690,o),
(200,690,cs)
);
},
{
closed = 1;
nodes = (
(328,690,o),
(350,712,o),
(350,740,cs),
(350,768,o),
(328,790,o),
(300,790,cs),
(272,790,o),
(250,768,o),
(250,740,cs),
(250,712,o),
(272,690,o),
(300,690,cs)
);
},
{
closed = 1;
nodes = (
(128,590,o),
(150,612,o),
(150,640,cs),
(150,668,o),
(128,690,o),
(100,690,cs),
(72,690,o),
(50,668,o),
(50,640,cs),
(50,612,o),
(72,590,o),
(100,590,cs)
);
},
{
closed = 1;
nodes = (
(228,590,o),
(250,612,o),
(250,640,cs),
(250,668,o),
(228,690,o),
(200,690,cs),
(172,690,o),
(150,668,o),
(150,640,cs),
(150,612,o),
(172,590,o),
(200,590,cs)
);
},
{
closed = 1;
nodes = (
(328,590,o),
(350,612,o),
(350,640,cs),
(350,668,o),
(328,690,o),
(300,690,cs),
(272,690,o),
(250,668,o),
(250,640,cs),
(250,612,o),
(272,590,o),
(300,590,cs)
);
},
{
closed = 1;
nodes = (
(128,490,o),
(150,512,o),
(150,540,cs),
(150,568,o),
(128,590,o),
(100,590,cs),
(72,590,o),
(50,568,o),
(50,540,cs),
(50,512,o),
(72,490,o),
(100,490,cs)
);
},
{
closed = 1;
nodes = (
(228,490,o),
(250,512,o),
(250,540,cs),
(250,568,o),
(228,590,o),
(200,590,cs),
(172,590,o),
(150,568,o),
(150,540,cs),
(150,512,o),
(172,490,o),
(200,490,cs)
);
},
{
closed = 1;
nodes = (
(328,490,o),
(350,512,o),
(350,540,cs),
(350,568,o),
(328,590,o),
(300,590,cs),
(272,590,o),
(250,568,o),
(250,540,cs),
(250,512,o),
(272,490,o),
(300,490,cs)
);
},
{
closed = 1;
nodes = (
(128,390,o),
(150,412,o),
(150,440,cs),
(150,468,o),
(128,490,o),
(100,490,cs),
(72,490,o),
(50,468,o),
(50,440,cs),
(50,412,o),
(72,390,o),
(100,390,cs)
);
},
{
closed = 1;
nodes = (
(228,390,o),
(250,412,o),
(250,440,cs),
(250,468,o),
(228,490,o),
(200,490,cs),
(172,490,o),
(150,468,o),
(150,440,cs),
(150,412,o),
(172,390,o),
(200,390,cs)
);
},
{
closed = 1;
nodes = (
(328,390,o),
(350,412,o),
(350,440,cs),
(350,468,o),
(328,490,o),
(300,490,cs),
(272,490,o),
(250,468,o),
(250,440,cs),
(250,412,o),
(272,390,o),
(300,390,cs)
);
},
{
closed = 1;
nodes = (
(128,290,o),
(150,312,o),
(150,340,cs),
(150,368,o),
(128,390,o),
(100,390,cs),
(72,390,o),
(50,368,o),
(50,340,cs),
(50,312,o),
(72,290,o),
(100,290,cs)
);
},
{
closed = 1;
nodes = (
(228,290,o),
(250,312,o),
(250,340,cs),
(250,368,o),
(228,390,o),
(200,390,cs),
(172,390,o),
(150,368,o),
(150,340,cs),
(150,312,o),
(172,290,o),
(200,290,cs)
);
},
{
closed = 1;
nodes = (
(328,290,o),
(350,312,o),
(350,340,cs),
(350,368,o),
(328,390,o),
(300,390,cs),
(272,390,o),
(250,368,o),
(250,340,cs),
(250,312,o),
(272,290,o),
(300,290,cs)
);
},
{
closed = 1;
nodes = (
(128,190,o),
(150,212,o),
(150,240,cs),
(150,268,o),
(128,290,o),
(100,290,cs),
(72,290,o),
(50,268,o),
(50,240,cs),
(50,212,o),
(72,190,o),
(100,190,cs)
);
},
{
closed = 1;
nodes = (
(228,190,o),
(250,212,o),
(250,240,cs),
(250,268,o),
(228,290,o),
(200,290,cs),
(172,290,o),
(150,268,o),
(150,240,cs),
(150,212,o),
(172,190,o),
(200,190,cs)
);
},
{
closed = 1;
nodes = (
(328,190,o),
(350,212,o),
(350,240,cs),
(350,268,o),
(328,290,o),
(300,290,cs),
(272,290,o),
(250,268,o),
(250,240,cs),
(250,212,o),
(272,190,o),
(300,190,cs)
);
},
{
closed = 1;
nodes = (
(128,90,o),
(150,112,o),
(150,140,cs),
(150,168,o),
(128,190,o),
(100,190,cs),
(72,190,o),
(50,169,o),
(50,140,cs),
(50,112,o),
(72,90,o),
(100,90,cs)
);
},
{
closed = 1;
nodes = (
(228,90,o),
(250,112,o),
(250,140,cs),
(250,168,o),
(228,190,o),
(200,190,cs),
(172,190,o),
(150,168,o),
(150,140,cs),
(150,112,o),
(172,90,o),
(200,90,cs)
);
},
{
closed = 1;
nodes = (
(328,90,o),
(350,112,o),
(350,140,cs),
(350,168,o),
(328,190,o),
(300,190,cs),
(272,190,o),
(250,168,o),
(250,140,cs),
(250,112,o),
(272,90,o),
(300,90,cs)
);
},
{
closed = 1;
nodes = (
(128,-10,o),
(150,12,o),
(150,40,cs),
(150,68,o),
(128,90,o),
(100,90,cs),
(72,90,o),
(50,68,o),
(50,40,cs),
(50,12,o),
(72,-10,o),
(100,-10,cs)
);
},
{
closed = 1;
nodes = (
(228,-10,o),
(250,12,o),
(250,40,cs),
(250,68,o),
(228,90,o),
(200,90,cs),
(172,90,o),
(150,68,o),
(150,40,cs),
(150,12,o),
(172,-10,o),
(200,-10,cs)
);
},
{
closed = 1;
nodes = (
(328,-10,o),
(350,12,o),
(350,40,cs),
(350,68,o),
(328,90,o),
(300,90,cs),
(272,90,o),
(250,68,o),
(250,40,cs),
(250,12,o),
(272,-10,o),
(300,-10,cs)
);
}
);
};
layerId = m01;
shapes = (
{
closed = 1;
nodes = (
(128,0,o),
(150,22,o),
(150,50,cs),
(150,264,ls),
(150,282,o),
(150,296,o),
(158,296,cs),
(166,296,o),
(171,278,o),
(175,265,cs),
(251,34,ls),
(260,7,o),
(290,-7,o),
(315,3,cs),
(342,12,o),
(356,41,o),
(348,66,cs),
(264,314,l),
(315,339,o),
(350,390,o),
(350,450,cs),
(350,650,ls),
(350,733,o),
(283,800,o),
(200,800,cs),
(100,800,ls),
(72,800,o),
(50,778,o),
(50,750,cs),
(50,50,ls),
(50,22,o),
(72,0,o),
(100,0,cs)
);
},
{
closed = 1;
nodes = (
(150,578,o),
(172,600,o),
(200,600,cs),
(228,600,o),
(250,578,o),
(250,550,cs),
(250,522,o),
(228,500,o),
(200,500,cs),
(172,500,o),
(150,522,o),
(150,550,cs)
);
}
);
width = 400;
}
);
unicode = (82,114);
},
{
glyphname = Racute;
lastChange = "2023-02-26 17:00:22 +0000";
layers = (
{
layerId = m01;
shapes = (
{
closed = 1;
nodes = (
(128,0,o),
(150,22,o),
(150,50,cs),
(150,264,ls),
(150,282,o),
(150,296,o),
(158,296,cs),
(166,296,o),
(171,278,o),
(175,265,cs),
(251,34,ls),
(260,7,o),
(290,-7,o),
(315,3,cs),
(342,12,o),
(356,41,o),
(348,66,cs),
(264,314,l),
(315,339,o),
(350,390,o),
(350,450,cs),
(350,650,ls),
(350,733,o),
(283,800,o),
(200,800,cs),
(100,800,ls),
(72,800,o),
(50,778,o),
(50,750,cs),
(50,50,ls),
(50,22,o),
(72,0,o),
(100,0,cs)
);
},
{
closed = 1;
nodes = (
(126,855,o),
(134,853,o),
(144,859,cs),
(274,937,ls),
(284,943,o),
(286,951,o),
(280,961,cs),
(274,971,o),
(266,973,o),
(255,967,cs),
(126,889,ls),
(116,883,o),
(114,875,o),
(119,866,cs)
);
},
{
closed = 1;
nodes = (
(150,578,o),
(172,600,o),
(200,600,cs),
(228,600,o),
(250,578,o),
(250,550,cs),
(250,522,o),
(228,500,o),
(200,500,cs),
(172,500,o),
(150,522,o),
(150,550,cs)
);
}
);
width = 400;
}
);
unicode = (340,341);
},
{
glyphname = Rcaron;
lastChange = "2023-02-26 17:00:22 +0000";
layers = (
{
layerId = m01;
shapes = (
{
closed = 1;
nodes = (
(128,0,o),
(150,22,o),
(150,50,cs),
(150,264,ls),
(150,282,o),
(150,296,o),
(158,296,cs),
(166,296,o),
(171,278,o),
(175,265,cs),
(251,34,ls),
(260,7,o),
(290,-7,o),
(315,3,cs),
(342,12,o),
(356,41,o),
(348,66,cs),
(264,314,l),
(315,339,o),
(350,390,o),
(350,450,cs),
(350,650,ls),
(350,733,o),
(283,800,o),
(200,800,cs),
(100,800,ls),
(72,800,o),
(50,778,o),
(50,750,cs),
(50,50,ls),
(50,22,o),
(72,0,o),
(100,0,cs)
);
},
{
closed = 1;
nodes = (
(114,930,o),
(114,921,o),
(124,914,cs),
(213,845,l),
(301,913,ls),
(311,921,o),
(312,929,o),
(305,939,c),
(297,946,o),
(289,947,o),
(281,941,cs),
(213,888,l),
(146,942,ls),
(138,949,o),
(129,947,o),
(121,939,cs)
);
},
{
closed = 1;
nodes = (
(150,578,o),
(172,600,o),
(200,600,cs),
(228,600,o),
(250,578,o),
(250,550,cs),
(250,522,o),
(228,500,o),
(200,500,cs),
(172,500,o),
(150,522,o),
(150,550,cs)
);
}
);
width = 413;
}
);
unicode = (344,345);
},
{
glyphname = S;
lastChange = "2023-02-26 17:00:22 +0000";
layers = (
{
guides = (
{
angle = 126.7901;
pos = (1146,395);
},
{
angle = 126.7901;
pos = (1242,401);
}
);
layerId = m01;
shapes = (
{
closed = 1;
nodes = (
(117,800,o),
(50,733,o),
(50,650,cs),
(50,555,ls),
(50,546,o),
(50,535,o),
(56,527,cs),
(240,253,l),
(244,245,o),
(244,242,o),
(244,239,cs),
(244,219,o),
(223,201,o),
(200,201,cs),
(172,201,o),
(150,223,o),
(150,251,cs),
(150,250,ls),
(150,278,o),
(128,300,o),
(100,300,cs),
(72,300,o),
(50,278,o),
(50,250,cs),
(50,150,l),
(50,149,ls),
(51,67,o),
(118,1,o),
(200,1,cs),
(283,1,o),
(350,68,o),
(350,151,cs),
(350,246,ls),
(350,255,o),
(349,266,o),
(344,274,cs),
(160,548,l),
(156,556,o),
(156,559,o),
(156,562,cs),
(156,582,o),
(177,600,o),
(200,600,cs),
(228,600,o),
(250,578,o),
(250,550,cs),
(250,522,o),
(272,500,o),
(300,500,cs),
(328,500,o),
(350,522,o),
(350,550,cs),
(350,650,ls),
(350,733,o),
(283,800,o),
(200,800,cs)
);
}
);
width = 400;
}
);
unicode = (83,115);
},
{
glyphname = Sacute;
lastChange = "2023-02-26 17:00:22 +0000";
layers = (
{
layerId = m01;
shapes = (
{
closed = 1;
nodes = (
(117,800,o),
(50,733,o),
(50,650,cs),
(50,555,ls),
(50,546,o),
(50,535,o),
(56,527,cs),
(240,253,l),
(244,245,o),
(244,242,o),
(244,239,cs),
(244,219,o),
(223,201,o),
(200,201,cs),
(172,201,o),
(150,223,o),
(150,251,cs),
(150,250,ls),
(150,278,o),
(128,300,o),
(100,300,cs),
(72,300,o),
(50,278,o),
(50,250,cs),
(50,150,l),
(50,149,ls),
(51,67,o),
(118,1,o),
(200,1,cs),
(283,1,o),
(350,68,o),
(350,151,cs),
(350,246,ls),
(350,255,o),
(349,266,o),
(344,274,cs),
(160,548,l),
(156,556,o),
(156,559,o),
(156,562,cs),
(156,582,o),
(177,600,o),
(200,600,cs),
(228,600,o),
(250,578,o),
(250,550,cs),
(250,522,o),
(272,500,o),
(300,500,cs),
(328,500,o),
(350,522,o),
(350,550,cs),
(350,650,ls),
(350,733,o),
(283,800,o),
(200,800,cs)
);
},
{
closed = 1;
nodes = (
(126,855,o),
(134,853,o),
(144,859,cs),
(274,937,ls),
(284,943,o),
(286,951,o),
(280,961,cs),
(274,971,o),
(266,973,o),
(255,967,cs),
(126,889,ls),
(116,883,o),
(114,875,o),
(119,866,cs)
);
}
);
width = 400;
}
);
unicode = 346;
},
{
glyphname = Scaron;
lastChange = "2023-02-26 17:00:22 +0000";
layers = (
{
layerId = m01;
shapes = (
{
closed = 1;
nodes = (
(117,800,o),
(50,733,o),
(50,650,cs),
(50,555,ls),
(50,546,o),
(50,535,o),
(56,527,cs),
(240,253,l),
(244,245,o),
(244,242,o),
(244,239,cs),
(244,219,o),
(223,201,o),
(200,201,cs),
(172,201,o),
(150,223,o),
(150,251,cs),
(150,250,ls),
(150,278,o),
(128,300,o),
(100,300,cs),
(72,300,o),
(50,278,o),
(50,250,cs),
(50,150,l),
(50,149,ls),
(51,67,o),
(118,1,o),
(200,1,cs),
(283,1,o),
(350,68,o),
(350,151,cs),
(350,246,ls),
(350,255,o),
(349,266,o),
(344,274,cs),
(160,548,l),
(156,556,o),
(156,559,o),
(156,562,cs),
(156,582,o),
(177,600,o),
(200,600,cs),
(228,600,o),
(250,578,o),
(250,550,cs),
(250,522,o),
(272,500,o),
(300,500,cs),
(328,500,o),
(350,522,o),
(350,550,cs),
(350,650,ls),
(350,733,o),
(283,800,o),
(200,800,cs)
);
},
{
closed = 1;
nodes = (
(114,930,o),
(114,921,o),
(124,914,cs),
(213,845,l),
(301,913,ls),
(311,921,o),
(312,929,o),
(305,939,c),
(297,946,o),
(289,947,o),
(281,941,cs),
(213,888,l),
(146,942,ls),
(138,949,o),
(129,947,o),
(121,939,cs)
);
}
);
width = 413;
}
);
unicode = 352;
},
{
glyphname = Scedilla;
lastChange = "2023-02-26 17:00:22 +0000";
layers = (
{
layerId = m01;
shapes = (
{
closed = 1;
nodes = (
(117,800,o),
(50,733,o),
(50,650,cs),
(50,555,ls),
(50,546,o),
(50,535,o),
(56,527,cs),
(240,253,l),
(244,245,o),
(244,242,o),
(244,239,cs),
(244,219,o),
(223,201,o),
(200,201,cs),
(172,201,o),
(150,223,o),
(150,251,cs),
(150,250,ls),
(150,278,o),
(128,300,o),
(100,300,cs),
(72,300,o),
(50,278,o),
(50,250,cs),
(50,150,l),
(50,149,ls),
(51,73,o),
(108,11,o),
(182,2,c),
(178,-10,o),
(174,-22,o),
(170,-32,cs),
(166,-45,o),
(165,-55,o),
(170,-63,cs),
(178,-73,o),
(186,-77,o),
(194,-77,cs),
(202,-76,o),
(214,-73,o),
(228,-67,c),
(240,-71,o),
(241,-86,o),
(232,-112,cs),
(221,-141,o),
(200,-179,o),
(167,-226,c),
(162,-235,o),
(164,-243,o),
(173,-251,c),
(183,-257,o),
(191,-255,o),
(199,-245,cs),
(232,-196,o),
(254,-156,o),
(265,-125,cs),
(280,-85,o),
(279,-54,o),
(262,-32,cs),
(253,-19,o),
(239,-18,o),
(221,-29,cs),
(210,-36,l),
(213,-24,o),
(216,-11,o),
(221,2,c),
(294,13,o),
(350,75,o),
(350,151,cs),
(350,246,ls),
(350,255,o),
(349,266,o),
(344,274,cs),
(160,548,l),
(156,556,o),
(156,559,o),
(156,562,cs),
(156,582,o),
(177,600,o),
(200,600,cs),
(228,600,o),
(250,578,o),
(250,550,cs),
(250,522,o),
(272,500,o),
(300,500,cs),
(328,500,o),
(350,522,o),
(350,550,cs),
(350,650,ls),
(350,733,o),
(283,800,o),
(200,800,cs)
);
}
);
width = 400;
}
);
unicode = 350;
},
{
glyphname = Scircumflex;
lastChange = "2023-02-26 17:00:22 +0000";
layers = (
{
layerId = m01;
shapes = (
{
closed = 1;
nodes = (
(117,800,o),
(50,733,o),
(50,650,cs),
(50,555,ls),
(50,546,o),
(50,535,o),
(56,527,cs),
(240,253,l),
(244,245,o),
(244,242,o),
(244,239,cs),
(244,219,o),
(223,201,o),
(200,201,cs),
(172,201,o),
(150,223,o),
(150,251,cs),
(150,250,ls),
(150,278,o),
(128,300,o),
(100,300,cs),
(72,300,o),
(50,278,o),
(50,250,cs),
(50,150,l),
(50,149,ls),
(51,67,o),
(118,1,o),
(200,1,cs),
(283,1,o),
(350,68,o),
(350,151,cs),
(350,246,ls),
(350,255,o),
(349,266,o),
(344,274,cs),
(160,548,l),
(156,556,o),
(156,559,o),
(156,562,cs),
(156,582,o),
(177,600,o),
(200,600,cs),
(228,600,o),
(250,578,o),
(250,550,cs),
(250,522,o),
(272,500,o),
(300,500,cs),
(328,500,o),
(350,522,o),
(350,550,cs),
(350,650,ls),
(350,733,o),
(283,800,o),
(200,800,cs)
);
},
{
closed = 1;
nodes = (
(116,849,o),
(125,847,o),
(133,854,cs),
(200,908,l),
(268,855,ls),
(276,849,o),
(284,850,o),
(292,857,c),
(299,867,o),
(298,875,o),
(288,883,cs),
(200,951,l),
(111,882,ls),
(101,875,o),
(101,866,o),
(108,857,cs)
);
}
);
width = 400;
}
);
unicode = 348;
},
{
glyphname = T;
lastChange = "2023-02-26 17:00:22 +0000";
layers = (
{
layerId = m01;
shapes = (
{
closed = 1;
nodes = (
(228,0,o),
(250,22,o),
(250,50,cs),
(250,600,l),
(300,600,ls),
(328,600,o),
(350,622,o),
(350,650,cs),
(350,750,ls),
(350,778,o),
(328,800,o),
(300,800,cs),
(100,800,ls),
(72,800,o),
(50,778,o),
(50,750,cs),
(50,650,ls),
(50,622,o),
(72,600,o),
(100,600,cs),
(150,600,l),
(150,50,ls),
(150,22,o),
(172,0,o),
(200,0,cs)
);
}
);
width = 400;
}
);
unicode = (84,116);
},
{
glyphname = Tbar;
lastChange = "2023-02-26 17:00:22 +0000";
layers = (
{
guides = (
{
angle = 90;
pos = (325,490);
}
);
layerId = m01;
shapes = (
{
closed = 1;
nodes = (
(228,0,o),
(250,22,o),
(250,50,cs),
(250,363,l),
(307,363,ls),
(319,363,o),
(325,368,o),
(325,380,cs),
(325,393,o),
(319,400,o),
(307,400,cs),
(250,400,l),
(250,600,l),
(300,600,ls),
(328,600,o),
(350,622,o),
(350,650,cs),
(350,750,ls),
(350,778,o),
(328,800,o),
(300,800,cs),
(100,800,ls),
(72,800,o),
(50,778,o),
(50,750,cs),
(50,650,ls),
(50,622,o),
(72,600,o),
(100,600,cs),
(150,600,l),
(150,400,l),
(93,400,ls),
(81,400,o),
(75,394,o),
(75,383,cs),
(75,370,o),
(81,364,o),
(93,364,cs),
(150,364,l),
(150,50,ls),
(150,22,o),
(172,0,o),
(200,0,cs)
);
}
);
width = 400;
}
);
unicode = 358;
},
{
glyphname = Tcaron;
lastChange = "2023-02-26 17:00:22 +0000";
layers = (
{
layerId = m01;
shapes = (
{
closed = 1;
nodes = (
(228,0,o),
(250,22,o),
(250,50,cs),
(250,600,l),
(300,600,ls),
(328,600,o),
(350,622,o),
(350,650,cs),
(350,750,ls),
(350,778,o),
(328,800,o),
(300,800,cs),
(100,800,ls),
(72,800,o),
(50,778,o),
(50,750,cs),
(50,650,ls),
(50,622,o),
(72,600,o),
(100,600,cs),
(150,600,l),
(150,50,ls),
(150,22,o),
(172,0,o),
(200,0,cs)
);
},
{
closed = 1;
nodes = (
(114,930,o),
(114,921,o),
(124,914,cs),
(213,845,l),
(301,913,ls),
(311,921,o),
(312,929,o),
(305,939,c),
(297,946,o),
(289,947,o),
(281,941,cs),
(213,888,l),
(146,942,ls),
(138,949,o),
(129,947,o),
(121,939,cs)
);
}
);
width = 413;
}
);
unicode = (356,357);
},
{
glyphname = U;
lastChange = "2023-02-26 17:00:22 +0000";
layers = (
{
layerId = m01;
shapes = (
{
closed = 1;
nodes = (
(50,150,ls),
(50,67,o),
(117,0,o),
(200,0,cs),
(283,0,o),
(350,67,o),
(350,150,cs),
(350,750,ls),
(350,778,o),
(328,800,o),
(300,800,cs),
(272,800,o),
(250,778,o),
(250,750,cs),
(250,250,ls),
(250,222,o),
(228,200,o),
(200,200,cs),
(172,200,o),
(150,222,o),
(150,250,cs),
(150,750,ls),
(150,778,o),
(128,800,o),
(100,800,cs),
(72,800,o),
(50,778,o),
(50,750,cs)
);
}
);
width = 400;
}
);
unicode = (85,117);
},
{
glyphname = Uacute;
lastChange = "2023-02-26 17:00:22 +0000";
layers = (
{
layerId = m01;
shapes = (
{
closed = 1;
nodes = (
(50,150,ls),
(50,67,o),
(117,0,o),
(200,0,cs),
(283,0,o),
(350,67,o),
(350,150,cs),
(350,750,ls),
(350,778,o),
(328,800,o),
(300,800,cs),
(272,800,o),
(250,778,o),
(250,750,cs),
(250,250,ls),
(250,222,o),
(228,200,o),
(200,200,cs),
(172,200,o),
(150,222,o),
(150,250,cs),
(150,750,ls),
(150,778,o),
(128,800,o),
(100,800,cs),
(72,800,o),
(50,778,o),
(50,750,cs)
);
},
{
closed = 1;
nodes = (
(126,855,o),
(134,853,o),
(144,859,cs),
(274,937,ls),
(284,943,o),
(286,951,o),
(280,961,cs),
(274,971,o),
(266,973,o),
(255,967,cs),
(126,889,ls),
(116,883,o),
(114,875,o),
(119,866,cs)
);
}
);
width = 400;
}
);
unicode = (218,250);
},
{
glyphname = Ubreve;
lastChange = "2023-02-26 17:00:22 +0000";
layers = (
{
layerId = m01;
shapes = (
{
closed = 1;
nodes = (
(50,150,ls),
(50,67,o),
(117,0,o),
(200,0,cs),
(283,0,o),
(350,67,o),
(350,150,cs),
(350,750,ls),
(350,778,o),
(328,800,o),
(300,800,cs),
(272,800,o),
(250,778,o),
(250,750,cs),
(250,250,ls),
(250,222,o),
(228,200,o),
(200,200,cs),
(172,200,o),
(150,222,o),
(150,250,cs),
(150,750,ls),
(150,778,o),
(128,800,o),
(100,800,cs),
(72,800,o),
(50,778,o),
(50,750,cs)
);
},
{
closed = 1;
nodes = (
(146,864,o),
(173,851,o),
(200,850,cs),
(228,850,o),
(255,863,o),
(281,890,cs),
(289,898,o),
(289,907,o),
(281,915,cs),
(272,923,o),
(264,923,o),
(255,914,cs),
(236,895,o),
(218,885,o),
(200,885,cs),
(182,885,o),
(164,895,o),
(144,915,cs),
(135,923,o),
(127,923,o),
(119,915,cs),
(110,906,o),
(110,898,o),
(119,890,cs)
);
}
);
width = 404;
}
);
unicode = (364,365);
},
{
glyphname = Ucircumflex;
lastChange = "2023-02-26 17:00:22 +0000";
layers = (
{
layerId = m01;
shapes = (
{
closed = 1;
nodes = (
(50,150,ls),
(50,67,o),
(117,0,o),
(200,0,cs),
(283,0,o),
(350,67,o),
(350,150,cs),
(350,750,ls),
(350,778,o),
(328,800,o),
(300,800,cs),
(272,800,o),
(250,778,o),
(250,750,cs),
(250,250,ls),
(250,222,o),
(228,200,o),
(200,200,cs),
(172,200,o),
(150,222,o),
(150,250,cs),
(150,750,ls),
(150,778,o),
(128,800,o),
(100,800,cs),
(72,800,o),
(50,778,o),
(50,750,cs)
);
},
{
closed = 1;
nodes = (
(116,849,o),
(125,847,o),
(133,854,cs),
(200,908,l),
(268,855,ls),
(276,849,o),
(284,850,o),
(292,857,c),
(299,867,o),
(298,875,o),
(288,883,cs),
(200,951,l),
(111,882,ls),
(101,875,o),
(101,866,o),
(108,857,cs)
);
}
);
width = 400;
}
);
unicode = (219,251);
},
{
glyphname = Udieresis;
lastChange = "2023-02-26 17:00:22 +0000";
layers = (
{
layerId = m01;
shapes = (
{
closed = 1;
nodes = (
(50,150,ls),
(50,67,o),
(117,0,o),
(200,0,cs),
(283,0,o),
(350,67,o),
(350,150,cs),
(350,750,ls),
(350,778,o),
(328,800,o),
(300,800,cs),
(272,800,o),
(250,778,o),
(250,750,cs),
(250,250,ls),
(250,222,o),
(228,200,o),
(200,200,cs),
(172,200,o),
(150,222,o),
(150,250,cs),
(150,750,ls),
(150,778,o),
(128,800,o),
(100,800,cs),
(72,800,o),
(50,778,o),
(50,750,cs)
);
},
{
closed = 1;
nodes = (
(100,896,o),
(103,885,o),
(111,877,cs),
(118,868,o),
(128,863,o),
(139,863,cs),
(150,863,o),
(159,868,o),
(167,877,cs),
(175,885,o),
(179,896,o),
(179,909,cs),
(179,923,o),
(175,934,o),
(167,943,cs),
(159,952,o),
(150,957,o),
(139,957,cs),
(128,957,o),
(118,952,o),
(111,943,cs),
(103,934,o),
(100,923,o),
(100,909,cs)
);
},
{
closed = 1;
nodes = (
(221,896,o),
(225,885,o),
(232,877,cs),
(240,868,o),
(250,863,o),
(261,863,cs),
(272,863,o),
(281,868,o),
(289,877,cs),
(297,885,o),
(300,896,o),
(300,909,cs),
(300,923,o),
(297,934,o),
(289,943,cs),
(281,952,o),
(272,957,o),
(261,957,cs),
(250,957,o),
(240,952,o),
(232,943,cs),
(225,934,o),
(221,923,o),
(221,909,cs)
);
}
);
width = 400;
}
);
unicode = (220,252);
},
{
glyphname = Ugrave;
lastChange = "2023-02-26 17:00:22 +0000";
layers = (
{
layerId = m01;
shapes = (
{
closed = 1;
nodes = (
(50,150,ls),
(50,67,o),
(117,0,o),
(200,0,cs),
(283,0,o),
(350,67,o),
(350,150,cs),
(350,750,ls),
(350,778,o),
(328,800,o),
(300,800,cs),
(272,800,o),
(250,778,o),
(250,750,cs),
(250,250,ls),
(250,222,o),
(228,200,o),
(200,200,cs),
(172,200,o),
(150,222,o),
(150,250,cs),
(150,750,ls),
(150,778,o),
(128,800,o),
(100,800,cs),
(72,800,o),
(50,778,o),
(50,750,cs)
);
},
{
closed = 1;
nodes = (
(114,951,o),
(116,943,o),
(126,937,cs),
(256,859,ls),
(266,853,o),
(274,855,o),
(281,866,cs),
(286,875,o),
(284,883,o),
(274,889,cs),
(145,967,ls),
(134,973,o),
(126,971,o),
(120,961,cs)
);
}
);
width = 400;
}
);
unicode = (217,249);
},
{
glyphname = Umacron;
lastChange = "2023-02-26 17:00:22 +0000";
layers = (
{
layerId = m01;
shapes = (
{
closed = 1;
nodes = (
(50,150,ls),
(50,67,o),
(117,0,o),
(200,0,cs),
(283,0,o),
(350,67,o),
(350,150,cs),
(350,750,ls),
(350,778,o),
(328,800,o),
(300,800,cs),
(272,800,o),
(250,778,o),
(250,750,cs),
(250,250,ls),
(250,222,o),
(228,200,o),
(200,200,cs),
(172,200,o),
(150,222,o),
(150,250,cs),
(150,750,ls),
(150,778,o),
(128,800,o),
(100,800,cs),
(72,800,o),
(50,778,o),
(50,750,cs)
);
},
{
closed = 1;
nodes = (
(80,876,o),
(86,870,o),
(98,870,cs),
(302,869,ls),
(314,869,o),
(320,875,o),
(320,887,cs),
(320,899,o),
(314,906,o),
(302,906,cs),
(98,906,ls),
(86,906,o),
(80,901,o),
(80,889,cs)
);
}
);
width = 400;
}
);
unicode = (362,363);
},
{
glyphname = Uring;
lastChange = "2023-02-26 17:00:22 +0000";
layers = (
{
layerId = m01;
shapes = (
{
closed = 1;
nodes = (
(50,150,ls),
(50,67,o),
(117,0,o),
(200,0,cs),
(283,0,o),
(350,67,o),
(350,150,cs),
(350,750,ls),
(350,778,o),
(328,800,o),
(300,800,cs),
(272,800,o),
(250,778,o),
(250,750,cs),
(250,250,ls),
(250,222,o),
(228,200,o),
(200,200,cs),
(172,200,o),
(150,222,o),
(150,250,cs),
(150,750,ls),
(150,778,o),
(128,800,o),
(100,800,cs),
(72,800,o),
(50,778,o),
(50,750,cs)
);
},
{
closed = 1;
nodes = (
(124,905,o),
(132,887,o),
(146,872,cs),
(161,858,o),
(179,850,o),
(200,850,cs),
(221,850,o),
(238,858,o),
(253,872,cs),
(268,887,o),
(275,905,o),
(275,926,cs),
(275,937,o),
(273,947,o),
(269,956,cs),
(265,966,o),
(260,974,o),
(253,981,cs),
(246,988,o),
(238,994,o),
(229,997,cs),
(220,1001,o),
(210,1003,o),
(200,1003,cs),
(189,1003,o),
(179,1001,o),
(170,997,cs),
(161,994,o),
(153,988,o),
(146,981,cs),
(140,974,o),
(134,966,o),
(130,956,cs),
(126,947,o),
(124,937,o),
(124,926,cs)
);
},
{
closed = 1;
nodes = (
(155,939,o),
(159,950,o),
(168,958,cs),
(177,967,o),
(188,971,o),
(200,971,cs),
(212,971,o),
(223,967,o),
(232,958,cs),
(241,950,o),
(245,939,o),
(245,926,cs),
(245,914,o),
(241,904,o),
(232,895,cs),
(223,887,o),
(212,883,o),
(200,883,cs),
(188,883,o),
(177,887,o),
(168,895,cs),
(159,904,o),
(155,914,o),
(155,926,cs)
);
}
);
width = 400;
}
);
unicode = 366;
},
{
glyphname = Utilde;
lastChange = "2023-02-26 17:00:22 +0000";
layers = (
{
layerId = m01;
shapes = (
{
closed = 1;
nodes = (
(50,150,ls),
(50,67,o),
(117,0,o),
(200,0,cs),
(283,0,o),
(350,67,o),
(350,150,cs),
(350,750,ls),
(350,778,o),
(328,800,o),
(300,800,cs),
(272,800,o),
(250,778,o),
(250,750,cs),
(250,250,ls),
(250,222,o),
(228,200,o),
(200,200,cs),
(172,200,o),
(150,222,o),
(150,250,cs),
(150,750,ls),
(150,778,o),
(128,800,o),
(100,800,cs),
(72,800,o),
(50,778,o),
(50,750,cs)
);
},
{
closed = 1;
nodes = (
(30,889,o),
(31,880,o),
(40,872,cs),
(50,864,o),
(58,866,o),
(66,876,cs),
(77,890,o),
(87,903,o),
(97,913,cs),
(106,924,o),
(116,931,o),
(124,933,c),
(139,939,o),
(158,926,o),
(180,896,cs),
(196,873,o),
(215,859,o),
(235,853,cs),
(248,848,o),
(261,848,o),
(275,852,cs),
(287,854,o),
(298,859,o),
(310,868,cs),
(335,887,o),
(353,913,o),
(363,946,cs),
(366,957,o),
(362,964,o),
(350,969,c),
(339,971,o),
(332,967,o),
(328,955,cs),
(321,931,o),
(307,911,o),
(288,897,cs),
(280,892,o),
(273,888,o),
(266,886,cs),
(260,885,o),
(253,885,o),
(246,887,cs),
(233,890,o),
(221,900,o),
(209,917,cs),
(176,961,o),
(144,978,o),
(113,968,cs),
(99,963,o),
(86,955,o),
(74,942,cs),
(62,929,o),
(50,915,o),
(37,898,cs)
);
}
);
width = 400;
}
);
unicode = 360;
},
{
glyphname = V;
lastChange = "2023-02-26 17:00:22 +0000";
layers = (
{
layerId = m01;
shapes = (
{
closed = 1;
nodes = (
(128,200,o),
(150,178,o),
(150,150,cs),
(150,50,ls),
(150,22,o),
(172,0,o),
(200,0,cs),
(228,0,o),
(250,22,o),
(250,50,cs),
(250,150,ls),
(250,178,o),
(272,200,o),
(300,200,cs),
(328,200,o),
(350,222,o),
(350,250,cs),
(350,750,ls),
(350,778,o),
(328,800,o),
(300,800,cs),
(272,800,o),
(250,778,o),
(250,750,cs),
(250,350,ls),
(250,322,o),
(228,300,o),
(200,300,cs),
(172,300,o),
(150,322,o),
(150,350,cs),
(150,750,ls),
(150,778,o),
(128,800,o),
(100,800,cs),
(72,800,o),
(50,778,o),
(50,750,cs),
(50,250,ls),
(50,222,o),
(72,200,o),
(100,200,cs)
);
}
);
width = 400;
}
);
unicode = (86,118);
},
{
glyphname = W;
lastChange = "2023-02-26 17:00:22 +0000";
layers = (
{
layerId = m01;
shapes = (
{
closed = 1;
nodes = (
(128,200,o),
(150,178,o),
(150,150,cs),
(150,50,ls),
(150,22,o),
(172,0,o),
(200,0,cs),
(228,0,o),
(250,22,o),
(250,50,cs),
(250,78,o),
(272,100,o),
(300,100,cs),
(328,100,o),
(350,78,o),
(350,50,cs),
(350,22,o),
(372,0,o),
(400,0,cs),
(428,0,o),
(450,22,o),
(450,50,cs),
(450,150,ls),
(450,178,o),
(472,200,o),
(500,200,cs),
(528,200,o),
(550,222,o),
(550,250,cs),
(550,750,ls),
(550,778,o),
(528,800,o),
(500,800,cs),
(472,800,o),
(450,778,o),
(450,750,cs),
(450,350,ls),
(450,322,o),
(428,300,o),
(400,300,cs),
(372,300,o),
(350,322,o),
(350,350,cs),
(350,750,ls),
(350,778,o),
(328,800,o),
(300,800,cs),
(272,800,o),
(250,778,o),
(250,750,cs),
(250,350,ls),
(250,322,o),
(228,300,o),
(200,300,cs),
(172,300,o),
(150,322,o),
(150,350,cs),
(150,750,ls),
(150,778,o),
(128,800,o),
(100,800,cs),
(72,800,o),
(50,778,o),
(50,750,cs),
(50,250,ls),
(50,222,o),
(72,200,o),
(100,200,cs)
);
}
);
width = 600;
}
);
unicode = (87,119);
},
{
glyphname = Wacute;
lastChange = "2023-02-26 17:00:22 +0000";
layers = (
{
background = {
shapes = (
{
closed = 1;
nodes = (
(374,927,ls),
(384,933,o),
(386,941,o),
(380,951,cs),
(374,961,o),
(366,963,o),
(355,957,cs),
(226,879,ls),
(216,873,o),
(214,865,o),
(219,856,cs),
(226,845,o),
(234,843,o),
(244,849,cs)
);
},
{
closed = 1;
nodes = (
(207,790,l),
(406,790,l),
(406,840,l),
(207,840,l)
);
},
{
closed = 1;
nodes = (
(150,1017,l),
(450,1017,l),
(450,1130,l),
(150,1130,l)
);
},
{
closed = 1;
nodes = (
(216,960,l),
(383,960,l),
(383,1049,l),
(216,1049,l)
);
}
);
};
layerId = m01;
shapes = (
{
closed = 1;
nodes = (
(128,200,o),
(150,178,o),
(150,150,cs),
(150,50,ls),
(150,22,o),
(172,0,o),
(200,0,cs),
(228,0,o),
(250,22,o),
(250,50,cs),
(250,78,o),
(272,100,o),
(300,100,cs),
(328,100,o),
(350,78,o),
(350,50,cs),
(350,22,o),
(372,0,o),
(400,0,cs),
(428,0,o),
(450,22,o),
(450,50,cs),
(450,150,ls),
(450,178,o),
(472,200,o),
(500,200,cs),
(528,200,o),
(550,222,o),
(550,250,cs),
(550,750,ls),
(550,778,o),
(528,800,o),
(500,800,cs),
(472,800,o),
(450,778,o),
(450,750,cs),
(450,350,ls),
(450,322,o),
(428,300,o),
(400,300,cs),
(372,300,o),
(350,322,o),
(350,350,cs),
(350,750,ls),
(350,778,o),
(328,800,o),
(300,800,cs),
(272,800,o),
(250,778,o),
(250,750,cs),
(250,350,ls),
(250,322,o),
(228,300,o),
(200,300,cs),
(172,300,o),
(150,322,o),
(150,350,cs),
(150,750,ls),
(150,778,o),
(128,800,o),
(100,800,cs),
(72,800,o),
(50,778,o),
(50,750,cs),
(50,250,ls),
(50,222,o),
(72,200,o),
(100,200,cs)
);
},
{
closed = 1;
nodes = (
(226,855,o),
(234,853,o),
(244,859,cs),
(374,937,ls),
(384,943,o),
(386,951,o),
(380,961,cs),
(374,971,o),
(366,973,o),
(355,967,cs),
(226,889,ls),
(216,883,o),
(214,875,o),
(219,866,cs)
);
}
);
width = 600;
}
);
unicode = (7810,7811);
},
{
glyphname = Wcircumflex;
lastChange = "2023-02-26 17:00:22 +0000";
layers = (
{
layerId = m01;
shapes = (
{
closed = 1;
nodes = (
(128,200,o),
(150,178,o),
(150,150,cs),
(150,50,ls),
(150,22,o),
(172,0,o),
(200,0,cs),
(228,0,o),
(250,22,o),
(250,50,cs),
(250,78,o),
(272,100,o),
(300,100,cs),
(328,100,o),
(350,78,o),
(350,50,cs),
(350,22,o),
(372,0,o),
(400,0,cs),
(428,0,o),
(450,22,o),
(450,50,cs),
(450,150,ls),
(450,178,o),
(472,200,o),
(500,200,cs),
(528,200,o),
(550,222,o),
(550,250,cs),
(550,750,ls),
(550,778,o),
(528,800,o),
(500,800,cs),
(472,800,o),
(450,778,o),
(450,750,cs),
(450,350,ls),
(450,322,o),
(428,300,o),
(400,300,cs),
(372,300,o),
(350,322,o),
(350,350,cs),
(350,750,ls),
(350,778,o),
(328,800,o),
(300,800,cs),
(272,800,o),
(250,778,o),
(250,750,cs),
(250,350,ls),
(250,322,o),
(228,300,o),
(200,300,cs),
(172,300,o),
(150,322,o),
(150,350,cs),
(150,750,ls),
(150,778,o),
(128,800,o),
(100,800,cs),
(72,800,o),
(50,778,o),
(50,750,cs),
(50,250,ls),
(50,222,o),
(72,200,o),
(100,200,cs)
);
},
{
closed = 1;
nodes = (
(216,849,o),
(225,847,o),
(233,854,cs),
(300,908,l),
(368,855,ls),
(376,849,o),
(384,850,o),
(392,857,c),
(399,867,o),
(398,875,o),
(388,883,cs),
(300,951,l),
(211,882,ls),
(201,875,o),
(201,866,o),
(208,857,cs)
);
}
);
width = 600;
}
);
unicode = (372,373);
},
{
glyphname = Wdieresis;
lastChange = "2023-02-26 17:00:22 +0000";
layers = (
{
layerId = m01;
shapes = (
{
closed = 1;
nodes = (
(128,200,o),
(150,178,o),
(150,150,cs),
(150,50,ls),
(150,22,o),
(172,0,o),
(200,0,cs),
(228,0,o),
(250,22,o),
(250,50,cs),
(250,78,o),
(272,100,o),
(300,100,cs),
(328,100,o),
(350,78,o),
(350,50,cs),
(350,22,o),
(372,0,o),
(400,0,cs),
(428,0,o),
(450,22,o),
(450,50,cs),
(450,150,ls),
(450,178,o),
(472,200,o),
(500,200,cs),
(528,200,o),
(550,222,o),
(550,250,cs),
(550,750,ls),
(550,778,o),
(528,800,o),
(500,800,cs),
(472,800,o),
(450,778,o),
(450,750,cs),
(450,350,ls),
(450,322,o),
(428,300,o),
(400,300,cs),
(372,300,o),
(350,322,o),
(350,350,cs),
(350,750,ls),
(350,778,o),
(328,800,o),
(300,800,cs),
(272,800,o),
(250,778,o),
(250,750,cs),
(250,350,ls),
(250,322,o),
(228,300,o),
(200,300,cs),
(172,300,o),
(150,322,o),
(150,350,cs),
(150,750,ls),
(150,778,o),
(128,800,o),
(100,800,cs),
(72,800,o),
(50,778,o),
(50,750,cs),
(50,250,ls),
(50,222,o),
(72,200,o),
(100,200,cs)
);
},
{
closed = 1;
nodes = (
(200,896,o),
(203,885,o),
(211,877,cs),
(218,868,o),
(228,863,o),
(239,863,cs),
(250,863,o),
(259,868,o),
(267,877,cs),
(275,885,o),
(279,896,o),
(279,909,cs),
(279,923,o),
(275,934,o),
(267,943,cs),
(259,952,o),
(250,957,o),
(239,957,cs),
(228,957,o),
(218,952,o),
(211,943,cs),
(203,934,o),
(200,923,o),
(200,909,cs)
);
},
{
closed = 1;
nodes = (
(321,896,o),
(325,885,o),
(332,877,cs),
(340,868,o),
(350,863,o),
(361,863,cs),
(372,863,o),
(381,868,o),
(389,877,cs),
(397,885,o),
(400,896,o),
(400,909,cs),
(400,923,o),
(397,934,o),
(389,943,cs),
(381,952,o),
(372,957,o),
(361,957,cs),
(350,957,o),
(340,952,o),
(332,943,cs),
(325,934,o),
(321,923,o),
(321,909,cs)
);
}
);
width = 600;
}
);
unicode = (7812,7813);
},
{
glyphname = Wgrave;
lastChange = "2023-02-26 17:00:22 +0000";
layers = (
{
layerId = m01;
shapes = (
{
closed = 1;
nodes = (
(128,200,o),
(150,178,o),
(150,150,cs),
(150,50,ls),
(150,22,o),
(172,0,o),
(200,0,cs),
(228,0,o),
(250,22,o),
(250,50,cs),
(250,78,o),
(272,100,o),
(300,100,cs),
(328,100,o),
(350,78,o),
(350,50,cs),
(350,22,o),
(372,0,o),
(400,0,cs),
(428,0,o),
(450,22,o),
(450,50,cs),
(450,150,ls),
(450,178,o),
(472,200,o),
(500,200,cs),
(528,200,o),
(550,222,o),
(550,250,cs),
(550,750,ls),
(550,778,o),
(528,800,o),
(500,800,cs),
(472,800,o),
(450,778,o),
(450,750,cs),
(450,350,ls),
(450,322,o),
(428,300,o),
(400,300,cs),
(372,300,o),
(350,322,o),
(350,350,cs),
(350,750,ls),
(350,778,o),
(328,800,o),
(300,800,cs),
(272,800,o),
(250,778,o),
(250,750,cs),
(250,350,ls),
(250,322,o),
(228,300,o),
(200,300,cs),
(172,300,o),
(150,322,o),
(150,350,cs),
(150,750,ls),
(150,778,o),
(128,800,o),
(100,800,cs),
(72,800,o),
(50,778,o),
(50,750,cs),
(50,250,ls),
(50,222,o),
(72,200,o),
(100,200,cs)
);
},
{
closed = 1;
nodes = (
(214,951,o),
(216,943,o),
(226,937,cs),
(356,859,ls),
(366,853,o),
(374,855,o),
(381,866,cs),
(386,875,o),
(384,883,o),
(374,889,cs),
(245,967,ls),
(234,973,o),
(226,971,o),
(220,961,cs)
);
}
);
width = 600;
}
);
unicode = (7808,7809);
},
{
glyphname = X;
lastChange = "2023-02-26 17:00:22 +0000";
layers = (
{
layerId = m01;
shapes = (
{
closed = 1;
nodes = (
(150,750,ls),
(150,778,o),
(128,800,o),
(100,800,cs),
(72,800,o),
(50,778,o),
(50,750,cs),
(50,550,ls),
(50,522,o),
(72,500,o),
(100,500,cs),
(128,500,o),
(150,478,o),
(150,450,cs),
(150,422,o),
(128,400,o),
(100,400,cs),
(72,400,o),
(50,378,o),
(50,350,cs),
(50,50,ls),
(50,22,o),
(72,0,o),
(100,0,cs),
(128,0,o),
(150,22,o),
(150,50,cs),
(150,250,ls),
(150,278,o),
(172,300,o),
(200,300,cs),
(228,300,o),
(250,278,o),
(250,250,cs),
(250,50,ls),
(250,22,o),
(272,0,o),
(300,0,cs),
(328,0,o),
(350,22,o),
(350,50,cs),
(350,350,ls),
(350,378,o),
(328,400,o),
(300,400,cs),
(272,400,o),
(250,422,o),
(250,450,cs),
(250,478,o),
(272,500,o),
(300,500,cs),
(328,500,o),
(350,522,o),
(350,550,cs),
(350,750,ls),
(350,778,o),
(328,800,o),
(300,800,cs),
(272,800,o),
(250,778,o),
(250,750,cs),
(250,550,ls),
(250,522,o),
(228,500,o),
(200,500,cs),
(172,500,o),
(150,522,o),
(150,550,cs)
);
}
);
width = 400;
}
);
unicode = (88,120);
},
{
glyphname = Y;
lastChange = "2023-02-26 17:00:22 +0000";
layers = (
{
layerId = m01;
shapes = (
{
closed = 1;
nodes = (
(128,400,o),
(150,378,o),
(150,350,cs),
(150,50,ls),
(150,22,o),
(172,0,o),
(200,0,cs),
(228,0,o),
(250,22,o),
(250,50,cs),
(250,350,ls),
(250,378,o),
(272,400,o),
(300,400,cs),
(328,400,o),
(350,422,o),
(350,450,cs),
(350,750,ls),
(350,778,o),
(328,800,o),
(300,800,cs),
(272,800,o),
(250,778,o),
(250,750,cs),
(250,550,ls),
(250,522,o),
(228,500,o),
(200,500,cs),
(172,500,o),
(150,522,o),
(150,550,cs),
(150,750,ls),
(150,778,o),
(128,800,o),
(100,800,cs),
(72,800,o),
(50,778,o),
(50,750,cs),
(50,450,ls),
(50,422,o),
(72,400,o),
(100,400,cs)
);
}
);
width = 400;
}
);
unicode = (89,121);
},
{
glyphname = Yacute;
lastChange = "2023-02-26 17:00:22 +0000";
layers = (
{
layerId = m01;
shapes = (
{
closed = 1;
nodes = (
(128,400,o),
(150,378,o),
(150,350,cs),
(150,50,ls),
(150,22,o),
(172,0,o),
(200,0,cs),
(228,0,o),
(250,22,o),
(250,50,cs),
(250,350,ls),
(250,378,o),
(272,400,o),
(300,400,cs),
(328,400,o),
(350,422,o),
(350,450,cs),
(350,750,ls),
(350,778,o),
(328,800,o),
(300,800,cs),
(272,800,o),
(250,778,o),
(250,750,cs),
(250,550,ls),
(250,522,o),
(228,500,o),
(200,500,cs),
(172,500,o),
(150,522,o),
(150,550,cs),
(150,750,ls),
(150,778,o),
(128,800,o),
(100,800,cs),
(72,800,o),
(50,778,o),
(50,750,cs),
(50,450,ls),
(50,422,o),
(72,400,o),
(100,400,cs)
);
},
{
closed = 1;
nodes = (
(126,855,o),
(134,853,o),
(144,859,cs),
(274,937,ls),
(284,943,o),
(286,951,o),
(280,961,cs),
(274,971,o),
(266,973,o),
(255,967,cs),
(126,889,ls),
(116,883,o),
(114,875,o),
(119,866,cs)
);
}
);
width = 400;
}
);
unicode = (221,253);
},
{
glyphname = Ycircumflex;
lastChange = "2023-02-26 17:00:22 +0000";
layers = (
{
layerId = m01;
shapes = (
{
closed = 1;
nodes = (
(128,400,o),
(150,378,o),
(150,350,cs),
(150,50,ls),
(150,22,o),
(172,0,o),
(200,0,cs),
(228,0,o),
(250,22,o),
(250,50,cs),
(250,350,ls),
(250,378,o),
(272,400,o),
(300,400,cs),
(328,400,o),
(350,422,o),
(350,450,cs),
(350,750,ls),
(350,778,o),
(328,800,o),
(300,800,cs),
(272,800,o),
(250,778,o),
(250,750,cs),
(250,550,ls),
(250,522,o),
(228,500,o),
(200,500,cs),
(172,500,o),
(150,522,o),
(150,550,cs),
(150,750,ls),
(150,778,o),
(128,800,o),
(100,800,cs),
(72,800,o),
(50,778,o),
(50,750,cs),
(50,450,ls),
(50,422,o),
(72,400,o),
(100,400,cs)
);
},
{
closed = 1;
nodes = (
(116,849,o),
(125,847,o),
(133,854,cs),
(200,908,l),
(268,855,ls),
(276,849,o),
(284,850,o),
(292,857,c),
(299,867,o),
(298,875,o),
(288,883,cs),
(200,951,l),
(111,882,ls),
(101,875,o),
(101,866,o),
(108,857,cs)
);
}
);
width = 400;
}
);
unicode = (374,375);
},
{
glyphname = Ydieresis;
lastChange = "2023-02-26 17:00:22 +0000";
layers = (
{
layerId = m01;
shapes = (
{
closed = 1;
nodes = (
(128,400,o),
(150,378,o),
(150,350,cs),
(150,50,ls),
(150,22,o),
(172,0,o),
(200,0,cs),
(228,0,o),
(250,22,o),
(250,50,cs),
(250,350,ls),
(250,378,o),
(272,400,o),
(300,400,cs),
(328,400,o),
(350,422,o),
(350,450,cs),
(350,750,ls),
(350,778,o),
(328,800,o),
(300,800,cs),
(272,800,o),
(250,778,o),
(250,750,cs),
(250,550,ls),
(250,522,o),
(228,500,o),
(200,500,cs),
(172,500,o),
(150,522,o),
(150,550,cs),
(150,750,ls),
(150,778,o),
(128,800,o),
(100,800,cs),
(72,800,o),
(50,778,o),
(50,750,cs),
(50,450,ls),
(50,422,o),
(72,400,o),
(100,400,cs)
);
},
{
closed = 1;
nodes = (
(100,896,o),
(103,885,o),
(111,877,cs),
(118,868,o),
(128,863,o),
(139,863,cs),
(150,863,o),
(159,868,o),
(167,877,cs),
(175,885,o),
(179,896,o),
(179,909,cs),
(179,923,o),
(175,934,o),
(167,943,cs),
(159,952,o),
(150,957,o),
(139,957,cs),
(128,957,o),
(118,952,o),
(111,943,cs),
(103,934,o),
(100,923,o),
(100,909,cs)
);
},
{
closed = 1;
nodes = (
(221,896,o),
(225,885,o),
(232,877,cs),
(240,868,o),
(250,863,o),
(261,863,cs),
(272,863,o),
(281,868,o),
(289,877,cs),
(297,885,o),
(300,896,o),
(300,909,cs),
(300,923,o),
(297,934,o),
(289,943,cs),
(281,952,o),
(272,957,o),
(261,957,cs),
(250,957,o),
(240,952,o),
(232,943,cs),
(225,934,o),
(221,923,o),
(221,909,cs)
);
}
);
width = 400;
}
);
unicode = (376,255);
},
{
glyphname = Ygrave;
lastChange = "2023-02-26 17:00:22 +0000";
layers = (
{
layerId = m01;
shapes = (
{
closed = 1;
nodes = (
(128,400,o),
(150,378,o),
(150,350,cs),
(150,50,ls),
(150,22,o),
(172,0,o),
(200,0,cs),
(228,0,o),
(250,22,o),
(250,50,cs),
(250,350,ls),
(250,378,o),
(272,400,o),
(300,400,cs),
(328,400,o),
(350,422,o),
(350,450,cs),
(350,750,ls),
(350,778,o),
(328,800,o),
(300,800,cs),
(272,800,o),
(250,778,o),
(250,750,cs),
(250,550,ls),
(250,522,o),
(228,500,o),
(200,500,cs),
(172,500,o),
(150,522,o),
(150,550,cs),
(150,750,ls),
(150,778,o),
(128,800,o),
(100,800,cs),
(72,800,o),
(50,778,o),
(50,750,cs),
(50,450,ls),
(50,422,o),
(72,400,o),
(100,400,cs)
);
},
{
closed = 1;
nodes = (
(114,951,o),
(116,943,o),
(126,937,cs),
(256,859,ls),
(266,853,o),
(274,855,o),
(281,866,cs),
(286,875,o),
(284,883,o),
(274,889,cs),
(145,967,ls),
(134,973,o),
(126,971,o),
(120,961,cs)
);
}
);
width = 400;
}
);
unicode = (7922,7923);
},
{
glyphname = Z;
lastChange = "2023-02-26 17:00:22 +0000";
layers = (
{
layerId = m01;
shapes = (
{
closed = 1;
nodes = (
(78,800,o),
(56,778,o),
(56,750,cs),
(56,650,ls),
(56,622,o),
(78,600,o),
(106,600,cs),
(232,600,l),
(54,170,l),
(53,167,ls),
(51,161,o),
(50,156,o),
(50,150,cs),
(50,50,ls),
(50,22,o),
(72,0,o),
(100,0,cs),
(300,0,ls),
(328,0,o),
(350,22,o),
(350,50,cs),
(350,150,ls),
(350,178,o),
(328,200,o),
(300,200,cs),
(174,200,l),
(352,630,l),
(353,633,ls),
(355,639,o),
(356,644,o),
(356,650,cs),
(356,750,ls),
(356,778,o),
(334,800,o),
(306,800,cs),
(106,800,ls)
);
}
);
width = 406;
}
);
unicode = (90,122);
},
{
glyphname = Zacute;
lastChange = "2023-02-26 17:00:22 +0000";
layers = (
{
layerId = m01;
shapes = (
{
closed = 1;
nodes = (
(78,800,o),
(56,778,o),
(56,750,cs),
(56,650,ls),
(56,622,o),
(78,600,o),
(106,600,cs),
(232,600,l),
(54,170,l),
(53,167,ls),
(51,161,o),
(50,156,o),
(50,150,cs),
(50,50,ls),
(50,22,o),
(72,0,o),
(100,0,cs),
(300,0,ls),
(328,0,o),
(350,22,o),
(350,50,cs),
(350,150,ls),
(350,178,o),
(328,200,o),
(300,200,cs),
(174,200,l),
(352,630,l),
(353,633,ls),
(355,639,o),
(356,644,o),
(356,650,cs),
(356,750,ls),
(356,778,o),
(334,800,o),
(306,800,cs),
(106,800,ls)
);
},
{
closed = 1;
nodes = (
(132,855,o),
(140,853,o),
(150,859,cs),
(280,937,ls),
(290,943,o),
(292,951,o),
(286,961,cs),
(280,971,o),
(272,973,o),
(261,967,cs),
(132,889,ls),
(122,883,o),
(120,875,o),
(125,866,cs)
);
}
);
width = 406;
}
);
unicode = (377,378);
},
{
glyphname = Zcaron;
lastChange = "2023-02-26 17:00:22 +0000";
layers = (
{
layerId = m01;
shapes = (
{
closed = 1;
nodes = (
(78,800,o),
(56,778,o),
(56,750,cs),
(56,650,ls),
(56,622,o),
(78,600,o),
(106,600,cs),
(232,600,l),
(54,170,l),
(53,167,ls),
(51,161,o),
(50,156,o),
(50,150,cs),
(50,50,ls),
(50,22,o),
(72,0,o),
(100,0,cs),
(300,0,ls),
(328,0,o),
(350,22,o),
(350,50,cs),
(350,150,ls),
(350,178,o),
(328,200,o),
(300,200,cs),
(174,200,l),
(352,630,l),
(353,633,ls),
(355,639,o),
(356,644,o),
(356,650,cs),
(356,750,ls),
(356,778,o),
(334,800,o),
(306,800,cs),
(106,800,ls)
);
},
{
closed = 1;
nodes = (
(120,930,o),
(120,921,o),
(130,914,cs),
(219,845,l),
(307,913,ls),
(317,921,o),
(318,929,o),
(311,939,c),
(303,946,o),
(295,947,o),
(287,941,cs),
(219,888,l),
(152,942,ls),
(144,949,o),
(135,947,o),
(127,939,cs)
);
}
);
width = 419;
}
);
unicode = (381,382);
},
{
glyphname = Zdotaccent;
lastChange = "2023-02-26 17:00:22 +0000";
layers = (
{
layerId = m01;
shapes = (
{
closed = 1;
nodes = (
(78,800,o),
(56,778,o),
(56,750,cs),
(56,650,ls),
(56,622,o),
(78,600,o),
(106,600,cs),
(232,600,l),
(54,170,l),
(53,167,ls),
(51,161,o),
(50,156,o),
(50,150,cs),
(50,50,ls),
(50,22,o),
(72,0,o),
(100,0,cs),
(300,0,ls),
(328,0,o),
(350,22,o),
(350,50,cs),
(350,150,ls),
(350,178,o),
(328,200,o),
(300,200,cs),
(174,200,l),
(352,630,l),
(353,633,ls),
(355,639,o),
(356,644,o),
(356,650,cs),
(356,750,ls),
(356,778,o),
(334,800,o),
(306,800,cs),
(106,800,ls)
);
},
{
closed = 1;
nodes = (
(167,896,o),
(170,885,o),
(178,877,cs),
(185,868,o),
(195,863,o),
(206,863,cs),
(217,863,o),
(226,868,o),
(234,877,cs),
(242,885,o),
(246,896,o),
(246,909,cs),
(246,923,o),
(242,934,o),
(234,943,cs),
(226,952,o),
(217,957,o),
(206,957,cs),
(195,957,o),
(185,952,o),
(178,943,cs),
(170,934,o),
(167,923,o),
(167,909,cs)
);
}
);
width = 406;
}
);
unicode = (379,380);
},
{
glyphname = Zstroke;
lastChange = "2023-02-26 17:00:22 +0000";
layers = (
{
layerId = m01;
shapes = (
{
closed = 1;
nodes = (
(78,800,o),
(56,778,o),
(56,750,cs),
(56,650,ls),
(56,622,o),
(78,600,o),
(106,600,cs),
(232,600,l),
(149,400,l),
(93,400,ls),
(81,400,o),
(75,394,o),
(75,383,cs),
(75,370,o),
(81,364,o),
(93,364,cs),
(134,364,l),
(54,170,l),
(53,167,ls),
(51,161,o),
(50,156,o),
(50,150,cs),
(50,50,ls),
(50,22,o),
(72,0,o),
(100,0,cs),
(300,0,ls),
(328,0,o),
(350,22,o),
(350,50,cs),
(350,150,ls),
(350,178,o),
(328,200,o),
(300,200,cs),
(174,200,l),
(242,363,l),
(307,363,ls),
(319,363,o),
(325,368,o),
(325,380,cs),
(325,393,o),
(319,400,o),
(307,400,cs),
(257,400,l),
(352,630,l),
(353,633,ls),
(355,639,o),
(356,644,o),
(356,650,cs),
(356,750,ls),
(356,778,o),
(334,800,o),
(306,800,cs),
(106,800,ls)
);
}
);
width = 406;
}
);
unicode = 437;
},
{
glyphname = zero;
lastChange = "2023-02-26 17:17:30 +0000";
layers = (
{
layerId = m01;
shapes = (
{
closed = 1;
nodes = (
(50,150,ls),
(50,67,o),
(117,0,o),
(200,0,cs),
(283,0,o),
(350,67,o),
(350,150,cs),
(350,650,ls),
(350,733,o),
(283,800,o),
(200,800,cs),
(117,800,o),
(50,733,o),
(50,650,cs)
);
},
{
closed = 1;
nodes = (
(150,550,ls),
(150,578,o),
(172,600,o),
(200,600,cs),
(228,600,o),
(250,578,o),
(250,550,cs),
(250,250,ls),
(250,222,o),
(228,200,o),
(200,200,cs),
(172,200,o),
(150,222,o),
(150,250,cs)
);
}
);
width = 400;
}
);
unicode = 48;
},
{
glyphname = one;
lastChange = "2023-02-26 17:17:27 +0000";
layers = (
{
layerId = m01;
shapes = (
{
closed = 1;
nodes = (
(128,0,o),
(150,22,o),
(150,50,cs),
(150,750,ls),
(150,778,o),
(128,800,o),
(100,800,cs),
(72,800,o),
(50,778,o),
(50,750,cs),
(50,50,ls),
(50,22,o),
(72,0,o),
(100,0,cs)
);
}
);
width = 200;
}
);
unicode = 49;
},
{
glyphname = two;
lastChange = "2023-02-26 17:17:08 +0000";
layers = (
{
background = {
shapes = (
{
closed = 1;
nodes = (
(272,690,o),
(250,668,o),
(250,640,cs),
(250,552,l),
(56,163,ls),
(43,138,o),
(52,108,o),
(77,95,cs),
(104,81,o),
(133,94,o),
(145,118,cs),
(344,517,ls),
(348,526,o),
(350,536,o),
(350,545,cs),
(350,640,ls),
(350,668,o),
(328,690,o),
(300,690,cs)
);
},
{
closed = 1;
nodes = (
(128,-10,o),
(150,12,o),
(150,40,cs),
(150,140,l),
(50,140,l),
(50,40,ls),
(50,12,o),
(72,-10,o),
(100,-10,cs)
);
},
{
alignment = -1;
angle = 180;
pos = (397,887);
ref = _part.circle;
},
{
ref = "_part.petit-fut-vertical";
},
{
pos = (-200,500);
ref = "_part.petit-fut-vertical";
},
{
closed = 1;
nodes = (
(250,590,l),
(200,590,l),
(228,590,o),
(250,568,o),
(250,540,c)
);
},
{
closed = 1;
nodes = (
(150,568,o),
(172,590,o),
(200,590,c),
(150,590,l),
(150,540,l)
);
},
{
closed = 1;
nodes = (
(150,640,l),
(150,590,l),
(250,590,l),
(250,640,l)
);
},
{
closed = 1;
nodes = (
(100,-10,l),
(300,-10,l),
(300,190,l),
(100,190,l)
);
},
{
closed = 1;
nodes = (
(263,578,l),
(241,569,l),
(245,564,o),
(247,558,o),
(247,552,cs),
(247,547,o),
(246,542,o),
(243,538,c),
(299,567,l)
);
}
);
};
guides = (
{
angle = 63.4942;
pos = (150,351);
}
);
layerId = m01;
shapes = (
{
closed = 1;
nodes = (
(300,0,ls),
(328,0,o),
(350,22,o),
(350,50,cs),
(350,150,ls),
(350,178,o),
(328,200,o),
(300,200,cs),
(181,200,l),
(344,527,ls),
(348,536,o),
(350,546,o),
(350,555,cs),
(350,650,ls),
(350,733,o),
(283,800,o),
(200,800,cs),
(117,800,o),
(50,733,o),
(50,650,cs),
(50,550,ls),
(50,522,o),
(72,500,o),
(100,500,cs),
(128,500,o),
(150,522,o),
(150,550,cs),
(150,578,o),
(172,600,o),
(200,600,cs),
(223,600,o),
(247,582,o),
(247,562,cs),
(247,559,o),
(247,556,o),
(243,548,cs),
(56,173,ls),
(52,166,o),
(50,158,o),
(50,150,cs),
(50,50,ls),
(50,22,o),
(72,0,o),
(100,0,cs)
);
}
);
width = 400;
}
);
unicode = 50;
},
{
glyphname = three;
lastChange = "2023-02-26 17:17:08 +0000";
layers = (
{
background = {
shapes = (
{
closed = 1;
nodes = (
(128,690,o),
(150,712,o),
(150,740,cs),
(150,768,o),
(128,790,o),
(100,790,cs),
(72,790,o),
(50,768,o),
(50,740,cs),
(50,712,o),
(72,690,o),
(100,690,cs)
);
},
{
closed = 1;
nodes = (
(228,690,o),
(250,712,o),
(250,740,cs),
(250,768,o),
(228,790,o),
(200,790,cs),
(172,790,o),
(150,768,o),
(150,740,cs),
(150,712,o),
(172,690,o),
(200,690,cs)
);
},
{
closed = 1;
nodes = (
(328,690,o),
(350,712,o),
(350,740,cs),
(350,768,o),
(328,790,o),
(300,790,cs),
(272,790,o),
(250,768,o),
(250,740,cs),
(250,712,o),
(272,690,o),
(300,690,cs)
);
},
{
closed = 1;
nodes = (
(128,590,o),
(150,612,o),
(150,640,cs),
(150,668,o),
(128,690,o),
(100,690,cs),
(72,690,o),
(50,668,o),
(50,640,cs),
(50,612,o),
(72,590,o),
(100,590,cs)
);
},
{
closed = 1;
nodes = (
(228,590,o),
(250,612,o),
(250,640,cs),
(250,668,o),
(228,690,o),
(200,690,cs),
(172,690,o),
(150,668,o),
(150,640,cs),
(150,612,o),
(172,590,o),
(200,590,cs)
);
},
{
closed = 1;
nodes = (
(328,590,o),
(350,612,o),
(350,640,cs),
(350,668,o),
(328,690,o),
(300,690,cs),
(272,690,o),
(250,668,o),
(250,640,cs),
(250,612,o),
(272,590,o),
(300,590,cs)
);
},
{
closed = 1;
nodes = (
(128,490,o),
(150,512,o),
(150,540,cs),
(150,568,o),
(128,590,o),
(100,590,cs),
(72,590,o),
(50,568,o),
(50,540,cs),
(50,512,o),
(72,490,o),
(100,490,cs)
);
},
{
closed = 1;
nodes = (
(228,490,o),
(250,512,o),
(250,540,cs),
(250,568,o),
(228,590,o),
(200,590,cs),
(172,590,o),
(150,568,o),
(150,540,cs),
(150,512,o),
(172,490,o),
(200,490,cs)
);
},
{
closed = 1;
nodes = (
(328,490,o),
(350,512,o),
(350,540,cs),
(350,568,o),
(328,590,o),
(300,590,cs),
(272,590,o),
(250,568,o),
(250,540,cs),
(250,512,o),
(272,490,o),
(300,490,cs)
);
},
{
closed = 1;
nodes = (
(128,390,o),
(150,412,o),
(150,440,cs),
(150,468,o),
(128,490,o),
(100,490,cs),
(72,490,o),
(50,468,o),
(50,440,cs),
(50,412,o),
(72,390,o),
(100,390,cs)
);
},
{
closed = 1;
nodes = (
(228,390,o),
(250,412,o),
(250,440,cs),
(250,468,o),
(228,490,o),
(200,490,cs),
(172,490,o),
(150,468,o),
(150,440,cs),
(150,412,o),
(172,390,o),
(200,390,cs)
);
},
{
closed = 1;
nodes = (
(328,390,o),
(350,412,o),
(350,440,cs),
(350,468,o),
(328,490,o),
(300,490,cs),
(272,490,o),
(250,468,o),
(250,440,cs),
(250,412,o),
(272,390,o),
(300,390,cs)
);
},
{
closed = 1;
nodes = (
(128,290,o),
(150,312,o),
(150,340,cs),
(150,368,o),
(128,390,o),
(100,390,cs),
(72,390,o),
(50,368,o),
(50,340,cs),
(50,312,o),
(72,290,o),
(100,290,cs)
);
},
{
closed = 1;
nodes = (
(228,290,o),
(250,312,o),
(250,340,cs),
(250,368,o),
(228,390,o),
(200,390,cs),
(172,390,o),
(150,368,o),
(150,340,cs),
(150,312,o),
(172,290,o),
(200,290,cs)
);
},
{
closed = 1;
nodes = (
(328,290,o),
(350,312,o),
(350,340,cs),
(350,368,o),
(328,390,o),
(300,390,cs),
(272,390,o),
(250,368,o),
(250,340,cs),
(250,312,o),
(272,290,o),
(300,290,cs)
);
},
{
closed = 1;
nodes = (
(128,190,o),
(150,212,o),
(150,240,cs),
(150,268,o),
(128,290,o),
(100,290,cs),
(72,290,o),
(50,268,o),
(50,240,cs),
(50,212,o),
(72,190,o),
(100,190,cs)
);
},
{
closed = 1;
nodes = (
(228,190,o),
(250,212,o),
(250,240,cs),
(250,268,o),
(228,290,o),
(200,290,cs),
(172,290,o),
(150,268,o),
(150,240,cs),
(150,212,o),
(172,190,o),
(200,190,cs)
);
},
{
closed = 1;
nodes = (
(328,190,o),
(350,212,o),
(350,240,cs),
(350,268,o),
(328,290,o),
(300,290,cs),
(272,290,o),
(250,268,o),
(250,240,cs),
(250,212,o),
(272,190,o),
(300,190,cs)
);
},
{
closed = 1;
nodes = (
(128,90,o),
(150,112,o),
(150,140,cs),
(150,168,o),
(128,190,o),
(100,190,cs),
(72,190,o),
(50,169,o),
(50,140,cs),
(50,112,o),
(72,90,o),
(100,90,cs)
);
},
{
closed = 1;
nodes = (
(228,90,o),
(250,112,o),
(250,140,cs),
(250,168,o),
(228,190,o),
(200,190,cs),
(172,190,o),
(150,168,o),
(150,140,cs),
(150,112,o),
(172,90,o),
(200,90,cs)
);
},
{
closed = 1;
nodes = (
(328,90,o),
(350,112,o),
(350,140,cs),
(350,168,o),
(328,190,o),
(300,190,cs),
(272,190,o),
(250,168,o),
(250,140,cs),
(250,112,o),
(272,90,o),
(300,90,cs)
);
},
{
closed = 1;
nodes = (
(128,-10,o),
(150,12,o),
(150,40,cs),
(150,68,o),
(128,90,o),
(100,90,cs),
(72,90,o),
(50,68,o),
(50,40,cs),
(50,12,o),
(72,-10,o),
(100,-10,cs)
);
},
{
closed = 1;
nodes = (
(228,-10,o),
(250,12,o),
(250,40,cs),
(250,68,o),
(228,90,o),
(200,90,cs),
(172,90,o),
(150,68,o),
(150,40,cs),
(150,12,o),
(172,-10,o),
(200,-10,cs)
);
},
{
closed = 1;
nodes = (
(328,-10,o),
(350,12,o),
(350,40,cs),
(350,68,o),
(328,90,o),
(300,90,cs),
(272,90,o),
(250,68,o),
(250,40,cs),
(250,12,o),
(272,-10,o),
(300,-10,cs)
);
}
);
};
guides = (
{
angle = 90;
pos = (600,443);
}
);
layerId = m01;
shapes = (
{
closed = 1;
nodes = (
(117,800,o),
(50,733,o),
(50,650,cs),
(50,550,ls),
(50,522,o),
(72,500,o),
(100,500,cs),
(128,500,o),
(150,522,o),
(150,550,cs),
(150,578,o),
(172,600,o),
(200,600,cs),
(228,600,o),
(250,578,o),
(250,550,cs),
(250,522,o),
(228,500,o),
(200,500,cs),
(172,500,o),
(150,478,o),
(150,450,cs),
(150,350,ls),
(150,322,o),
(172,300,o),
(200,300,cs),
(228,300,o),
(250,278,o),
(250,250,cs),
(250,222,o),
(228,200,o),
(200,200,cs),
(172,200,o),
(150,222,o),
(150,250,cs),
(150,278,o),
(128,300,o),
(100,300,cs),
(72,300,o),
(50,278,o),
(50,250,cs),
(50,150,ls),
(50,67,o),
(117,0,o),
(200,0,cs),
(283,0,o),
(350,67,o),
(350,150,cs),
(350,300,ls),
(350,338,o),
(336,373,o),
(312,400,c),
(336,427,o),
(350,462,o),
(350,500,cs),
(350,650,ls),
(350,733,o),
(283,800,o),
(200,800,cs)
);
}
);
width = 400;
}
);
unicode = 51;
},
{
glyphname = four;
lastChange = "2023-02-26 17:17:08 +0000";
layers = (
{
layerId = m01;
shapes = (
{
closed = 1;
nodes = (
(250,522,o),
(228,500,o),
(200,500,cs),
(172,500,o),
(150,522,o),
(150,550,cs),
(150,750,ls),
(150,778,o),
(128,800,o),
(100,800,cs),
(72,800,o),
(50,778,o),
(50,750,cs),
(50,350,ls),
(50,322,o),
(72,300,o),
(100,300,cs),
(200,300,ls),
(228,300,o),
(250,278,o),
(250,250,cs),
(250,50,ls),
(250,22,o),
(272,0,o),
(300,0,cs),
(328,0,o),
(350,22,o),
(350,50,cs),
(350,750,ls),
(350,778,o),
(328,800,o),
(300,800,cs),
(272,800,o),
(250,778,o),
(250,750,cs),
(250,550,ls)
);
}
);
width = 400;
}
);
unicode = 52;
},
{
glyphname = five;
lastChange = "2023-02-26 17:17:08 +0000";
layers = (
{
background = {
shapes = (
{
closed = 1;
nodes = (
(128,690,o),
(150,712,o),
(150,740,cs),
(150,768,o),
(128,790,o),
(100,790,cs),
(72,790,o),
(50,768,o),
(50,740,cs),
(50,712,o),
(72,690,o),
(100,690,cs)
);
},
{
closed = 1;
nodes = (
(228,690,o),
(250,712,o),
(250,740,cs),
(250,768,o),
(228,790,o),
(200,790,cs),
(172,790,o),
(150,768,o),
(150,740,cs),
(150,712,o),
(172,690,o),
(200,690,cs)
);
},
{
closed = 1;
nodes = (
(328,690,o),
(350,712,o),
(350,740,cs),
(350,768,o),
(328,790,o),
(300,790,cs),
(272,790,o),
(250,768,o),
(250,740,cs),
(250,712,o),
(272,690,o),
(300,690,cs)
);
},
{
closed = 1;
nodes = (
(128,590,o),
(150,612,o),
(150,640,cs),
(150,668,o),
(128,690,o),
(100,690,cs),
(72,690,o),
(50,668,o),
(50,640,cs),
(50,612,o),
(72,590,o),
(100,590,cs)
);
},
{
closed = 1;
nodes = (
(228,590,o),
(250,612,o),
(250,640,cs),
(250,668,o),
(228,690,o),
(200,690,cs),
(172,690,o),
(150,668,o),
(150,640,cs),
(150,612,o),
(172,590,o),
(200,590,cs)
);
},
{
closed = 1;
nodes = (
(328,590,o),
(350,612,o),
(350,640,cs),
(350,668,o),
(328,690,o),
(300,690,cs),
(272,690,o),
(250,668,o),
(250,640,cs),
(250,612,o),
(272,590,o),
(300,590,cs)
);
},
{
closed = 1;
nodes = (
(128,490,o),
(150,512,o),
(150,540,cs),
(150,568,o),
(128,590,o),
(100,590,cs),
(72,590,o),
(50,568,o),
(50,540,cs),
(50,512,o),
(72,490,o),
(100,490,cs)
);
},
{
closed = 1;
nodes = (
(228,490,o),
(250,512,o),
(250,540,cs),
(250,568,o),
(228,590,o),
(200,590,cs),
(172,590,o),
(150,568,o),
(150,540,cs),
(150,512,o),
(172,490,o),
(200,490,cs)
);
},
{
closed = 1;
nodes = (
(328,490,o),
(350,512,o),
(350,540,cs),
(350,568,o),
(328,590,o),
(300,590,cs),
(272,590,o),
(250,568,o),
(250,540,cs),
(250,512,o),
(272,490,o),
(300,490,cs)
);
},
{
closed = 1;
nodes = (
(128,390,o),
(150,412,o),
(150,440,cs),
(150,468,o),
(128,490,o),
(100,490,cs),
(72,490,o),
(50,468,o),
(50,440,cs),
(50,412,o),
(72,390,o),
(100,390,cs)
);
},
{
closed = 1;
nodes = (
(228,390,o),
(250,412,o),
(250,440,cs),
(250,468,o),
(228,490,o),
(200,490,cs),
(172,490,o),
(150,468,o),
(150,440,cs),
(150,412,o),
(172,390,o),
(200,390,cs)
);
},
{
closed = 1;
nodes = (
(328,390,o),
(350,412,o),
(350,440,cs),
(350,468,o),
(328,490,o),
(300,490,cs),
(272,490,o),
(250,468,o),
(250,440,cs),
(250,412,o),
(272,390,o),
(300,390,cs)
);
},
{
closed = 1;
nodes = (
(128,290,o),
(150,312,o),
(150,340,cs),
(150,368,o),
(128,390,o),
(100,390,cs),
(72,390,o),
(50,368,o),
(50,340,cs),
(50,312,o),
(72,290,o),
(100,290,cs)
);
},
{
closed = 1;
nodes = (
(228,290,o),
(250,312,o),
(250,340,cs),
(250,368,o),
(228,390,o),
(200,390,cs),
(172,390,o),
(150,368,o),
(150,340,cs),
(150,312,o),
(172,290,o),
(200,290,cs)
);
},
{
closed = 1;
nodes = (
(328,290,o),
(350,312,o),
(350,340,cs),
(350,368,o),
(328,390,o),
(300,390,cs),
(272,390,o),
(250,368,o),
(250,340,cs),
(250,312,o),
(272,290,o),
(300,290,cs)
);
},
{
closed = 1;
nodes = (
(128,190,o),
(150,212,o),
(150,240,cs),
(150,268,o),
(128,290,o),
(100,290,cs),
(72,290,o),
(50,268,o),
(50,240,cs),
(50,212,o),
(72,190,o),
(100,190,cs)
);
},
{
closed = 1;
nodes = (
(228,190,o),
(250,212,o),
(250,240,cs),
(250,268,o),
(228,290,o),
(200,290,cs),
(172,290,o),
(150,268,o),
(150,240,cs),
(150,212,o),
(172,190,o),
(200,190,cs)
);
},
{
closed = 1;
nodes = (
(328,190,o),
(350,212,o),
(350,240,cs),
(350,268,o),
(328,290,o),
(300,290,cs),
(272,290,o),
(250,268,o),
(250,240,cs),
(250,212,o),
(272,190,o),
(300,190,cs)
);
},
{
closed = 1;
nodes = (
(128,90,o),
(150,112,o),
(150,140,cs),
(150,168,o),
(128,190,o),
(100,190,cs),
(72,190,o),
(50,169,o),
(50,140,cs),
(50,112,o),
(72,90,o),
(100,90,cs)
);
},
{
closed = 1;
nodes = (
(228,90,o),
(250,112,o),
(250,140,cs),
(250,168,o),
(228,190,o),
(200,190,cs),
(172,190,o),
(150,168,o),
(150,140,cs),
(150,112,o),
(172,90,o),
(200,90,cs)
);
},
{
closed = 1;
nodes = (
(328,90,o),
(350,112,o),
(350,140,cs),
(350,168,o),
(328,190,o),
(300,190,cs),
(272,190,o),
(250,168,o),
(250,140,cs),
(250,112,o),
(272,90,o),
(300,90,cs)
);
},
{
closed = 1;
nodes = (
(128,-10,o),
(150,12,o),
(150,40,cs),
(150,68,o),
(128,90,o),
(100,90,cs),
(72,90,o),
(50,68,o),
(50,40,cs),
(50,12,o),
(72,-10,o),
(100,-10,cs)
);
},
{
closed = 1;
nodes = (
(228,-10,o),
(250,12,o),
(250,40,cs),
(250,68,o),
(228,90,o),
(200,90,cs),
(172,90,o),
(150,68,o),
(150,40,cs),
(150,12,o),
(172,-10,o),
(200,-10,cs)
);
},
{
closed = 1;
nodes = (
(328,-10,o),
(350,12,o),
(350,40,cs),
(350,68,o),
(328,90,o),
(300,90,cs),
(272,90,o),
(250,68,o),
(250,40,cs),
(250,12,o),
(272,-10,o),
(300,-10,cs)
);
}
);
};
layerId = m01;
shapes = (
{
closed = 1;
nodes = (
(283,0,o),
(350,67,o),
(350,150,cs),
(350,350,l),
(282,350,l),
(350,350,l),
(350,433,o),
(283,500,o),
(200,500,cs),
(182,500,o),
(166,497,o),
(150,492,c),
(150,600,l),
(300,600,ls),
(328,600,o),
(350,622,o),
(350,650,cs),
(350,750,ls),
(350,778,o),
(328,800,o),
(300,800,cs),
(100,800,ls),
(72,800,o),
(50,778,o),
(50,750,cs),
(50,350,ls),
(50,322,o),
(72,300,o),
(100,300,cs),
(104,300,l),
(200,300,ls),
(228,300,o),
(250,278,o),
(250,250,cs),
(250,222,o),
(228,200,o),
(200,200,cs),
(172,200,o),
(150,212,o),
(150,240,cs),
(150,268,o),
(128,290,o),
(100,290,cs),
(72,290,o),
(50,268,o),
(50,240,cs),
(50,150,ls),
(50,67,o),
(117,0,o),
(200,0,cs)
);
}
);
width = 400;
}
);
unicode = 53;
},
{
glyphname = six;
lastChange = "2023-02-26 17:17:08 +0000";
layers = (
{
background = {
shapes = (
{
closed = 1;
nodes = (
(128,690,o),
(150,712,o),
(150,740,cs),
(150,768,o),
(128,790,o),
(100,790,cs),
(72,790,o),
(50,768,o),
(50,740,cs),
(50,712,o),
(72,690,o),
(100,690,cs)
);
},
{
closed = 1;
nodes = (
(228,690,o),
(250,712,o),
(250,740,cs),
(250,768,o),
(228,790,o),
(200,790,cs),
(172,790,o),
(150,768,o),
(150,740,cs),
(150,712,o),
(172,690,o),
(200,690,cs)
);
},
{
closed = 1;
nodes = (
(328,690,o),
(350,712,o),
(350,740,cs),
(350,768,o),
(328,790,o),
(300,790,cs),
(272,790,o),
(250,768,o),
(250,740,cs),
(250,712,o),
(272,690,o),
(300,690,cs)
);
},
{
closed = 1;
nodes = (
(128,590,o),
(150,612,o),
(150,640,cs),
(150,668,o),
(128,690,o),
(100,690,cs),
(72,690,o),
(50,668,o),
(50,640,cs),
(50,612,o),
(72,590,o),
(100,590,cs)
);
},
{
closed = 1;
nodes = (
(228,590,o),
(250,612,o),
(250,640,cs),
(250,668,o),
(228,690,o),
(200,690,cs),
(172,690,o),
(150,668,o),
(150,640,cs),
(150,612,o),
(172,590,o),
(200,590,cs)
);
},
{
closed = 1;
nodes = (
(328,590,o),
(350,612,o),
(350,640,cs),
(350,668,o),
(328,690,o),
(300,690,cs),
(272,690,o),
(250,668,o),
(250,640,cs),
(250,612,o),
(272,590,o),
(300,590,cs)
);
},
{
closed = 1;
nodes = (
(128,490,o),
(150,512,o),
(150,540,cs),
(150,568,o),
(128,590,o),
(100,590,cs),
(72,590,o),
(50,568,o),
(50,540,cs),
(50,512,o),
(72,490,o),
(100,490,cs)
);
},
{
closed = 1;
nodes = (
(228,490,o),
(250,512,o),
(250,540,cs),
(250,568,o),
(228,590,o),
(200,590,cs),
(172,590,o),
(150,568,o),
(150,540,cs),
(150,512,o),
(172,490,o),
(200,490,cs)
);
},
{
closed = 1;
nodes = (
(328,490,o),
(350,512,o),
(350,540,cs),
(350,568,o),
(328,590,o),
(300,590,cs),
(272,590,o),
(250,568,o),
(250,540,cs),
(250,512,o),
(272,490,o),
(300,490,cs)
);
},
{
closed = 1;
nodes = (
(128,390,o),
(150,412,o),
(150,440,cs),
(150,468,o),
(128,490,o),
(100,490,cs),
(72,490,o),
(50,468,o),
(50,440,cs),
(50,412,o),
(72,390,o),
(100,390,cs)
);
},
{
closed = 1;
nodes = (
(228,390,o),
(250,412,o),
(250,440,cs),
(250,468,o),
(228,490,o),
(200,490,cs),
(172,490,o),
(150,468,o),
(150,440,cs),
(150,412,o),
(172,390,o),
(200,390,cs)
);
},
{
closed = 1;
nodes = (
(328,390,o),
(350,412,o),
(350,440,cs),
(350,468,o),
(328,490,o),
(300,490,cs),
(272,490,o),
(250,468,o),
(250,440,cs),
(250,412,o),
(272,390,o),
(300,390,cs)
);
},
{
closed = 1;
nodes = (
(128,290,o),
(150,312,o),
(150,340,cs),
(150,368,o),
(128,390,o),
(100,390,cs),
(72,390,o),
(50,368,o),
(50,340,cs),
(50,312,o),
(72,290,o),
(100,290,cs)
);
},
{
closed = 1;
nodes = (
(228,290,o),
(250,312,o),
(250,340,cs),
(250,368,o),
(228,390,o),
(200,390,cs),
(172,390,o),
(150,368,o),
(150,340,cs),
(150,312,o),
(172,290,o),
(200,290,cs)
);
},
{
closed = 1;
nodes = (
(328,290,o),
(350,312,o),
(350,340,cs),
(350,368,o),
(328,390,o),
(300,390,cs),
(272,390,o),
(250,368,o),
(250,340,cs),
(250,312,o),
(272,290,o),
(300,290,cs)
);
},
{
closed = 1;
nodes = (
(128,190,o),
(150,212,o),
(150,240,cs),
(150,268,o),
(128,290,o),
(100,290,cs),
(72,290,o),
(50,268,o),
(50,240,cs),
(50,212,o),
(72,190,o),
(100,190,cs)
);
},
{
closed = 1;
nodes = (
(228,190,o),
(250,212,o),
(250,240,cs),
(250,268,o),
(228,290,o),
(200,290,cs),
(172,290,o),
(150,268,o),
(150,240,cs),
(150,212,o),
(172,190,o),
(200,190,cs)
);
},
{
closed = 1;
nodes = (
(328,190,o),
(350,212,o),
(350,240,cs),
(350,268,o),
(328,290,o),
(300,290,cs),
(272,290,o),
(250,268,o),
(250,240,cs),
(250,212,o),
(272,190,o),
(300,190,cs)
);
},
{
closed = 1;
nodes = (
(128,90,o),
(150,112,o),
(150,140,cs),
(150,168,o),
(128,190,o),
(100,190,cs),
(72,190,o),
(50,169,o),
(50,140,cs),
(50,112,o),
(72,90,o),
(100,90,cs)
);
},
{
closed = 1;
nodes = (
(228,90,o),
(250,112,o),
(250,140,cs),
(250,168,o),
(228,190,o),
(200,190,cs),
(172,190,o),
(150,168,o),
(150,140,cs),
(150,112,o),
(172,90,o),
(200,90,cs)
);
},
{
closed = 1;
nodes = (
(328,90,o),
(350,112,o),
(350,140,cs),
(350,168,o),
(328,190,o),
(300,190,cs),
(272,190,o),
(250,168,o),
(250,140,cs),
(250,112,o),
(272,90,o),
(300,90,cs)
);
},
{
closed = 1;
nodes = (
(128,-10,o),
(150,12,o),
(150,40,cs),
(150,68,o),
(128,90,o),
(100,90,cs),
(72,90,o),
(50,68,o),
(50,40,cs),
(50,12,o),
(72,-10,o),
(100,-10,cs)
);
},
{
closed = 1;
nodes = (
(228,-10,o),
(250,12,o),
(250,40,cs),
(250,68,o),
(228,90,o),
(200,90,cs),
(172,90,o),
(150,68,o),
(150,40,cs),
(150,12,o),
(172,-10,o),
(200,-10,cs)
);
},
{
closed = 1;
nodes = (
(328,-10,o),
(350,12,o),
(350,40,cs),
(350,68,o),
(328,90,o),
(300,90,cs),
(272,90,o),
(250,68,o),
(250,40,cs),
(250,12,o),
(272,-10,o),
(300,-10,cs)
);
}
);
};
layerId = m01;
shapes = (
{
closed = 1;
nodes = (
(50,150,ls),
(50,67,o),
(117,0,o),
(200,0,cs),
(283,0,o),
(350,67,o),
(350,150,cs),
(350,350,ls),
(350,433,o),
(283,500,o),
(200,500,cs),
(182,500,o),
(166,497,o),
(150,492,c),
(150,550,ls),
(150,578,o),
(172,600,o),
(200,600,cs),
(228,600,o),
(250,578,o),
(250,550,cs),
(250,522,o),
(272,500,o),
(300,500,cs),
(328,500,o),
(350,522,o),
(350,550,cs),
(350,650,ls),
(350,733,o),
(283,800,o),
(200,800,cs),
(117,800,o),
(50,733,o),
(50,650,cs)
);
},
{
closed = 1;
nodes = (
(150,278,o),
(172,300,o),
(200,300,cs),
(228,300,o),
(250,278,o),
(250,250,cs),
(250,222,o),
(228,200,o),
(200,200,cs),
(172,200,o),
(150,222,o),
(150,250,cs)
);
}
);
width = 400;
}
);
unicode = 54;
},
{
glyphname = seven;
lastChange = "2023-02-26 17:17:08 +0000";
layers = (
{
background = {
shapes = (
{
closed = 1;
nodes = (
(128,690,o),
(150,712,o),
(150,740,cs),
(150,768,o),
(128,790,o),
(100,790,cs),
(72,790,o),
(50,768,o),
(50,740,cs),
(50,712,o),
(72,690,o),
(100,690,cs)
);
},
{
closed = 1;
nodes = (
(228,690,o),
(250,712,o),
(250,740,cs),
(250,768,o),
(228,790,o),
(200,790,cs),
(172,790,o),
(150,768,o),
(150,740,cs),
(150,712,o),
(172,690,o),
(200,690,cs)
);
},
{
closed = 1;
nodes = (
(328,690,o),
(350,712,o),
(350,740,cs),
(350,768,o),
(328,790,o),
(300,790,cs),
(272,790,o),
(250,768,o),
(250,740,cs),
(250,712,o),
(272,690,o),
(300,690,cs)
);
},
{
closed = 1;
nodes = (
(128,590,o),
(150,612,o),
(150,640,cs),
(150,668,o),
(128,690,o),
(100,690,cs),
(72,690,o),
(50,668,o),
(50,640,cs),
(50,612,o),
(72,590,o),
(100,590,cs)
);
},
{
closed = 1;
nodes = (
(228,590,o),
(250,612,o),
(250,640,cs),
(250,668,o),
(228,690,o),
(200,690,cs),
(172,690,o),
(150,668,o),
(150,640,cs),
(150,612,o),
(172,590,o),
(200,590,cs)
);
},
{
closed = 1;
nodes = (
(328,590,o),
(350,612,o),
(350,640,cs),
(350,668,o),
(328,690,o),
(300,690,cs),
(272,690,o),
(250,668,o),
(250,640,cs),
(250,612,o),
(272,590,o),
(300,590,cs)
);
},
{
closed = 1;
nodes = (
(128,490,o),
(150,512,o),
(150,540,cs),
(150,568,o),
(128,590,o),
(100,590,cs),
(72,590,o),
(50,568,o),
(50,540,cs),
(50,512,o),
(72,490,o),
(100,490,cs)
);
},
{
closed = 1;
nodes = (
(228,490,o),
(250,512,o),
(250,540,cs),
(250,568,o),
(228,590,o),
(200,590,cs),
(172,590,o),
(150,568,o),
(150,540,cs),
(150,512,o),
(172,490,o),
(200,490,cs)
);
},
{
closed = 1;
nodes = (
(328,490,o),
(350,512,o),
(350,540,cs),
(350,568,o),
(328,590,o),
(300,590,cs),
(272,590,o),
(250,568,o),
(250,540,cs),
(250,512,o),
(272,490,o),
(300,490,cs)
);
},
{
closed = 1;
nodes = (
(128,390,o),
(150,412,o),
(150,440,cs),
(150,468,o),
(128,490,o),
(100,490,cs),
(72,490,o),
(50,468,o),
(50,440,cs),
(50,412,o),
(72,390,o),
(100,390,cs)
);
},
{
closed = 1;
nodes = (
(228,390,o),
(250,412,o),
(250,440,cs),
(250,468,o),
(228,490,o),
(200,490,cs),
(172,490,o),
(150,468,o),
(150,440,cs),
(150,412,o),
(172,390,o),
(200,390,cs)
);
},
{
closed = 1;
nodes = (
(328,390,o),
(350,412,o),
(350,440,cs),
(350,468,o),
(328,490,o),
(300,490,cs),
(272,490,o),
(250,468,o),
(250,440,cs),
(250,412,o),
(272,390,o),
(300,390,cs)
);
},
{
closed = 1;
nodes = (
(128,290,o),
(150,312,o),
(150,340,cs),
(150,368,o),
(128,390,o),
(100,390,cs),
(72,390,o),
(50,368,o),
(50,340,cs),
(50,312,o),
(72,290,o),
(100,290,cs)
);
},
{
closed = 1;
nodes = (
(228,290,o),
(250,312,o),
(250,340,cs),
(250,368,o),
(228,390,o),
(200,390,cs),
(172,390,o),
(150,368,o),
(150,340,cs),
(150,312,o),
(172,290,o),
(200,290,cs)
);
},
{
closed = 1;
nodes = (
(328,290,o),
(350,312,o),
(350,340,cs),
(350,368,o),
(328,390,o),
(300,390,cs),
(272,390,o),
(250,368,o),
(250,340,cs),
(250,312,o),
(272,290,o),
(300,290,cs)
);
},
{
closed = 1;
nodes = (
(128,190,o),
(150,212,o),
(150,240,cs),
(150,268,o),
(128,290,o),
(100,290,cs),
(72,290,o),
(50,268,o),
(50,240,cs),
(50,212,o),
(72,190,o),
(100,190,cs)
);
},
{
closed = 1;
nodes = (
(228,190,o),
(250,212,o),
(250,240,cs),
(250,268,o),
(228,290,o),
(200,290,cs),
(172,290,o),
(150,268,o),
(150,240,cs),
(150,212,o),
(172,190,o),
(200,190,cs)
);
},
{
closed = 1;
nodes = (
(328,190,o),
(350,212,o),
(350,240,cs),
(350,268,o),
(328,290,o),
(300,290,cs),
(272,290,o),
(250,268,o),
(250,240,cs),
(250,212,o),
(272,190,o),
(300,190,cs)
);
},
{
closed = 1;
nodes = (
(128,90,o),
(150,112,o),
(150,140,cs),
(150,168,o),
(128,190,o),
(100,190,cs),
(72,190,o),
(50,169,o),
(50,140,cs),
(50,112,o),
(72,90,o),
(100,90,cs)
);
},
{
closed = 1;
nodes = (
(228,90,o),
(250,112,o),
(250,140,cs),
(250,168,o),
(228,190,o),
(200,190,cs),
(172,190,o),
(150,168,o),
(150,140,cs),
(150,112,o),
(172,90,o),
(200,90,cs)
);
},
{
closed = 1;
nodes = (
(328,90,o),
(350,112,o),
(350,140,cs),
(350,168,o),
(328,190,o),
(300,190,cs),
(272,190,o),
(250,168,o),
(250,140,cs),
(250,112,o),
(272,90,o),
(300,90,cs)
);
},
{
closed = 1;
nodes = (
(128,-10,o),
(150,12,o),
(150,40,cs),
(150,68,o),
(128,90,o),
(100,90,cs),
(72,90,o),
(50,68,o),
(50,40,cs),
(50,12,o),
(72,-10,o),
(100,-10,cs)
);
},
{
closed = 1;
nodes = (
(228,-10,o),
(250,12,o),
(250,40,cs),
(250,68,o),
(228,90,o),
(200,90,cs),
(172,90,o),
(150,68,o),
(150,40,cs),
(150,12,o),
(172,-10,o),
(200,-10,cs)
);
},
{
closed = 1;
nodes = (
(328,-10,o),
(350,12,o),
(350,40,cs),
(350,68,o),
(328,90,o),
(300,90,cs),
(272,90,o),
(250,68,o),
(250,40,cs),
(250,12,o),
(272,-10,o),
(300,-10,cs)
);
}
);
};
layerId = m01;
shapes = (
{
closed = 1;
nodes = (
(230,600,l),
(55,72,l),
(52,66,o),
(50,58,o),
(50,50,cs),
(50,22,o),
(72,0,o),
(100,0,cs),
(119,0,o),
(136,11,o),
(144,26,c),
(348,635,l),
(349,640,o),
(350,645,o),
(350,650,cs),
(350,750,ls),
(350,778,o),
(328,800,o),
(300,800,cs),
(100,800,ls),
(72,800,o),
(50,778,o),
(50,750,cs),
(50,650,ls),
(50,622,o),
(72,600,o),
(100,600,cs)
);
}
);
width = 400;
}
);
unicode = 55;
},
{
glyphname = eight;
lastChange = "2023-02-26 17:17:08 +0000";
layers = (
{
background = {
shapes = (
{
closed = 1;
nodes = (
(128,690,o),
(150,712,o),
(150,740,cs),
(150,768,o),
(128,790,o),
(100,790,cs),
(72,790,o),
(50,768,o),
(50,740,cs),
(50,712,o),
(72,690,o),
(100,690,cs)
);
},
{
closed = 1;
nodes = (
(228,690,o),
(250,712,o),
(250,740,cs),
(250,768,o),
(228,790,o),
(200,790,cs),
(172,790,o),
(150,768,o),
(150,740,cs),
(150,712,o),
(172,690,o),
(200,690,cs)
);
},
{
closed = 1;
nodes = (
(328,690,o),
(350,712,o),
(350,740,cs),
(350,768,o),
(328,790,o),
(300,790,cs),
(272,790,o),
(250,768,o),
(250,740,cs),
(250,712,o),
(272,690,o),
(300,690,cs)
);
},
{
closed = 1;
nodes = (
(128,590,o),
(150,612,o),
(150,640,cs),
(150,668,o),
(128,690,o),
(100,690,cs),
(72,690,o),
(50,668,o),
(50,640,cs),
(50,612,o),
(72,590,o),
(100,590,cs)
);
},
{
closed = 1;
nodes = (
(228,590,o),
(250,612,o),
(250,640,cs),
(250,668,o),
(228,690,o),
(200,690,cs),
(172,690,o),
(150,668,o),
(150,640,cs),
(150,612,o),
(172,590,o),
(200,590,cs)
);
},
{
closed = 1;
nodes = (
(328,590,o),
(350,612,o),
(350,640,cs),
(350,668,o),
(328,690,o),
(300,690,cs),
(272,690,o),
(250,668,o),
(250,640,cs),
(250,612,o),
(272,590,o),
(300,590,cs)
);
},
{
closed = 1;
nodes = (
(128,490,o),
(150,512,o),
(150,540,cs),
(150,568,o),
(128,590,o),
(100,590,cs),
(72,590,o),
(50,568,o),
(50,540,cs),
(50,512,o),
(72,490,o),
(100,490,cs)
);
},
{
closed = 1;
nodes = (
(228,490,o),
(250,512,o),
(250,540,cs),
(250,568,o),
(228,590,o),
(200,590,cs),
(172,590,o),
(150,568,o),
(150,540,cs),
(150,512,o),
(172,490,o),
(200,490,cs)
);
},
{
closed = 1;
nodes = (
(328,490,o),
(350,512,o),
(350,540,cs),
(350,568,o),
(328,590,o),
(300,590,cs),
(272,590,o),
(250,568,o),
(250,540,cs),
(250,512,o),
(272,490,o),
(300,490,cs)
);
},
{
closed = 1;
nodes = (
(128,390,o),
(150,412,o),
(150,440,cs),
(150,468,o),
(128,490,o),
(100,490,cs),
(72,490,o),
(50,468,o),
(50,440,cs),
(50,412,o),
(72,390,o),
(100,390,cs)
);
},
{
closed = 1;
nodes = (
(228,390,o),
(250,412,o),
(250,440,cs),
(250,468,o),
(228,490,o),
(200,490,cs),
(172,490,o),
(150,468,o),
(150,440,cs),
(150,412,o),
(172,390,o),
(200,390,cs)
);
},
{
closed = 1;
nodes = (
(328,390,o),
(350,412,o),
(350,440,cs),
(350,468,o),
(328,490,o),
(300,490,cs),
(272,490,o),
(250,468,o),
(250,440,cs),
(250,412,o),
(272,390,o),
(300,390,cs)
);
},
{
closed = 1;
nodes = (
(128,290,o),
(150,312,o),
(150,340,cs),
(150,368,o),
(128,390,o),
(100,390,cs),
(72,390,o),
(50,368,o),
(50,340,cs),
(50,312,o),
(72,290,o),
(100,290,cs)
);
},
{
closed = 1;
nodes = (
(228,290,o),
(250,312,o),
(250,340,cs),
(250,368,o),
(228,390,o),
(200,390,cs),
(172,390,o),
(150,368,o),
(150,340,cs),
(150,312,o),
(172,290,o),
(200,290,cs)
);
},
{
closed = 1;
nodes = (
(328,290,o),
(350,312,o),
(350,340,cs),
(350,368,o),
(328,390,o),
(300,390,cs),
(272,390,o),
(250,368,o),
(250,340,cs),
(250,312,o),
(272,290,o),
(300,290,cs)
);
},
{
closed = 1;
nodes = (
(128,190,o),
(150,212,o),
(150,240,cs),
(150,268,o),
(128,290,o),
(100,290,cs),
(72,290,o),
(50,268,o),
(50,240,cs),
(50,212,o),
(72,190,o),
(100,190,cs)
);
},
{
closed = 1;
nodes = (
(228,190,o),
(250,212,o),
(250,240,cs),
(250,268,o),
(228,290,o),
(200,290,cs),
(172,290,o),
(150,268,o),
(150,240,cs),
(150,212,o),
(172,190,o),
(200,190,cs)
);
},
{
closed = 1;
nodes = (
(328,190,o),
(350,212,o),
(350,240,cs),
(350,268,o),
(328,290,o),
(300,290,cs),
(272,290,o),
(250,268,o),
(250,240,cs),
(250,212,o),
(272,190,o),
(300,190,cs)
);
},
{
closed = 1;
nodes = (
(128,90,o),
(150,112,o),
(150,140,cs),
(150,168,o),
(128,190,o),
(100,190,cs),
(72,190,o),
(50,169,o),
(50,140,cs),
(50,112,o),
(72,90,o),
(100,90,cs)
);
},
{
closed = 1;
nodes = (
(228,90,o),
(250,112,o),
(250,140,cs),
(250,168,o),
(228,190,o),
(200,190,cs),
(172,190,o),
(150,168,o),
(150,140,cs),
(150,112,o),
(172,90,o),
(200,90,cs)
);
},
{
closed = 1;
nodes = (
(328,90,o),
(350,112,o),
(350,140,cs),
(350,168,o),
(328,190,o),
(300,190,cs),
(272,190,o),
(250,168,o),
(250,140,cs),
(250,112,o),
(272,90,o),
(300,90,cs)
);
},
{
closed = 1;
nodes = (
(128,-10,o),
(150,12,o),
(150,40,cs),
(150,68,o),
(128,90,o),
(100,90,cs),
(72,90,o),
(50,68,o),
(50,40,cs),
(50,12,o),
(72,-10,o),
(100,-10,cs)
);
},
{
closed = 1;
nodes = (
(228,-10,o),
(250,12,o),
(250,40,cs),
(250,68,o),
(228,90,o),
(200,90,cs),
(172,90,o),
(150,68,o),
(150,40,cs),
(150,12,o),
(172,-10,o),
(200,-10,cs)
);
},
{
closed = 1;
nodes = (
(328,-10,o),
(350,12,o),
(350,40,cs),
(350,68,o),
(328,90,o),
(300,90,cs),
(272,90,o),
(250,68,o),
(250,40,cs),
(250,12,o),
(272,-10,o),
(300,-10,cs)
);
}
);
};
layerId = m01;
shapes = (
{
closed = 1;
nodes = (
(283,0,o),
(350,67,o),
(350,150,cs),
(350,300,ls),
(350,338,o),
(336,373,o),
(312,400,c),
(336,427,o),
(350,462,o),
(350,500,cs),
(350,650,ls),
(350,733,o),
(283,800,o),
(200,800,cs),
(117,800,o),
(50,733,o),
(50,650,cs),
(50,500,ls),
(50,462,o),
(64,427,o),
(88,400,c),
(64,373,o),
(50,338,o),
(50,300,cs),
(50,150,ls),
(50,67,o),
(117,0,o),
(200,0,cs)
);
},
{
closed = 1;
nodes = (
(150,278,o),
(172,300,o),
(200,300,cs),
(228,300,o),
(250,278,o),
(250,250,cs),
(250,222,o),
(228,200,o),
(200,200,cs),
(172,200,o),
(150,222,o),
(150,250,cs)
);
},
{
closed = 1;
nodes = (
(150,578,o),
(172,600,o),
(200,600,cs),
(228,600,o),
(250,578,o),
(250,550,cs),
(250,522,o),
(228,500,o),
(200,500,cs),
(172,500,o),
(150,522,o),
(150,550,cs)
);
}
);
width = 400;
}
);
unicode = 56;
},
{
glyphname = nine;
lastChange = "2023-02-26 17:17:08 +0000";
layers = (
{
layerId = m01;
shapes = (
{
closed = 1;
nodes = (
(350,650,ls),
(350,733,o),
(283,800,o),
(200,800,cs),
(117,800,o),
(50,733,o),
(50,650,cs),
(50,450,ls),
(50,367,o),
(117,300,o),
(200,300,cs),
(218,300,o),
(234,303,o),
(250,308,c),
(250,250,ls),
(250,222,o),
(228,200,o),
(200,200,cs),
(172,200,o),
(150,222,o),
(150,250,cs),
(150,278,o),
(128,300,o),
(100,300,cs),
(72,300,o),
(50,278,o),
(50,250,cs),
(50,150,ls),
(50,67,o),
(117,0,o),
(200,0,cs),
(283,0,o),
(350,67,o),
(350,150,cs)
);
},
{
closed = 1;
nodes = (
(150,578,o),
(172,600,o),
(200,600,cs),
(228,600,o),
(250,578,o),
(250,550,cs),
(250,522,o),
(228,500,o),
(200,500,cs),
(172,500,o),
(150,522,o),
(150,550,cs)
);
}
);
width = 400;
}
);
unicode = 57;
},
{
glyphname = period;
lastChange = "2023-02-26 17:17:51 +0000";
layers = (
{
layerId = m01;
shapes = (
{
closed = 1;
nodes = (
(50,33,o),
(54,22,o),
(62,13,cs),
(69,4,o),
(78,0,o),
(89,0,cs),
(100,0,o),
(110,4,o),
(118,13,cs),
(126,22,o),
(129,33,o),
(129,46,cs),
(129,59,o),
(126,70,o),
(118,80,cs),
(110,89,o),
(100,93,o),
(89,93,cs),
(78,93,o),
(69,89,o),
(62,80,cs),
(54,70,o),
(50,59,o),
(50,46,cs)
);
}
);
width = 179;
}
);
unicode = 46;
},
{
glyphname = comma;
lastChange = "2023-02-26 17:17:56 +0000";
layers = (
{
layerId = m01;
shapes = (
{
closed = 1;
nodes = (
(57,71,o),
(66,67,o),
(79,67,cs),
(92,68,o),
(94,55,o),
(85,29,cs),
(74,1,o),
(53,-36,o),
(21,-83,cs),
(15,-93,o),
(17,-101,o),
(26,-108,cs),
(36,-115,o),
(44,-113,o),
(51,-104,cs),
(85,-54,o),
(108,-14,o),
(119,18,cs),
(134,57,o),
(133,88,o),
(115,111,cs),
(106,124,o),
(93,125,o),
(74,114,cs),
(55,103,o),
(48,92,o),
(53,80,cs)
);
}
);
width = 179;
}
);
unicode = 44;
},
{
glyphname = colon;
lastChange = "2023-02-26 17:17:58 +0000";
layers = (
{
layerId = m01;
shapes = (
{
closed = 1;
nodes = (
(50,352,o),
(54,341,o),
(62,332,cs),
(69,323,o),
(78,319,o),
(89,319,cs),
(100,319,o),
(110,323,o),
(118,332,cs),
(126,341,o),
(129,352,o),
(129,365,cs),
(129,378,o),
(126,389,o),
(118,398,cs),
(110,407,o),
(100,412,o),
(89,412,cs),
(78,412,o),
(69,407,o),
(62,398,cs),
(54,389,o),
(50,378,o),
(50,365,cs)
);
},
{
closed = 1;
nodes = (
(50,33,o),
(54,22,o),
(62,13,cs),
(69,4,o),
(78,0,o),
(89,0,cs),
(100,0,o),
(110,4,o),
(118,13,cs),
(126,22,o),
(129,33,o),
(129,46,cs),
(129,59,o),
(126,70,o),
(118,80,cs),
(110,89,o),
(100,93,o),
(89,93,cs),
(78,93,o),
(69,89,o),
(62,80,cs),
(54,70,o),
(50,59,o),
(50,46,cs)
);
}
);
width = 179;
}
);
unicode = 58;
},
{
glyphname = semicolon;
lastChange = "2023-02-26 17:18:09 +0000";
layers = (
{
guides = (
{
pos = (13,309);
}
);
layerId = m01;
shapes = (
{
closed = 1;
nodes = (
(57,71,o),
(66,67,o),
(79,67,cs),
(92,68,o),
(94,55,o),
(85,29,cs),
(74,1,o),
(53,-36,o),
(21,-83,cs),
(15,-93,o),
(17,-101,o),
(26,-108,cs),
(36,-115,o),
(44,-113,o),
(51,-104,cs),
(85,-54,o),
(108,-14,o),
(119,18,cs),
(134,57,o),
(133,88,o),
(115,111,cs),
(106,124,o),
(93,125,o),
(74,114,cs),
(55,103,o),
(48,92,o),
(53,80,cs)
);
},
{
closed = 1;
nodes = (
(49,352,o),
(52,341,o),
(60,332,cs),
(68,323,o),
(77,319,o),
(88,319,cs),
(99,319,o),
(108,323,o),
(116,332,cs),
(124,341,o),
(128,352,o),
(128,365,cs),
(128,378,o),
(124,389,o),
(116,398,cs),
(108,408,o),
(99,412,o),
(88,412,cs),
(77,412,o),
(68,408,o),
(60,398,cs),
(52,389,o),
(49,378,o),
(49,365,cs)
);
}
);
width = 179;
}
);
unicode = 59;
},
{
glyphname = ellipsis;
lastChange = "2023-02-26 17:18:09 +0000";
layers = (
{
layerId = m01;
shapes = (
{
closed = 1;
nodes = (
(50,33,o),
(54,22,o),
(61,13,cs),
(69,4,o),
(78,0,o),
(89,0,cs),
(100,0,o),
(109,4,o),
(117,13,cs),
(125,22,o),
(129,33,o),
(129,46,cs),
(129,59,o),
(125,70,o),
(117,80,cs),
(109,89,o),
(100,93,o),
(89,93,cs),
(78,93,o),
(69,89,o),
(61,80,cs),
(54,70,o),
(50,59,o),
(50,46,cs)
);
},
{
closed = 1;
nodes = (
(208,33,o),
(212,22,o),
(220,13,cs),
(227,4,o),
(236,0,o),
(247,0,cs),
(258,0,o),
(268,4,o),
(276,13,cs),
(284,22,o),
(287,33,o),
(287,46,cs),
(287,59,o),
(284,70,o),
(276,80,cs),
(268,89,o),
(258,93,o),
(247,93,cs),
(236,93,o),
(227,89,o),
(220,80,cs),
(212,70,o),
(208,59,o),
(208,46,cs)
);
},
{
closed = 1;
nodes = (
(367,33,o),
(371,22,o),
(378,13,cs),
(386,4,o),
(395,0,o),
(406,0,cs),
(417,0,o),
(426,4,o),
(434,13,cs),
(442,22,o),
(446,33,o),
(446,46,cs),
(446,59,o),
(442,70,o),
(434,80,cs),
(426,89,o),
(417,93,o),
(406,93,cs),
(395,93,o),
(386,89,o),
(378,80,cs),
(371,70,o),
(367,59,o),
(367,46,cs)
);
}
);
width = 496;
}
);
unicode = 8230;
},
{
glyphname = exclam;
lastChange = "2023-02-26 17:18:09 +0000";
layers = (
{
layerId = m01;
shapes = (
{
closed = 1;
nodes = (
(50,59,o),
(54,70,o),
(62,80,cs),
(69,89,o),
(78,93,o),
(89,93,cs),
(100,93,o),
(110,89,o),
(118,80,cs),
(126,70,o),
(129,59,o),
(129,46,cs),
(129,33,o),
(126,22,o),
(118,13,cs),
(110,4,o),
(100,0,o),
(89,0,cs),
(78,0,o),
(69,4,o),
(62,13,cs),
(54,22,o),
(50,33,o),
(50,46,cs)
);
},
{
closed = 1;
nodes = (
(107,782,ls),
(107,794,o),
(101,800,o),
(89,800,cs),
(77,800,o),
(71,794,o),
(71,782,cs),
(71,173,ls),
(71,161,o),
(77,156,o),
(89,156,cs),
(101,156,o),
(107,161,o),
(107,173,cs)
);
}
);
width = 179;
}
);
unicode = 33;
},
{
glyphname = exclamdown;
lastChange = "2023-02-26 17:18:09 +0000";
layers = (
{
layerId = m01;
shapes = (
{
closed = 1;
nodes = (
(50,570,o),
(54,581,o),
(62,590,cs),
(69,599,o),
(78,603,o),
(89,603,cs),
(100,603,o),
(110,599,o),
(118,590,cs),
(126,581,o),
(129,570,o),
(129,557,cs),
(129,544,o),
(126,533,o),
(118,523,cs),
(110,514,o),
(100,510,o),
(89,510,cs),
(78,510,o),
(69,514,o),
(62,523,cs),
(54,533,o),
(50,544,o),
(50,557,cs)
);
},
{
closed = 1;
nodes = (
(107,443,o),
(101,448,o),
(89,448,cs),
(77,448,o),
(71,443,o),
(71,431,cs),
(71,-182,ls),
(71,-194,o),
(77,-200,o),
(89,-200,cs),
(101,-200,o),
(107,-194,o),
(107,-182,cs),
(107,431,ls)
);
}
);
width = 179;
}
);
unicode = 161;
},
{
glyphname = question;
lastChange = "2023-02-26 17:18:09 +0000";
layers = (
{
layerId = m01;
shapes = (
{
closed = 1;
nodes = (
(48,633,o),
(51,625,o),
(61,622,c),
(72,617,o),
(80,620,o),
(84,632,cs),
(101,677,o),
(124,710,o),
(152,733,cs),
(181,754,o),
(215,765,o),
(255,765,cs),
(303,765,o),
(344,752,o),
(377,727,cs),
(408,703,o),
(426,671,o),
(432,631,c),
(435,572,o),
(427,530,o),
(408,504,cs),
(389,478,o),
(367,454,o),
(344,434,cs),
(314,409,o),
(287,379,o),
(262,344,cs),
(238,309,o),
(228,250,o),
(233,169,cs),
(234,157,o),
(240,151,o),
(252,152,cs),
(264,152,o),
(269,158,o),
(269,170,cs),
(264,244,o),
(272,296,o),
(294,327,cs),
(316,358,o),
(340,385,o),
(367,407,cs),
(394,430,o),
(418,457,o),
(440,487,cs),
(461,518,o),
(470,562,o),
(468,619,cs),
(465,677,o),
(442,722,o),
(398,755,cs),
(358,785,o),
(311,800,o),
(255,800,cs),
(207,800,o),
(165,787,o),
(131,760,cs),
(97,734,o),
(70,695,o),
(52,644,cs)
);
},
{
closed = 1;
nodes = (
(217,59,o),
(221,70,o),
(228,80,cs),
(236,89,o),
(245,93,o),
(256,93,cs),
(267,93,o),
(276,89,o),
(284,80,cs),
(292,70,o),
(296,59,o),
(296,46,cs),
(296,33,o),
(292,22,o),
(284,13,cs),
(276,4,o),
(267,0,o),
(256,0,cs),
(245,0,o),
(236,4,o),
(228,13,cs),
(221,22,o),
(217,33,o),
(217,46,cs)
);
}
);
width = 518;
}
);
unicode = 63;
},
{
glyphname = questiondown;
lastChange = "2023-02-26 17:18:09 +0000";
layers = (
{
layerId = m01;
shapes = (
{
closed = 1;
nodes = (
(470,-33,o),
(467,-25,o),
(457,-22,c),
(446,-17,o),
(438,-20,o),
(434,-32,cs),
(417,-77,o),
(394,-110,o),
(366,-133,cs),
(337,-154,o),
(303,-165,o),
(263,-165,cs),
(215,-165,o),
(174,-152,o),
(141,-127,cs),
(110,-103,o),
(92,-71,o),
(86,-31,c),
(83,28,o),
(91,70,o),
(110,96,cs),
(129,122,o),
(151,146,o),
(174,166,cs),
(204,191,o),
(231,221,o),
(256,256,cs),
(280,291,o),
(290,350,o),
(285,431,cs),
(284,443,o),
(278,449,o),
(266,448,cs),
(254,448,o),
(249,442,o),
(249,430,cs),
(254,356,o),
(246,304,o),
(224,273,cs),
(202,242,o),
(178,215,o),
(151,193,cs),
(124,170,o),
(100,143,o),
(78,113,cs),
(57,82,o),
(48,38,o),
(50,-19,cs),
(53,-77,o),
(76,-122,o),
(120,-155,cs),
(160,-185,o),
(207,-200,o),
(263,-200,cs),
(311,-200,o),
(353,-187,o),
(387,-160,cs),
(421,-134,o),
(448,-95,o),
(466,-44,cs)
);
},
{
closed = 1;
nodes = (
(301,544,o),
(297,533,o),
(290,523,cs),
(282,514,o),
(273,510,o),
(262,510,cs),
(251,510,o),
(242,514,o),
(234,523,cs),
(226,533,o),
(222,544,o),
(222,557,cs),
(222,570,o),
(226,581,o),
(234,590,cs),
(242,599,o),
(251,603,o),
(262,603,cs),
(273,603,o),
(282,599,o),
(290,590,cs),
(297,581,o),
(301,570,o),
(301,557,cs)
);
}
);
width = 518;
}
);
unicode = 191;
},
{
glyphname = bullet;
lastChange = "2023-02-26 17:18:09 +0000";
layers = (
{
guides = (
{
pos = (-142,391);
}
);
layerId = m01;
shapes = (
{
closed = 1;
nodes = (
(95,477,o),
(81,471,o),
(70,455,cs),
(60,439,o),
(54,423,o),
(52,409,cs),
(48,392,o),
(49,375,o),
(55,358,cs),
(60,341,o),
(72,331,o),
(90,327,cs),
(110,325,o),
(126,332,o),
(137,350,cs),
(147,367,o),
(154,385,o),
(155,402,cs),
(156,416,o),
(154,431,o),
(148,447,cs),
(142,462,o),
(131,471,o),
(114,474,cs)
);
}
);
width = 205;
}
);
unicode = 8226;
},
{
glyphname = asterisk;
lastChange = "2023-02-26 17:18:09 +0000";
layers = (
{
layerId = m01;
shapes = (
{
closed = 1;
nodes = (
(256,682,ls),
(267,681,o),
(273,687,o),
(273,699,cs),
(273,712,o),
(267,718,o),
(256,719,cs),
(192,719,l),
(225,773,ls),
(231,783,o),
(229,791,o),
(218,797,cs),
(207,803,o),
(199,801,o),
(192,792,cs),
(161,738,l),
(130,790,ls),
(125,801,o),
(117,803,o),
(107,797,cs),
(95,792,o),
(93,783,o),
(99,772,cs),
(130,719,l),
(68,719,ls),
(56,719,o),
(50,713,o),
(50,702,cs),
(49,689,o),
(55,683,o),
(68,683,cs),
(129,682,l),
(97,629,ls),
(92,618,o),
(94,610,o),
(104,604,cs),
(114,598,o),
(123,600,o),
(129,611,cs),
(161,665,l),
(193,609,ls),
(198,599,o),
(206,597,o),
(217,603,cs),
(228,609,o),
(230,617,o),
(225,627,cs),
(192,682,l)
);
}
);
width = 323;
}
);
unicode = 42;
},
{
glyphname = numbersign;
lastChange = "2023-02-26 17:20:00 +0000";
layers = (
{
layerId = m01;
shapes = (
{
closed = 1;
nodes = (
(241,568,ls),
(246,579,o),
(243,587,o),
(232,592,cs),
(220,597,o),
(213,593,o),
(208,582,cs),
(157,466,l),
(93,466,ls),
(81,466,o),
(75,460,o),
(75,448,cs),
(75,435,o),
(81,429,o),
(93,429,cs),
(141,429,l),
(101,335,l),
(74,335,ls),
(61,335,o),
(55,330,o),
(55,318,cs),
(55,306,o),
(61,299,o),
(74,299,cs),
(86,299,l),
(52,221,ls),
(47,210,o),
(50,202,o),
(61,198,cs),
(73,192,o),
(81,195,o),
(86,207,cs),
(125,299,l),
(182,299,l),
(148,221,ls),
(143,210,o),
(147,202,o),
(158,198,c),
(169,192,o),
(177,195,o),
(182,207,cs),
(221,298,l),
(296,298,ls),
(308,298,o),
(314,304,o),
(314,317,cs),
(314,329,o),
(308,335,o),
(296,335,cs),
(236,335,l),
(276,428,l),
(315,428,ls),
(328,428,o),
(334,434,o),
(334,447,cs),
(334,459,o),
(328,466,o),
(315,466,cs),
(293,466,l),
(337,568,ls),
(342,580,o),
(339,587,o),
(327,592,cs),
(316,597,o),
(309,593,o),
(304,582,cs),
(253,466,l),
(196,466,l)
);
},
{
closed = 1;
nodes = (
(141,348,l),
(181,442,l),
(237,441,l),
(198,348,l)
);
}
);
width = 389;
}
);
unicode = 35;
},
{
glyphname = slash;
lastChange = "2023-02-26 17:18:09 +0000";
layers = (
{
layerId = m01;
shapes = (
{
closed = 1;
nodes = (
(446,769,ls),
(451,779,o),
(448,787,o),
(438,792,cs),
(427,798,o),
(419,795,o),
(414,785,cs),
(52,35,ls),
(47,25,o),
(50,17,o),
(60,13,cs),
(71,7,o),
(79,10,o),
(84,20,cs)
);
}
);
width = 498;
}
);
unicode = 47;
},
{
glyphname = hyphen;
lastChange = "2023-02-26 17:18:09 +0000";
layers = (
{
guides = (
{
pos = (129,390);
}
);
layerId = m01;
shapes = (
{
closed = 1;
nodes = (
(316,380,ls),
(328,380,o),
(334,385,o),
(334,397,cs),
(334,410,o),
(328,417,o),
(316,417,cs),
(18,417,ls),
(6,417,o),
(0,411,o),
(0,400,cs),
(0,387,o),
(6,381,o),
(18,381,cs)
);
}
);
width = 334;
}
);
unicode = 45;
},
{
glyphname = emdash;
lastChange = "2023-02-26 17:18:09 +0000";
layers = (
{
layerId = m01;
shapes = (
{
closed = 1;
nodes = (
(441,380,ls),
(452,379,o),
(458,385,o),
(458,397,cs),
(458,410,o),
(452,416,o),
(441,417,cs),
(18,417,ls),
(5,417,o),
(-1,411,o),
(0,400,cs),
(-1,387,o),
(5,381,o),
(18,381,cs)
);
}
);
width = 458;
}
);
unicode = 8212;
},
{
glyphname = hyphen.001;
lastChange = "2023-02-26 17:18:09 +0000";
layers = (
{
layerId = m01;
shapes = (
{
closed = 1;
nodes = (
(364,356,ls),
(376,355,o),
(382,361,o),
(382,373,cs),
(382,386,o),
(376,392,o),
(364,393,cs),
(68,393,ls),
(56,393,o),
(50,387,o),
(50,375,cs),
(50,363,o),
(56,357,o),
(68,357,cs)
);
}
);
width = 432;
}
);
},
{
glyphname = parenleft;
lastChange = "2023-02-26 17:18:09 +0000";
layers = (
{
layerId = m01;
shapes = (
{
closed = 1;
nodes = (
(196,861,o),
(194,869,o),
(183,874,cs),
(173,879,o),
(165,876,o),
(161,866,cs),
(86,717,o),
(49,565,o),
(50,409,cs),
(52,257,o),
(89,105,o),
(160,-46,cs),
(165,-55,o),
(173,-58,o),
(183,-54,c),
(194,-48,o),
(196,-41,o),
(191,-31,cs),
(121,117,o),
(85,264,o),
(85,409,cs),
(84,559,o),
(120,705,o),
(191,850,cs)
);
}
);
width = 194;
}
);
unicode = 40;
},
{
glyphname = parenright;
lastChange = "2023-02-26 17:18:09 +0000";
layers = (
{
guides = (
{
angle = 180;
pos = (-200,-66);
}
);
layerId = m01;
shapes = (
{
closed = 1;
nodes = (
(-2,-41,o),
(0,-49,o),
(11,-54,cs),
(21,-59,o),
(29,-56,o),
(34,-46,cs),
(108,103,o),
(145,255,o),
(144,411,cs),
(142,564,o),
(106,715,o),
(34,866,cs),
(29,876,o),
(21,879,o),
(11,874,c),
(0,869,o),
(-2,861,o),
(3,851,cs),
(74,703,o),
(109,556,o),
(110,411,cs),
(110,262,o),
(75,115,o),
(3,-30,cs)
);
}
);
width = 194;
}
);
unicode = 41;
},
{
glyphname = braceleft;
lastChange = "2023-02-26 17:18:09 +0000";
layers = (
{
guides = (
{
angle = 180;
pos = (-202,-66);
}
);
layerId = m01;
shapes = (
{
closed = 1;
nodes = (
(257,850,o),
(258,858,o),
(252,868,cs),
(245,878,o),
(237,880,o),
(228,872,c),
(171,832,o),
(141,792,o),
(136,752,cs),
(131,712,o),
(131,672,o),
(136,632,cs),
(140,597,o),
(139,562,o),
(135,528,cs),
(130,493,o),
(105,458,o),
(58,424,c),
(68,409,l),
(58,424,l),
(49,416,o),
(48,408,o),
(54,400,c),
(55,397,o),
(56,396,o),
(58,395,c),
(105,361,o),
(130,326,o),
(135,292,cs),
(139,257,o),
(140,222,o),
(136,187,cs),
(131,147,o),
(131,107,o),
(136,68,cs),
(141,28,o),
(171,-12,o),
(228,-52,c),
(237,-59,o),
(245,-58,o),
(252,-48,cs),
(258,-38,o),
(257,-31,o),
(248,-24,cs),
(201,10,o),
(175,45,o),
(170,79,cs),
(166,114,o),
(166,148,o),
(170,184,cs),
(174,221,o),
(175,259,o),
(171,296,cs),
(167,334,o),
(142,372,o),
(97,409,c),
(142,447,o),
(167,485,o),
(171,523,cs),
(175,561,o),
(174,599,o),
(170,636,cs),
(166,671,o),
(166,705,o),
(170,740,cs),
(175,775,o),
(201,810,o),
(248,844,cs)
);
}
);
width = 256;
}
);
unicode = 123;
},
{
glyphname = braceright;
lastChange = "2023-02-26 17:18:09 +0000";
layers = (
{
guides = (
{
angle = 180;
pos = (-252,-66);
}
);
layerId = m01;
shapes = (
{
closed = 1;
nodes = (
(-1,-30,o),
(-3,-38,o),
(4,-48,cs),
(11,-58,o),
(19,-59,o),
(28,-52,c),
(84,-12,o),
(115,29,o),
(120,69,cs),
(125,109,o),
(125,148,o),
(120,188,cs),
(116,223,o),
(116,258,o),
(121,293,cs),
(125,328,o),
(151,362,o),
(198,397,c),
(188,411,l),
(198,397,l),
(207,404,o),
(208,412,o),
(201,420,c),
(201,423,o),
(200,425,o),
(197,425,c),
(151,460,o),
(125,494,o),
(121,529,cs),
(116,563,o),
(116,598,o),
(120,633,cs),
(125,673,o),
(125,713,o),
(120,753,cs),
(115,792,o),
(84,832,o),
(28,872,c),
(19,880,o),
(11,878,o),
(4,868,cs),
(-3,859,o),
(-1,851,o),
(8,845,cs),
(55,810,o),
(81,776,o),
(86,741,cs),
(90,707,o),
(90,672,o),
(86,637,cs),
(81,599,o),
(81,562,o),
(85,524,cs),
(89,486,o),
(113,449,o),
(159,411,c),
(113,373,o),
(89,336,o),
(85,298,cs),
(81,260,o),
(81,222,o),
(86,184,cs),
(90,150,o),
(90,115,o),
(86,80,cs),
(81,46,o),
(55,11,o),
(8,-24,cs)
);
}
);
width = 256;
}
);
unicode = 125;
},
{
glyphname = bracketleft;
lastChange = "2023-02-26 17:18:09 +0000";
layers = (
{
layerId = m01;
shapes = (
{
closed = 1;
nodes = (
(68,851,ls),
(56,851,o),
(50,845,o),
(50,833,cs),
(50,-35,l),
(50,-38,l),
(50,-44,l),
(51,-48,o),
(53,-51,o),
(57,-53,c),
(58,-54,o),
(60,-54,o),
(62,-55,cs),
(64,-55,o),
(66,-56,o),
(68,-56,cs),
(70,-56,l),
(162,-56,ls),
(173,-56,o),
(179,-50,o),
(179,-38,cs),
(179,-26,o),
(173,-20,o),
(162,-20,cs),
(86,-20,l),
(86,816,l),
(162,816,ls),
(173,816,o),
(179,822,o),
(179,833,cs),
(179,845,o),
(173,851,o),
(162,851,cs)
);
}
);
width = 179;
}
);
unicode = 91;
},
{
glyphname = bracketright;
lastChange = "2023-02-26 17:18:09 +0000";
layers = (
{
layerId = m01;
shapes = (
{
closed = 1;
nodes = (
(112,853,l),
(18,853,ls),
(6,853,o),
(0,847,o),
(0,835,cs),
(0,824,o),
(6,818,o),
(18,818,cs),
(94,818,l),
(94,-21,l),
(18,-21,ls),
(6,-21,o),
(0,-27,o),
(0,-39,cs),
(0,-50,o),
(6,-56,o),
(18,-56,cs),
(109,-56,l),
(112,-56,ls),
(114,-56,o),
(116,-56,o),
(117,-55,cs),
(119,-55,o),
(121,-54,o),
(123,-54,c),
(126,-52,o),
(128,-48,o),
(129,-44,c),
(129,-39,l),
(129,-36,l),
(129,835,ls),
(129,847,o),
(123,853,o),
(112,853,c)
);
}
);
width = 179;
}
);
unicode = 93;
},
{
glyphname = quotedblbase;
lastChange = "2023-02-26 17:18:09 +0000";
layers = (
{
layerId = m01;
shapes = (
{
closed = 1;
nodes = (
(176,70,o),
(184,66,o),
(198,67,cs),
(211,68,o),
(213,55,o),
(203,29,cs),
(193,1,o),
(172,-37,o),
(140,-83,cs),
(134,-93,o),
(135,-101,o),
(145,-108,cs),
(155,-115,o),
(163,-114,o),
(170,-104,cs),
(203,-55,o),
(226,-14,o),
(237,17,cs),
(252,57,o),
(251,88,o),
(234,111,cs),
(225,124,o),
(211,125,o),
(192,114,cs),
(173,103,o),
(166,91,o),
(172,79,cs)
);
},
{
closed = 1;
nodes = (
(57,70,o),
(66,66,o),
(79,67,cs),
(92,68,o),
(94,55,o),
(85,29,cs),
(75,1,o),
(53,-37,o),
(21,-83,cs),
(15,-93,o),
(17,-101,o),
(26,-108,cs),
(36,-115,o),
(44,-114,o),
(51,-104,cs),
(85,-55,o),
(108,-14,o),
(119,17,cs),
(133,57,o),
(132,88,o),
(115,111,c),
(106,124,o),
(93,125,o),
(74,114,cs),
(55,103,o),
(48,91,o),
(54,79,cs)
);
}
);
width = 298;
}
);
unicode = 8222;
},
{
glyphname = quotedblleft;
lastChange = "2023-02-26 17:18:09 +0000";
layers = (
{
layerId = m01;
shapes = (
{
closed = 1;
nodes = (
(122,631,o),
(114,635,o),
(100,634,cs),
(87,633,o),
(86,646,o),
(95,672,cs),
(105,700,o),
(126,738,o),
(159,785,cs),
(164,794,o),
(162,803,o),
(153,810,cs),
(144,817,o),
(135,815,o),
(128,805,cs),
(94,756,o),
(72,715,o),
(61,684,cs),
(46,644,o),
(47,613,o),
(64,590,c),
(73,577,o),
(86,576,o),
(106,588,cs),
(125,599,o),
(131,610,o),
(126,622,cs)
);
},
{
closed = 1;
nodes = (
(238,631,o),
(230,635,o),
(216,634,cs),
(203,633,o),
(201,646,o),
(211,672,cs),
(221,700,o),
(242,738,o),
(274,785,cs),
(280,794,o),
(278,803,o),
(269,810,cs),
(259,817,o),
(251,815,o),
(244,805,cs),
(211,756,o),
(188,715,o),
(177,684,cs),
(162,644,o),
(163,613,o),
(180,590,cs),
(189,577,o),
(203,576,o),
(222,588,cs),
(241,599,o),
(247,610,o),
(242,622,cs)
);
}
);
width = 295;
}
);
unicode = 8220;
},
{
glyphname = quotedblright;
lastChange = "2023-02-26 17:18:09 +0000";
layers = (
{
layerId = m01;
shapes = (
{
closed = 1;
nodes = (
(173,762,o),
(182,758,o),
(195,759,cs),
(208,760,o),
(210,748,o),
(201,721,cs),
(191,693,o),
(169,656,o),
(137,609,cs),
(131,599,o),
(133,591,o),
(142,583,cs),
(152,577,o),
(160,578,o),
(167,589,cs),
(201,638,o),
(224,678,o),
(235,710,cs),
(250,749,o),
(249,781,o),
(232,803,cs),
(223,816,o),
(209,817,o),
(190,806,cs),
(171,795,o),
(164,783,o),
(170,772,cs)
);
},
{
closed = 1;
nodes = (
(58,762,o),
(66,758,o),
(79,759,cs),
(92,760,o),
(94,748,o),
(85,721,cs),
(74,693,o),
(53,656,o),
(21,609,cs),
(16,599,o),
(17,591,o),
(26,583,c),
(37,577,o),
(45,578,o),
(52,589,cs),
(85,638,o),
(108,678,o),
(119,710,cs),
(134,749,o),
(133,781,o),
(116,803,cs),
(107,816,o),
(93,817,o),
(74,806,cs),
(55,795,o),
(48,783,o),
(54,772,cs)
);
}
);
width = 296;
}
);
unicode = 8221;
},
{
glyphname = quoteleft;
lastChange = "2023-02-26 17:18:09 +0000";
layers = (
{
layerId = m01;
shapes = (
{
closed = 1;
nodes = (
(121,631,o),
(113,635,o),
(100,634,cs),
(87,633,o),
(85,646,o),
(94,672,cs),
(104,700,o),
(125,738,o),
(158,785,cs),
(164,794,o),
(162,803,o),
(152,810,cs),
(142,817,o),
(134,815,o),
(127,805,cs),
(94,756,o),
(72,715,o),
(61,684,cs),
(45,644,o),
(46,613,o),
(63,590,cs),
(72,577,o),
(86,576,o),
(105,588,cs),
(124,599,o),
(131,610,o),
(125,622,cs)
);
}
);
width = 179;
}
);
unicode = 8216;
},
{
glyphname = quoteright;
lastChange = "2023-02-26 17:18:09 +0000";
layers = (
{
layerId = m01;
shapes = (
{
closed = 1;
nodes = (
(57,762,o),
(66,758,o),
(79,759,cs),
(92,760,o),
(94,748,o),
(85,721,cs),
(75,693,o),
(53,656,o),
(21,609,cs),
(15,599,o),
(17,591,o),
(26,583,cs),
(36,577,o),
(44,578,o),
(51,589,cs),
(85,638,o),
(108,678,o),
(119,710,cs),
(134,749,o),
(133,781,o),
(116,803,cs),
(107,816,o),
(93,817,o),
(74,806,cs),
(55,795,o),
(48,783,o),
(54,772,cs)
);
}
);
width = 180;
}
);
unicode = 8217;
},
{
glyphname = guillemetleft;
lastChange = "2023-02-26 17:18:09 +0000";
layers = (
{
layerId = m01;
shapes = (
{
closed = 1;
nodes = (
(340,8,ls),
(347,-1,o),
(356,-2,o),
(365,5,c),
(373,13,o),
(375,21,o),
(368,30,cs),
(233,204,l),
(368,379,ls),
(374,387,o),
(373,395,o),
(365,402,c),
(356,409,o),
(347,408,o),
(340,399,cs),
(190,204,l)
);
},
{
closed = 1;
nodes = (
(200,8,ls),
(207,-2,o),
(216,-2,o),
(226,5,c),
(233,13,o),
(235,21,o),
(228,30,cs),
(93,204,l),
(228,379,ls),
(234,387,o),
(233,395,o),
(226,402,c),
(216,409,o),
(207,409,o),
(200,399,cs),
(50,204,l)
);
}
);
width = 397;
}
);
unicode = 171;
},
{
glyphname = guillemetright;
lastChange = "2023-02-26 17:18:09 +0000";
layers = (
{
layerId = m01;
shapes = (
{
closed = 1;
nodes = (
(57,399,ls),
(50,408,o),
(41,409,o),
(32,402,c),
(24,395,o),
(23,387,o),
(29,379,cs),
(164,204,l),
(29,30,ls),
(22,21,o),
(24,13,o),
(32,5,c),
(41,-2,o),
(50,-1,o),
(57,8,cs),
(207,204,l)
);
},
{
closed = 1;
nodes = (
(197,399,ls),
(190,409,o),
(181,409,o),
(171,402,c),
(164,395,o),
(163,387,o),
(169,379,cs),
(304,204,l),
(169,30,ls),
(162,21,o),
(164,13,o),
(171,5,c),
(181,-2,o),
(190,-2,o),
(197,8,cs),
(347,204,l)
);
}
);
width = 397;
}
);
unicode = 187;
},
{
glyphname = guilsinglleft;
lastChange = "2023-02-26 17:18:09 +0000";
layers = (
{
layerId = m01;
shapes = (
{
closed = 1;
nodes = (
(201,8,ls),
(208,-1,o),
(217,-2,o),
(226,5,c),
(234,13,o),
(235,21,o),
(228,30,cs),
(93,204,l),
(228,379,ls),
(235,387,o),
(234,395,o),
(226,402,c),
(217,409,o),
(208,408,o),
(201,399,cs),
(50,204,l)
);
}
);
width = 258;
}
);
unicode = 8249;
},
{
glyphname = guilsinglright;
lastChange = "2023-02-26 17:18:09 +0000";
layers = (
{
layerId = m01;
shapes = (
{
closed = 1;
nodes = (
(57,399,ls),
(50,408,o),
(41,409,o),
(32,402,c),
(24,395,o),
(23,387,o),
(30,379,cs),
(165,204,l),
(30,30,ls),
(23,21,o),
(24,13,o),
(32,5,c),
(41,-2,o),
(50,-1,o),
(57,8,cs),
(208,204,l)
);
}
);
width = 258;
}
);
unicode = 8250;
},
{
glyphname = quotedbl;
lastChange = "2023-02-26 17:18:09 +0000";
layers = (
{
layerId = m01;
shapes = (
{
closed = 1;
nodes = (
(160,783,ls),
(160,794,o),
(154,800,o),
(142,800,cs),
(130,800,o),
(125,794,o),
(125,783,cs),
(125,683,ls),
(125,672,o),
(130,666,o),
(142,666,cs),
(154,666,o),
(160,672,o),
(160,683,cs)
);
},
{
closed = 1;
nodes = (
(85,783,ls),
(85,794,o),
(79,800,o),
(67,800,cs),
(56,800,o),
(50,794,o),
(50,783,cs),
(50,683,ls),
(50,672,o),
(56,666,o),
(67,666,cs),
(79,666,o),
(85,672,o),
(85,683,cs)
);
}
);
width = 210;
}
);
unicode = 34;
},
{
glyphname = quotesingle;
lastChange = "2023-02-26 17:18:09 +0000";
layers = (
{
layerId = m01;
shapes = (
{
closed = 1;
nodes = (
(85,783,ls),
(85,795,o),
(79,800,o),
(67,800,cs),
(56,800,o),
(50,795,o),
(50,783,cs),
(50,684,ls),
(50,673,o),
(56,667,o),
(67,667,cs),
(79,667,o),
(85,673,o),
(85,684,cs)
);
}
);
width = 135;
}
);
unicode = 39;
},
{
glyphname = at;
lastChange = "2023-02-26 17:18:20 +0000";
layers = (
{
layerId = m01;
shapes = (
{
closed = 1;
nodes = (
(441,-14,o),
(443,-6,o),
(438,3,cs),
(431,14,o),
(423,16,o),
(413,9,c),
(397,-1,o),
(378,-9,o),
(358,-16,cs),
(337,-21,o),
(318,-24,o),
(300,-24,cs),
(239,-24,o),
(189,-3,o),
(147,39,cs),
(106,81,o),
(85,131,o),
(85,190,cs),
(85,249,o),
(106,299,o),
(147,342,cs),
(189,384,o),
(239,405,o),
(300,405,cs),
(303,405,l),
(307,405,l),
(308,405,ls),
(364,402,o),
(412,381,o),
(453,342,cs),
(494,300,o),
(514,252,o),
(514,198,cs),
(514,194,o),
(514,192,o),
(514,191,c),
(513,178,o),
(511,162,o),
(508,143,cs),
(505,125,o),
(500,108,o),
(492,94,cs),
(482,76,o),
(470,67,o),
(456,67,cs),
(439,67,o),
(427,71,o),
(419,81,cs),
(411,90,o),
(407,109,o),
(408,137,cs),
(408,190,l),
(408,342,ls),
(408,353,o),
(402,359,o),
(390,359,cs),
(378,359,o),
(372,353,o),
(372,342,cs),
(372,308,l),
(349,336,o),
(317,349,o),
(278,349,cs),
(230,349,o),
(196,334,o),
(177,302,cs),
(157,271,o),
(147,233,o),
(147,190,cs),
(147,141,o),
(158,103,o),
(180,75,cs),
(203,46,o),
(236,32,o),
(278,32,cs),
(319,32,o),
(352,48,o),
(377,79,c),
(387,48,o),
(414,32,o),
(456,32,cs),
(485,32,o),
(507,47,o),
(523,78,cs),
(532,95,o),
(539,114,o),
(543,136,cs),
(546,157,o),
(548,175,o),
(549,190,cs),
(549,194,l),
(549,198,ls),
(549,263,o),
(525,319,o),
(478,366,cs),
(431,412,o),
(375,437,o),
(310,439,cs),
(309,439,l),
(302,439,l),
(300,439,ls),
(230,439,o),
(171,415,o),
(124,366,cs),
(75,318,o),
(50,259,o),
(50,190,cs),
(50,120,o),
(75,62,o),
(124,14,cs),
(170,-34,o),
(229,-59,o),
(300,-59,cs),
(323,-59,o),
(346,-56,o),
(369,-49,cs),
(390,-43,o),
(411,-33,o),
(431,-20,cs)
);
},
{
closed = 1;
nodes = (
(307,314,o),
(330,304,o),
(347,284,cs),
(364,262,o),
(372,231,o),
(372,190,cs),
(372,149,o),
(364,118,o),
(347,97,cs),
(331,77,o),
(308,67,o),
(278,67,cs),
(247,67,o),
(223,77,o),
(208,97,cs),
(190,118,o),
(182,149,o),
(182,190,cs),
(182,224,o),
(189,253,o),
(203,277,cs),
(218,302,o),
(242,314,o),
(278,314,cs)
);
}
);
width = 599;
}
);
unicode = 64;
},
{
glyphname = ampersand;
lastChange = "2023-02-26 17:18:20 +0000";
layers = (
{
layerId = m01;
shapes = (
{
closed = 1;
nodes = (
(258,89,l),
(290,42,ls),
(302,24,o),
(313,12,o),
(321,8,cs),
(334,1,o),
(347,1,o),
(360,9,cs),
(373,17,o),
(389,38,o),
(407,72,cs),
(412,82,o),
(409,90,o),
(400,97,cs),
(389,102,o),
(381,100,o),
(376,90,cs),
(365,68,o),
(356,53,o),
(351,47,cs),
(345,40,o),
(341,38,o),
(338,39,cs),
(334,41,o),
(328,49,o),
(317,64,cs),
(284,112,l),
(330,155,o),
(354,177,o),
(356,179,cs),
(365,187,o),
(366,196,o),
(358,205,c),
(352,214,o),
(344,215,o),
(334,207,cs),
(331,203,o),
(308,182,o),
(266,143,c),
(187,277,l),
(190,280,o),
(204,293,o),
(231,316,cs),
(258,339,o),
(271,374,o),
(272,420,cs),
(273,467,o),
(248,491,o),
(198,493,cs),
(148,496,o),
(119,474,o),
(109,429,cs),
(100,384,o),
(110,338,o),
(141,289,c),
(139,287,o),
(114,267,o),
(67,230,c),
(40,206,o),
(22,181,o),
(12,156,cs),
(2,130,o),
(-1,108,o),
(1,88,cs),
(4,68,o),
(11,51,o),
(21,37,cs),
(31,23,o),
(44,13,o),
(61,7,cs),
(79,-1,o),
(100,-2,o),
(125,3,cs),
(150,7,o),
(175,20,o),
(202,41,cs)
);
},
{
closed = 1;
nodes = (
(181,70,ls),
(141,38,o),
(104,28,o),
(72,40,cs),
(61,44,o),
(53,51,o),
(47,59,cs),
(40,68,o),
(36,79,o),
(35,94,cs),
(33,108,o),
(36,125,o),
(45,144,cs),
(53,164,o),
(67,183,o),
(89,202,cs),
(158,258,l),
(209,171,o),
(236,125,o),
(240,119,c)
);
},
{
closed = 1;
nodes = (
(144,350,o),
(134,385,o),
(139,414,cs),
(144,442,o),
(161,457,o),
(192,458,cs),
(223,458,o),
(239,444,o),
(241,415,cs),
(243,386,o),
(232,361,o),
(208,341,cs),
(184,321,o),
(171,310,o),
(170,309,c)
);
}
);
width = 409;
}
);
unicode = 38;
},
{
glyphname = paragraph;
lastChange = "2023-02-26 17:18:20 +0000";
layers = (
{
layerId = m01;
shapes = (
{
closed = 1;
nodes = (
(160,802,l),
(126,801,o),
(99,786,o),
(79,759,cs),
(60,732,o),
(50,693,o),
(50,643,cs),
(50,593,o),
(60,555,o),
(79,527,cs),
(98,502,o),
(122,488,o),
(151,485,c),
(151,18,ls),
(151,6,o),
(157,0,o),
(168,0,cs),
(180,0,o),
(186,6,o),
(186,18,cs),
(186,768,l),
(317,768,l),
(317,18,ls),
(317,6,o),
(323,0,o),
(334,0,cs),
(346,0,o),
(352,6,o),
(352,18,cs),
(352,768,l),
(433,768,ls),
(445,768,o),
(450,773,o),
(450,785,cs),
(450,797,o),
(445,803,o),
(433,803,cs)
);
}
);
width = 500;
}
);
unicode = 182;
},
{
glyphname = section;
lastChange = "2023-02-26 17:18:20 +0000";
layers = (
{
layerId = m01;
shapes = (
{
closed = 1;
nodes = (
(55,673,o),
(55,668,o),
(54,664,cs),
(54,660,o),
(54,656,o),
(54,652,cs),
(54,633,o),
(57,616,o),
(64,602,cs),
(72,587,o),
(81,575,o),
(94,566,cs),
(109,555,l),
(101,547,ls),
(87,536,o),
(77,523,o),
(70,508,cs),
(62,494,o),
(58,478,o),
(55,462,cs),
(55,457,o),
(55,453,o),
(54,448,cs),
(54,444,o),
(54,440,o),
(54,437,cs),
(54,398,o),
(67,370,o),
(94,350,cs),
(109,340,o),
(126,329,o),
(144,319,cs),
(162,308,o),
(182,299,o),
(204,290,cs),
(220,283,o),
(237,274,o),
(254,265,cs),
(271,256,o),
(287,246,o),
(304,236,cs),
(335,215,o),
(348,181,o),
(342,132,cs),
(341,119,o),
(337,106,o),
(330,95,cs),
(324,84,o),
(315,74,o),
(305,65,c),
(291,56,o),
(277,49,o),
(261,43,cs),
(245,38,o),
(229,35,o),
(211,35,cs),
(180,35,o),
(154,44,o),
(133,62,c),
(123,68,o),
(113,78,o),
(105,90,cs),
(97,103,o),
(90,117,o),
(83,132,c),
(80,136,o),
(77,139,o),
(73,141,cs),
(69,143,o),
(65,142,o),
(59,139,cs),
(50,132,o),
(48,124,o),
(52,113,cs),
(65,77,o),
(86,49,o),
(115,27,cs),
(141,9,o),
(173,0,o),
(211,0,cs),
(256,0,o),
(293,11,o),
(321,32,cs),
(338,44,o),
(350,58,o),
(359,73,cs),
(369,89,o),
(375,106,o),
(378,124,cs),
(379,130,o),
(379,135,o),
(379,140,cs),
(379,156,ls),
(379,177,o),
(376,196,o),
(368,214,cs),
(360,232,o),
(350,247,o),
(337,259,c),
(341,264,ls),
(351,274,o),
(360,286,o),
(366,299,cs),
(372,311,o),
(376,325,o),
(378,339,cs),
(378,345,o),
(379,350,o),
(379,355,cs),
(379,360,o),
(379,365,o),
(379,370,cs),
(379,415,o),
(365,450,o),
(335,473,cs),
(301,499,o),
(261,521,o),
(215,540,cs),
(183,553,o),
(152,569,o),
(124,588,cs),
(96,606,o),
(86,634,o),
(92,671,cs),
(93,683,o),
(96,695,o),
(103,706,cs),
(109,717,o),
(118,727,o),
(128,735,c),
(155,755,o),
(186,765,o),
(221,765,cs),
(249,765,o),
(275,756,o),
(298,739,cs),
(307,731,o),
(316,722,o),
(325,710,cs),
(334,698,o),
(341,684,o),
(347,669,cs),
(350,664,o),
(353,660,o),
(357,659,cs),
(362,657,o),
(367,658,o),
(372,663,cs),
(380,669,o),
(382,678,o),
(379,688,cs),
(371,706,o),
(362,722,o),
(351,736,cs),
(341,750,o),
(328,763,o),
(314,773,cs),
(291,791,o),
(260,801,o),
(221,801,cs),
(178,801,o),
(141,790,o),
(111,768,cs),
(79,744,o),
(60,714,o),
(55,677,cs)
);
},
{
closed = 1;
nodes = (
(303,278,l),
(303,279,l),
(291,286,o),
(277,294,o),
(263,302,cs),
(248,310,o),
(232,318,o),
(215,326,c),
(183,339,o),
(152,354,o),
(124,372,cs),
(111,381,o),
(102,393,o),
(96,407,cs),
(90,421,o),
(89,437,o),
(92,455,cs),
(93,468,o),
(96,480,o),
(102,491,cs),
(109,502,o),
(117,512,o),
(128,521,cs),
(143,537,l),
(151,532,o),
(161,527,o),
(172,521,cs),
(183,515,o),
(194,510,o),
(204,505,cs),
(220,498,o),
(237,489,o),
(254,480,cs),
(271,471,o),
(287,461,o),
(304,450,cs),
(335,429,o),
(348,395,o),
(342,347,cs),
(339,319,o),
(327,296,o),
(305,280,c)
);
}
);
width = 430;
}
);
unicode = 167;
},
{
glyphname = copyright;
lastChange = "2023-02-26 17:18:20 +0000";
layers = (
{
layerId = m01;
shapes = (
{
closed = 1;
nodes = (
(592,224,o),
(588,232,o),
(578,237,cs),
(567,241,o),
(559,237,o),
(555,226,cs),
(541,191,o),
(523,164,o),
(501,147,cs),
(480,130,o),
(454,121,o),
(423,121,cs),
(365,121,o),
(325,149,o),
(301,203,cs),
(277,258,o),
(264,324,o),
(264,402,cs),
(264,494,o),
(279,564,o),
(308,615,cs),
(335,660,o),
(373,683,o),
(423,683,cs),
(453,683,o),
(479,674,o),
(501,657,cs),
(523,639,o),
(541,612,o),
(555,577,cs),
(559,567,o),
(567,563,o),
(578,568,cs),
(589,571,o),
(592,579,o),
(588,590,cs),
(571,631,o),
(550,663,o),
(523,684,cs),
(494,707,o),
(461,718,o),
(423,718,cs),
(360,718,o),
(312,689,o),
(279,632,cs),
(246,578,o),
(229,501,o),
(229,402,cs),
(229,315,o),
(244,240,o),
(273,178,cs),
(302,117,o),
(352,86,o),
(423,86,cs),
(462,86,o),
(495,97,o),
(523,120,cs),
(550,141,o),
(571,172,o),
(588,214,cs)
);
},
{
closed = 1;
nodes = (
(315,803,o),
(221,764,o),
(142,686,cs),
(64,607,o),
(25,512,o),
(25,402,cs),
(25,291,o),
(64,197,o),
(142,118,cs),
(221,40,o),
(315,1,o),
(426,1,cs),
(538,1,o),
(632,40,o),
(710,118,cs),
(789,196,o),
(828,291,o),
(828,402,cs),
(828,513,o),
(789,608,o),
(710,686,cs),
(632,764,o),
(538,803,o),
(426,803,cs)
);
},
{
closed = 1;
nodes = (
(757,589,o),
(792,503,o),
(792,402,cs),
(792,301,o),
(757,215,o),
(685,143,cs),
(613,72,o),
(527,36,o),
(426,36,cs),
(325,36,o),
(239,72,o),
(168,143,cs),
(96,215,o),
(61,301,o),
(61,402,cs),
(61,503,o),
(96,589,o),
(168,661,cs),
(239,732,o),
(325,768,o),
(426,768,cs),
(527,768,o),
(613,732,o),
(685,661,cs)
);
}
);
width = 853;
}
);
unicode = 169;
},
{
glyphname = registered;
lastChange = "2023-02-26 17:18:20 +0000";
layers = (
{
layerId = m01;
shapes = (
{
closed = 1;
nodes = (
(241,571,ls),
(268,571,o),
(291,578,o),
(307,593,cs),
(324,608,o),
(332,630,o),
(332,657,cs),
(332,683,o),
(324,704,o),
(307,721,cs),
(291,735,o),
(268,743,o),
(241,743,cs),
(194,743,ls),
(182,743,o),
(176,737,o),
(176,725,cs),
(176,588,l),
(176,452,ls),
(176,440,o),
(182,434,o),
(194,434,cs),
(206,434,o),
(212,440,o),
(212,452,cs),
(212,543,l),
(302,440,ls),
(310,431,o),
(318,431,o),
(327,439,cs),
(335,447,o),
(336,455,o),
(328,463,cs),
(232,571,l)
);
},
{
closed = 1;
nodes = (
(181,803,o),
(130,782,o),
(88,739,cs),
(46,698,o),
(25,647,o),
(25,586,cs),
(25,526,o),
(46,475,o),
(88,433,cs),
(130,391,o),
(181,370,o),
(241,370,cs),
(302,370,o),
(353,391,o),
(394,433,cs),
(437,475,o),
(458,526,o),
(458,586,cs),
(458,647,o),
(437,698,o),
(394,739,cs),
(353,782,o),
(302,803,o),
(241,803,cs)
);
},
{
closed = 1;
nodes = (
(405,680,o),
(423,637,o),
(423,586,cs),
(423,536,o),
(405,493,o),
(370,458,cs),
(334,423,o),
(291,405,o),
(241,405,cs),
(191,405,o),
(148,423,o),
(113,458,cs),
(77,494,o),
(59,537,o),
(59,586,cs),
(59,636,o),
(77,679,o),
(113,715,cs),
(148,750,o),
(191,768,o),
(241,768,cs),
(291,768,o),
(334,750,o),
(370,715,cs)
);
},
{
closed = 1;
nodes = (
(212,707,l),
(241,707,ls),
(259,707,o),
(273,703,o),
(284,695,cs),
(293,686,o),
(297,674,o),
(297,657,cs),
(297,639,o),
(293,626,o),
(284,619,cs),
(273,610,o),
(259,606,o),
(241,606,cs),
(212,606,l)
);
}
);
width = 483;
}
);
unicode = 174;
},
{
glyphname = trademark;
lastChange = "2023-02-26 17:18:20 +0000";
layers = (
{
layerId = m01;
shapes = (
{
closed = 1;
nodes = (
(67,805,ls),
(56,805,o),
(50,799,o),
(50,787,cs),
(50,776,o),
(56,770,o),
(67,770,cs),
(152,770,l),
(152,426,ls),
(152,414,o),
(158,408,o),
(169,408,cs),
(180,408,o),
(186,414,o),
(186,426,cs),
(186,770,l),
(271,770,ls),
(282,770,o),
(288,776,o),
(288,787,cs),
(288,799,o),
(282,805,o),
(271,805,cs)
);
},
{
closed = 1;
nodes = (
(584,787,l),
(583,790,ls),
(582,796,o),
(578,801,o),
(572,805,c),
(560,808,o),
(552,803,o),
(549,792,c),
(550,793,l),
(532,740,o),
(515,688,o),
(498,637,cs),
(480,585,o),
(463,533,o),
(445,481,c),
(436,509,o),
(427,536,o),
(418,561,cs),
(410,586,o),
(401,612,o),
(393,637,cs),
(384,662,o),
(376,687,o),
(367,712,cs),
(359,738,o),
(350,765,o),
(340,793,c),
(341,792,l),
(338,803,o),
(332,807,o),
(323,805,c),
(317,803,o),
(313,800,o),
(311,798,cs),
(309,796,o),
(308,793,o),
(306,790,c),
(306,426,ls),
(306,414,o),
(312,408,o),
(324,408,cs),
(336,408,o),
(342,414,o),
(342,426,cs),
(342,681,l),
(350,654,o),
(358,631,o),
(365,610,cs),
(372,590,o),
(379,570,o),
(385,550,cs),
(392,531,o),
(399,511,o),
(405,490,cs),
(412,470,o),
(420,447,o),
(429,421,c),
(428,422,l),
(432,409,o),
(440,405,o),
(452,410,c),
(451,410,l),
(456,411,o),
(459,415,o),
(461,420,cs),
(476,464,o),
(490,507,o),
(505,551,cs),
(520,594,o),
(534,638,o),
(549,683,c),
(549,426,ls),
(549,414,o),
(555,408,o),
(567,408,cs),
(578,408,o),
(584,414,o),
(584,426,cs)
);
}
);
width = 634;
}
);
unicode = 8482;
},
{
glyphname = degree;
lastChange = "2023-02-26 17:18:20 +0000";
layers = (
{
layerId = m01;
shapes = (
{
closed = 1;
nodes = (
(85,692,o),
(88,703,o),
(92,714,cs),
(97,724,o),
(103,733,o),
(110,741,cs),
(118,749,o),
(127,755,o),
(138,759,cs),
(148,764,o),
(159,766,o),
(170,766,cs),
(182,766,o),
(193,764,o),
(203,759,cs),
(214,755,o),
(223,749,o),
(231,741,cs),
(238,733,o),
(245,724,o),
(249,714,cs),
(253,703,o),
(256,692,o),
(256,681,cs),
(256,669,o),
(253,657,o),
(249,647,cs),
(245,637,o),
(238,628,o),
(231,621,cs),
(223,613,o),
(214,607,o),
(203,603,cs),
(193,598,o),
(182,596,o),
(170,596,cs),
(159,596,o),
(148,598,o),
(138,603,cs),
(127,607,o),
(118,613,o),
(110,621,cs),
(103,628,o),
(97,637,o),
(92,647,cs),
(88,657,o),
(85,669,o),
(85,681,cs)
);
},
{
closed = 1;
nodes = (
(50,664,o),
(53,648,o),
(60,634,cs),
(66,619,o),
(74,606,o),
(85,595,cs),
(96,585,o),
(108,576,o),
(123,570,cs),
(138,564,o),
(153,561,o),
(170,561,cs),
(187,561,o),
(203,564,o),
(217,570,cs),
(232,576,o),
(245,585,o),
(256,595,cs),
(267,606,o),
(275,619,o),
(282,634,cs),
(288,648,o),
(291,664,o),
(291,681,cs),
(291,697,o),
(288,713,o),
(282,728,cs),
(275,742,o),
(267,755,o),
(256,766,cs),
(245,777,o),
(232,786,o),
(217,792,cs),
(203,798,o),
(187,801,o),
(170,801,cs),
(153,801,o),
(138,798,o),
(123,792,cs),
(108,786,o),
(96,777,o),
(85,766,cs),
(74,755,o),
(66,742,o),
(60,728,cs),
(53,713,o),
(50,697,o),
(50,681,cs)
);
}
);
width = 341;
}
);
unicode = 176;
},
{
glyphname = bar;
lastChange = "2023-02-26 17:18:20 +0000";
layers = (
{
layerId = m01;
shapes = (
{
closed = 1;
nodes = (
(86,892,ls),
(86,904,o),
(80,910,o),
(67,910,cs),
(56,910,o),
(50,904,o),
(50,892,cs),
(50,-173,ls),
(50,-185,o),
(56,-190,o),
(67,-190,cs),
(80,-190,o),
(86,-185,o),
(86,-173,cs)
);
}
);
width = 136;
}
);
unicode = 124;
},
{
glyphname = brokenbar;
lastChange = "2023-02-26 17:18:20 +0000";
layers = (
{
layerId = m01;
shapes = (
{
closed = 1;
nodes = (
(80,-190,o),
(86,-185,o),
(86,-173,cs),
(86,280,l),
(50,280,l),
(50,-173,ls),
(50,-185,o),
(56,-190,o),
(68,-190,cs)
);
},
{
closed = 1;
nodes = (
(86,892,ls),
(86,904,o),
(80,910,o),
(68,910,cs),
(56,910,o),
(50,904,o),
(50,892,cs),
(50,440,l),
(86,440,l)
);
}
);
width = 136;
}
);
unicode = 166;
},
{
glyphname = dagger;
lastChange = "2023-02-26 17:18:20 +0000";
layers = (
{
layerId = m01;
shapes = (
{
closed = 1;
nodes = (
(290,636,ls),
(303,636,o),
(309,642,o),
(309,655,cs),
(309,667,o),
(303,673,o),
(291,674,cs),
(196,674,l),
(196,783,ls),
(196,794,o),
(190,800,o),
(178,800,cs),
(167,800,o),
(161,794,o),
(161,783,cs),
(161,674,l),
(67,674,ls),
(56,674,o),
(50,668,o),
(50,656,cs),
(50,644,o),
(55,638,o),
(67,638,cs),
(161,637,l),
(161,18,ls),
(161,6,o),
(167,0,o),
(178,0,cs),
(190,0,o),
(196,6,o),
(196,18,cs),
(196,636,l)
);
}
);
width = 359;
}
);
unicode = 8224;
},
{
glyphname = daggerdbl;
lastChange = "2023-02-26 17:18:20 +0000";
layers = (
{
layerId = m01;
shapes = (
{
closed = 1;
nodes = (
(290,636,ls),
(302,636,o),
(309,642,o),
(309,655,cs),
(308,667,o),
(302,673,o),
(291,674,cs),
(196,674,l),
(196,783,ls),
(196,794,o),
(190,800,o),
(178,800,cs),
(166,800,o),
(160,794,o),
(160,783,cs),
(160,674,l),
(67,674,ls),
(56,674,o),
(50,668,o),
(50,656,cs),
(49,644,o),
(55,638,o),
(67,638,cs),
(160,637,l),
(160,177,l),
(69,177,ls),
(56,177,o),
(50,171,o),
(51,160,cs),
(50,147,o),
(56,141,o),
(69,141,cs),
(160,140,l),
(160,18,ls),
(160,6,o),
(166,0,o),
(178,0,cs),
(190,0,o),
(196,6,o),
(196,18,cs),
(196,140,l),
(290,140,ls),
(302,140,o),
(309,146,o),
(309,158,cs),
(308,171,o),
(302,177,o),
(291,177,cs),
(196,177,l),
(196,636,l)
);
}
);
width = 359;
}
);
unicode = 8225;
},
{
glyphname = cent;
lastChange = "2023-02-26 17:18:20 +0000";
layers = (
{
layerId = m01;
shapes = (
{
closed = 1;
nodes = (
(228,591,ls),
(228,603,o),
(222,608,o),
(209,608,cs),
(198,608,o),
(192,603,o),
(192,591,cs),
(192,513,l),
(150,509,o),
(117,491,o),
(93,460,cs),
(64,425,o),
(50,376,o),
(50,312,cs),
(50,248,o),
(64,199,o),
(93,164,cs),
(117,133,o),
(150,115,o),
(192,110,c),
(192,26,ls),
(192,15,o),
(198,9,o),
(209,9,cs),
(222,9,o),
(228,15,o),
(228,26,cs),
(228,109,l),
(258,112,o),
(284,120,o),
(307,135,cs),
(331,151,o),
(350,176,o),
(364,210,cs),
(368,221,o),
(364,228,o),
(354,232,cs),
(343,237,o),
(335,233,o),
(331,222,cs),
(321,196,o),
(306,177,o),
(287,164,cs),
(270,153,o),
(251,146,o),
(228,144,c),
(228,479,l),
(251,477,o),
(270,471,o),
(287,460,cs),
(306,447,o),
(321,427,o),
(331,401,cs),
(335,391,o),
(343,387,o),
(354,391,cs),
(365,395,o),
(368,402,o),
(364,414,cs),
(350,447,o),
(331,472,o),
(307,488,cs),
(284,504,o),
(257,513,o),
(228,514,c)
);
},
{
closed = 1;
nodes = (
(137,461,o),
(161,474,o),
(192,478,c),
(192,146,l),
(161,150,o),
(137,163,o),
(120,186,cs),
(97,214,o),
(86,256,o),
(86,312,cs),
(86,367,o),
(97,409,o),
(120,439,cs)
);
}
);
width = 416;
}
);
unicode = 162;
},
